<svg id="Component_109_1" data-name="Component 109 – 1" xmlns="http://www.w3.org/2000/svg" width="15" height="15" viewBox="0 0 15 15">
  <g id="Ellipse_398" data-name="Ellipse 398" stroke="#000" stroke-width="1">
    <circle cx="7.5" cy="7.5" r="7.5" stroke="none"/>
    <circle cx="7.5" cy="7.5" r="7" fill="none"/>
  </g>
  <g id="_000000ff" data-name="#000000ff" transform="translate(-39.385 -130.545)">
    <path id="Path_143699" data-name="Path 143699" d="M399.495,133.678a.1.1,0,0,1,.043-.058c-.021.25-.063.5-.093.746-.063.452-.108.9-.152,1.358-.012.251-.014.5-.01.754a.872.872,0,0,0,.132.5.694.694,0,0,0,.912.164c.153-.123.263-.293.419-.412.171-.093.375,0,.555-.063a.5.5,0,0,0,.132-.069c-.079-.072-.17-.129-.251-.2a.134.134,0,0,1-.055-.139.81.81,0,0,1,.14-.246,3.2,3.2,0,0,1,.7-.721c.124-.078.267.012.352.107a.16.16,0,0,1,0,.227c-.11.046-.217-.068-.326-.019a.772.772,0,0,0-.285.215.067.067,0,0,0,.011.1.412.412,0,0,0,.407.053c.218-.068.344-.273.5-.42.053-.029.108.029.1.083-.025.129-.069.253-.107.379-.015.07-.091.088-.146.116a1.074,1.074,0,0,0-.327.266c-.192.2-.368.407-.573.591a1.448,1.448,0,0,1-.436.3c-.146.065-.308-.008-.458.037a.355.355,0,0,0-.133.108c-.14.163-.234.362-.388.514a.726.726,0,0,1-.579.245.449.449,0,0,1-.295-.171,1.163,1.163,0,0,1-.284-.57,5.244,5.244,0,0,1-.037-.866,6.662,6.662,0,0,1,.055-.666A14.724,14.724,0,0,1,399.495,133.678Z" transform="translate(-349.716)" fill="#fff"/>
    <path id="Path_143700" data-name="Path 143700" d="M326.286,175.032a.153.153,0,0,1,.148.051c.1.088.2.179.3.268a.2.2,0,0,1,.083.146.321.321,0,0,1-.093.119l-.43.4c-.03.029-.076.066-.117.031-.1-.072-.185-.164-.28-.243a.7.7,0,0,1-.142-.146c-.029-.064.019-.123.061-.167.125-.129.247-.259.371-.389A.253.253,0,0,1,326.286,175.032Z" transform="translate(-278.234 -40.423)" fill="#fff"/>
    <path id="Path_143701" data-name="Path 143701" d="M326.275,224.523c.061-.04.129.013.177.05.11.095.219.191.326.289a.129.129,0,0,1,0,.2c-.144.141-.294.276-.44.415a.282.282,0,0,1-.1.071c-.057,0-.094-.049-.135-.08-.106-.1-.221-.191-.321-.3-.058-.073.014-.158.067-.21C326,224.817,326.124,224.658,326.275,224.523Z" transform="translate(-278.246 -88.731)" fill="#fff"/>
    <path id="Path_143702" data-name="Path 143702" d="M48.922,230.947c.1-.039.214-.067.321-.1a2.826,2.826,0,0,1-.2.547,3.9,3.9,0,0,1-.508,1.061,1.03,1.03,0,0,1-.336.3,2.43,2.43,0,0,1-.5.137c-.048.071-.054.165-.1.241a2.507,2.507,0,0,1-.666.852,3.417,3.417,0,0,1-1.1.558,4.711,4.711,0,0,1-1.176.211,6.046,6.046,0,0,1-1.184-.063,5.111,5.111,0,0,1-.833-.235,7.948,7.948,0,0,1-1.176-.582,6.326,6.326,0,0,1-.639-.454.137.137,0,0,1-.069-.1.418.418,0,0,1,.134.014c.228.068.449.155.676.224a15.722,15.722,0,0,0,1.828.434,5.6,5.6,0,0,0,2.564-.106,3.744,3.744,0,0,0,.8-.365,1.2,1.2,0,0,0,.5-.5,5.91,5.91,0,0,0,.095-.784.2.2,0,0,1,.179-.145,1.828,1.828,0,0,0,.7-.111.9.9,0,0,0,.34-.4c.092-.185.186-.369.277-.554C48.867,231,48.881,230.96,48.922,230.947Z" transform="translate(0 -94.922)" fill="#fff"/>
    <path id="Path_143703" data-name="Path 143703" d="M458.069,309.452c.055-.052.134-.006.182.033.115.1.229.2.339.3a.128.128,0,0,1,0,.193c-.153.147-.31.289-.464.435-.033.033-.085.076-.131.037-.135-.109-.262-.229-.39-.346a.12.12,0,0,1,.009-.178C457.763,309.765,457.919,309.612,458.069,309.452Z" transform="translate(-406.925 -171.635)" fill="#fff"/>
    <path id="Path_143704" data-name="Path 143704" d="M154.16,402.173a.146.146,0,0,1,.132.042c.094.079.185.163.277.244a.365.365,0,0,1,.116.143c.023.052-.03.095-.061.13l-.454.425c-.028.023-.062.061-.1.043a.963.963,0,0,1-.171-.138c-.082-.076-.17-.146-.247-.228-.054-.05-.023-.132.021-.177.091-.1.186-.193.277-.292C154.018,402.3,154.071,402.212,154.16,402.173Z" transform="translate(-110.191 -262.174)" fill="#fff"/>
    <path id="Path_143705" data-name="Path 143705" d="M208.774,402.053c.054-.022.108.014.15.047.1.086.2.178.3.267.038.035.086.073.083.131s-.042.1-.079.134c-.156.144-.309.293-.467.435-.044.041-.1,0-.136-.03-.116-.106-.236-.208-.349-.317a.123.123,0,0,1,.011-.174c.093-.1.195-.2.288-.305A1.213,1.213,0,0,1,208.774,402.053Z" transform="translate(-163.522 -262.054)" fill="#fff"/>
    <path id="Path_143706" data-name="Path 143706" d="M446.512,427.787c.034-.031.081-.084.128-.044a2.085,2.085,0,0,1,.268.234c.043.041.014.1-.026.132a4.389,4.389,0,0,1-.349.316,2.668,2.668,0,0,1-.29-.26c-.034-.039,0-.092.025-.123C446.349,427.956,446.431,427.871,446.512,427.787Z" transform="translate(-395.852 -287.126)" fill="#fff"/>
    <path id="Path_143707" data-name="Path 143707" d="M311.09,440.909a1.386,1.386,0,0,1,.378-.129c.036.2,0,.4.02.607a.558.558,0,0,1,.24-.11.394.394,0,0,1,.389.306.647.647,0,0,1-.069.519.52.52,0,0,1-.413.236.668.668,0,0,1-.381-.13c0-.308,0-.616,0-.924a.952.952,0,0,0-.024-.3l-.115.015c-.009-.028-.017-.056-.024-.085m.483.6a.132.132,0,0,0-.09.131c0,.157-.011.316.008.472a.2.2,0,0,0,.286.051.486.486,0,0,0,.11-.468A.229.229,0,0,0,311.573,441.508Z" transform="translate(-263.922 -299.868)" fill="#fff"/>
    <path id="Path_143708" data-name="Path 143708" d="M415.241,449.886l.07-.006a2.11,2.11,0,0,1,.018.305.933.933,0,0,1,.207.015.534.534,0,0,1,.012.115c-.072,0-.144,0-.216,0-.016.179,0,.359-.008.539,0,.055-.009.125.037.166.082.035.116-.121.2-.061.023.044-.015.092-.038.129a.247.247,0,0,1-.336.08.258.258,0,0,1-.087-.218c-.007-.211,0-.423-.006-.634-.045,0-.091,0-.136-.009,0-.018,0-.053,0-.07A.632.632,0,0,0,415.241,449.886Z" transform="translate(-365.316 -308.752)" fill="#fff"/>
    <path id="Path_143709" data-name="Path 143709" d="M266.225,461.636a.549.549,0,0,1,.414-.008.208.208,0,0,1,.136.17c.019.219,0,.439.018.658a1.206,1.206,0,0,1,.111-.069c.061,0,.048.08.02.113a.292.292,0,0,1-.254.142c-.059-.008-.085-.067-.112-.111-.086.046-.167.121-.272.114a.252.252,0,0,1-.256-.218.267.267,0,0,1,.078-.245,1.29,1.29,0,0,1,.439-.232.263.263,0,0,0-.026-.181.136.136,0,0,0-.2-.016c-.025.056-.01.122-.032.179a.118.118,0,0,1-.207-.007.242.242,0,0,1,.147-.29m.062.606a.148.148,0,0,0,.05.215c.079.029.151-.031.211-.074,0-.1,0-.2,0-.295A.445.445,0,0,0,266.287,462.242Z" transform="translate(-219.927 -320.185)" fill="#fff"/>
    <path id="Path_143710" data-name="Path 143710" d="M368.237,461.766a.422.422,0,0,1,.454-.163c.1.016.222.077.232.194.017.22,0,.441.017.661.048-.02.09-.08.146-.06.028.046,0,.1-.035.134a.275.275,0,0,1-.235.113c-.058-.01-.083-.067-.111-.111a.445.445,0,0,1-.318.11.271.271,0,0,1-.132-.458,1.3,1.3,0,0,1,.439-.233.274.274,0,0,0-.017-.169.142.142,0,0,0-.167-.06c-.114.049-.008.242-.15.265s-.179-.133-.121-.224m.205.464a.147.147,0,0,0,.061.234.233.233,0,0,0,.189-.082,1.7,1.7,0,0,0,0-.291A.516.516,0,0,0,368.442,462.231Z" transform="translate(-319.651 -320.187)" fill="#fff"/>
    <path id="Path_143711" data-name="Path 143711" d="M449.84,461.692a1.921,1.921,0,0,1,.359-.132c.049.013.037.067.041.105q0,.32,0,.641a.6.6,0,0,0,.015.158c.035.037.091.042.136.063a.48.48,0,0,1-.027.062,4.887,4.887,0,0,1-.49,0l-.007-.066c.045-.018.092-.033.137-.054,0-.23.01-.462-.006-.691-.037-.021-.083-.006-.124-.014C449.861,461.739,449.85,461.716,449.84,461.692Z" transform="translate(-399.378 -320.154)" fill="#fff"/>
  </g>
</svg>
