<svg xmlns="http://www.w3.org/2000/svg" width="19.524" height="20" viewBox="0 0 19.524 20">
  <path id="person_FILL1_wght500_GRAD0_opsz24" d="M13.562,13.5a4.8,4.8,0,0,1-3.542-1.474A4.834,4.834,0,0,1,8.562,8.5,4.822,4.822,0,0,1,10.02,4.958,4.822,4.822,0,0,1,13.562,3.5,4.822,4.822,0,0,1,17.1,4.958,4.822,4.822,0,0,1,18.562,8.5,4.834,4.834,0,0,1,17.1,12.026,4.8,4.8,0,0,1,13.562,13.5ZM3.8,23.5V19.929a3.742,3.742,0,0,1,2.024-3.363,17.238,17.238,0,0,1,3.81-1.414,16.98,16.98,0,0,1,7.857,0,18.174,18.174,0,0,1,3.81,1.385,3.662,3.662,0,0,1,1.474,1.385,3.8,3.8,0,0,1,.55,2.008V23.5Z" transform="translate(-3.8 -3.5)" fill="#fff"/>
</svg>
