<svg id="Component_115_1" data-name="Component 115 – 1" xmlns="http://www.w3.org/2000/svg" width="21.053" height="21.053" viewBox="0 0 21.053 21.053">
  <path id="Path_156403" data-name="Path 156403" d="M14.526,4A10.526,10.526,0,1,0,25.053,14.526,10.526,10.526,0,0,0,14.526,4Zm0,20A9.474,9.474,0,1,1,24,14.526,9.474,9.474,0,0,1,14.526,24Z" transform="translate(-4 -4)" fill="#fff"/>
  <path id="Path_156404" data-name="Path 156404" d="M23.956,18.2,20.114,23,17.9,20.784a.528.528,0,1,0-.747.747l2.632,2.632a.553.553,0,0,0,.374.153h.032a.526.526,0,0,0,.379-.195l4.211-5.263a.526.526,0,1,0-.821-.658Z" transform="translate(-10.156 -10.632)" fill="#fff"/>
</svg>
