<svg id="Component_110_1" data-name="Component 110 – 1" xmlns="http://www.w3.org/2000/svg" width="16.108" height="17.572" viewBox="0 0 16.108 17.572">
  <path id="Path_152646" data-name="Path 152646" d="M9.786,9.518a3.509,3.509,0,0,0-3.651,3.661h7.3A3.51,3.51,0,0,0,9.786,9.518ZM2.464,0h-1.1A.366.366,0,0,0,1,.366v16.84a.366.366,0,0,0,.366.366h1.1Z" transform="translate(-1)"/>
  <path id="Path_152647" data-name="Path 152647" d="M15.715,0H4V17.572H16.447a1.464,1.464,0,0,0,1.464-1.464V2.2A2.2,2.2,0,0,0,15.715,0ZM10.59,3.661a2.2,2.2,0,1,1-2.2,2.2A2.2,2.2,0,0,1,10.59,3.661Zm4.042,10.25H6.563a.366.366,0,0,1-.366-.366c0-2.891,1.724-4.759,4.393-4.759,2.637,0,4.35,1.823,4.392,4.653a.366.366,0,0,1-.351.472Z" transform="translate(-1.803)"/>
  <ellipse id="Ellipse_399" data-name="Ellipse 399" cx="1.744" cy="1.308" rx="1.744" ry="1.308" transform="translate(6.977 4.491)"/>
</svg>
