<svg xmlns="http://www.w3.org/2000/svg" width="13.432" height="15.581" viewBox="0 0 13.432 15.581">
  <path id="bell_2_" data-name="bell (2)" d="M28.317,20.261h0a1.751,1.751,0,0,1-1.65-1.765V15.272a4.951,4.951,0,0,0-9.9,0V18.5a1.776,1.776,0,0,1-1.631,1.765h-.019a.153.153,0,0,0-.115.115v1.535a.172.172,0,0,0,.173.173H28.259a.172.172,0,0,0,.173-.173V20.376C28.432,20.4,28.413,20.28,28.317,20.261ZM15.576,14.869H15.23a.165.165,0,0,1-.154-.154,6.161,6.161,0,0,1,3.224-5.3.133.133,0,0,1,.192.058l.154.307a.149.149,0,0,1-.058.192,5.588,5.588,0,0,0-2.9,4.74A.116.116,0,0,1,15.576,14.869Zm12.358,0h.345a.165.165,0,0,0,.154-.154,6.161,6.161,0,0,0-3.224-5.3.133.133,0,0,0-.192.058l-.154.307a.149.149,0,0,0,.058.192,5.588,5.588,0,0,1,2.9,4.74A.116.116,0,0,0,27.933,14.869Zm-3.876,8.04a.185.185,0,0,1,.154.249,2.618,2.618,0,0,1-4.989,0,.185.185,0,0,1,.154-.249Z" transform="translate(-15 -9.4)"/>
</svg>
