<svg id="Component_112_1" data-name="Component 112 – 1" xmlns="http://www.w3.org/2000/svg" width="21.197" height="21.197" viewBox="0 0 21.197 21.197">
  <path id="Path_156409" data-name="Path 156409" d="M14.6,4A10.6,10.6,0,1,0,25.2,14.6,10.6,10.6,0,0,0,14.6,4Zm0,20.137A9.539,9.539,0,1,1,24.137,14.6,9.539,9.539,0,0,1,14.6,24.137Z" transform="translate(-4 -4)" fill="#fff"/>
  <path id="Path_156408" data-name="Path 156408" d="M24.2,18.151a.53.53,0,0,0-.752,0L21.177,20.43,18.9,18.151a.532.532,0,1,0-.752.752l2.279,2.273L18.151,23.45a.532.532,0,1,0,.752.752l2.273-2.279L23.45,24.2a.532.532,0,1,0,.752-.752l-2.279-2.273L24.2,18.9a.53.53,0,0,0,0-.752Z" transform="translate(-10.578 -10.578)" fill="#fff"/>
</svg>
