<svg xmlns="http://www.w3.org/2000/svg" width="13.671" height="17.943" viewBox="0 0 13.671 17.943">
  <path id="lock" d="M10.835,14.671a1.709,1.709,0,1,0-1.709-1.709,1.709,1.709,0,0,0,1.709,1.709m5.127-7.69A1.709,1.709,0,0,1,17.671,8.69v8.544a1.709,1.709,0,0,1-1.709,1.709H5.709A1.709,1.709,0,0,1,4,17.234V8.69A1.708,1.708,0,0,1,5.709,6.981h.854V5.272a4.272,4.272,0,1,1,8.544,0V6.981h.854M10.835,2.709A2.563,2.563,0,0,0,8.272,5.272V6.981H13.4V5.272A2.563,2.563,0,0,0,10.835,2.709Z" transform="translate(-4 -1)"/>
</svg>
