<svg id="Component_110_1" data-name="Component 110 – 1" xmlns="http://www.w3.org/2000/svg" width="51" height="50" viewBox="0 0 51 50">
  <ellipse id="Ellipse_382" data-name="Ellipse 382" cx="25.5" cy="25" rx="25.5" ry="25" fill="#fff"/>
  <g id="resize" transform="translate(14.232 14.445)">
    <path id="Path_155370" data-name="Path 155370" d="M44.407,11.77a.4.4,0,0,0-.4.4v.989h-.989a.4.4,0,1,0,0,.791h1.384a.4.4,0,0,0,.4-.4V12.166A.4.4,0,0,0,44.407,11.77Zm-3.513,1.384H38.766a.4.4,0,1,0,0,.791h2.129a.4.4,0,1,0,0-.791Zm-5.642.791h1.384a.4.4,0,0,0,0-.791h-.989v-.989a.4.4,0,1,0-.791,0V13.55A.4.4,0,0,0,35.253,13.946Zm0-3.513a.4.4,0,0,0,.4-.4V7.908a.4.4,0,1,0-.791,0v2.128a.4.4,0,0,0,.4.4ZM36.637,4H35.253a.4.4,0,0,0-.4.4V5.78a.4.4,0,1,0,.791,0V4.791h.989a.4.4,0,0,0,0-.791Zm4.257,0H38.766a.4.4,0,1,0,0,.791h2.128a.4.4,0,1,0,0-.791Zm3.908.4a.4.4,0,0,0-.4-.4H43.023a.4.4,0,1,0,0,.791h.989V5.78a.4.4,0,0,0,.791,0Zm0,3.513a.4.4,0,0,0-.791,0v2.129a.4.4,0,0,0,.791,0Z" transform="translate(-22.651 -4)" fill="#b9873e"/>
    <g id="Component_109_1" data-name="Component 109 – 1" transform="translate(0 0)">
      <path id="Path_155371" data-name="Path 155371" d="M4.4,26.151h21.36a.4.4,0,0,0,.4-.4V15.618a.394.394,0,0,0-.4-.4H15.491v4.414a.4.4,0,1,1-.791,0V16.013L9.269,21.44a.4.4,0,0,1-.277.115.405.405,0,0,1-.281-.115.394.394,0,0,1,0-.558l5.427-5.431H10.515a.4.4,0,1,1,0-.791h4.414V4.4a.394.394,0,0,0-.4-.4H4.4a.4.4,0,0,0-.4.4v21.36A.4.4,0,0,0,4.4,26.151Z" transform="translate(-4 -4)" fill="#b9873e"/>
    </g>
  </g>
</svg>
