<svg id="Component_110_1" data-name="Component 110 – 1" xmlns="http://www.w3.org/2000/svg" width="36" height="36" viewBox="0 0 36 36">
  <circle id="Ellipse_396" data-name="Ellipse 396" cx="18" cy="18" r="18" fill="#fff"/>
  <g id="_000000ff" data-name="#000000ff" transform="translate(3.609 9.195)">
    <path id="Path_143699" data-name="Path 143699" d="M400.087,133.744a.21.21,0,0,1,.091-.124c-.044.532-.134,1.059-.2,1.588-.133.961-.229,1.927-.324,2.893-.025.535-.029,1.071-.02,1.607a1.856,1.856,0,0,0,.282,1.072,1.478,1.478,0,0,0,1.942.35c.326-.262.559-.624.892-.878.365-.2.8-.008,1.181-.134a1.074,1.074,0,0,0,.281-.147c-.169-.153-.362-.274-.535-.421a.286.286,0,0,1-.117-.3,1.726,1.726,0,0,1,.3-.524,6.816,6.816,0,0,1,1.5-1.534c.265-.166.569.025.749.227a.34.34,0,0,1,.009.483c-.235.1-.463-.145-.694-.04a1.642,1.642,0,0,0-.607.457.144.144,0,0,0,.023.217.877.877,0,0,0,.866.112c.465-.146.733-.58,1.075-.893.113-.061.231.062.2.177-.054.274-.147.539-.227.806-.032.149-.194.188-.31.248a2.288,2.288,0,0,0-.7.567c-.409.417-.784.867-1.219,1.258a3.085,3.085,0,0,1-.929.638c-.31.139-.656-.016-.975.079a.755.755,0,0,0-.284.231c-.3.347-.5.77-.826,1.094a1.546,1.546,0,0,1-1.233.522.956.956,0,0,1-.628-.363,2.476,2.476,0,0,1-.605-1.215,11.166,11.166,0,0,1-.078-1.843,14.173,14.173,0,0,1,.117-1.418A31.345,31.345,0,0,1,400.087,133.744Z" transform="translate(-380.862 -133.62)"/>
    <path id="Path_143700" data-name="Path 143700" d="M326.891,175.038a.327.327,0,0,1,.314.108c.218.187.43.38.645.571a.428.428,0,0,1,.177.312.685.685,0,0,1-.2.254q-.46.426-.915.855c-.064.063-.163.14-.249.067-.214-.153-.395-.349-.6-.518a1.491,1.491,0,0,1-.3-.311c-.062-.135.041-.263.13-.355.265-.274.526-.552.79-.828A.538.538,0,0,1,326.891,175.038Z" transform="translate(-311.343 -172.933)"/>
    <path id="Path_143701" data-name="Path 143701" d="M326.853,224.539c.129-.085.275.027.377.107.234.2.467.406.7.616a.274.274,0,0,1,.007.42c-.306.3-.625.588-.937.883a.6.6,0,0,1-.215.152c-.121.006-.2-.1-.287-.171-.225-.214-.47-.406-.684-.63-.124-.156.03-.336.142-.448C326.258,225.165,326.532,224.827,326.853,224.539Z" transform="translate(-311.355 -219.914)"/>
    <path id="Path_143702" data-name="Path 143702" d="M58.151,231.057c.223-.082.455-.143.684-.207a6.017,6.017,0,0,1-.435,1.164,8.3,8.3,0,0,1-1.082,2.258,2.194,2.194,0,0,1-.715.648,5.177,5.177,0,0,1-1.069.292c-.1.152-.116.35-.2.512a5.338,5.338,0,0,1-1.418,1.813,7.275,7.275,0,0,1-2.349,1.188,10.032,10.032,0,0,1-2.5.45,12.876,12.876,0,0,1-2.522-.134,10.878,10.878,0,0,1-1.774-.5,16.92,16.92,0,0,1-2.5-1.238,13.479,13.479,0,0,1-1.36-.967.293.293,0,0,1-.147-.218.89.89,0,0,1,.286.031c.485.145.956.329,1.44.478a33.472,33.472,0,0,0,3.892.924,11.917,11.917,0,0,0,5.461-.225,7.971,7.971,0,0,0,1.7-.777,2.545,2.545,0,0,0,1.067-1.056,12.585,12.585,0,0,0,.2-1.669.424.424,0,0,1,.381-.308,3.892,3.892,0,0,0,1.5-.236,1.915,1.915,0,0,0,.725-.849c.2-.393.4-.786.589-1.18C58.033,231.177,58.064,231.084,58.151,231.057Z" transform="translate(-40.75 -225.935)"/>
    <path id="Path_143703" data-name="Path 143703" d="M458.631,309.478c.117-.111.285-.013.388.07.245.208.487.421.722.641a.273.273,0,0,1,0,.412c-.326.312-.66.616-.988.926-.071.071-.18.161-.278.079-.288-.233-.558-.487-.831-.736a.256.256,0,0,1,.02-.38C457.979,310.145,458.312,309.818,458.631,309.478Z" transform="translate(-436.5 -300.541)"/>
    <path id="Path_143704" data-name="Path 143704" d="M154.77,402.177a.311.311,0,0,1,.281.09c.2.168.393.346.59.519a.778.778,0,0,1,.247.305c.048.111-.064.2-.13.277l-.967.9c-.061.05-.132.13-.219.091a2.049,2.049,0,0,1-.364-.294c-.174-.163-.362-.312-.526-.486-.115-.106-.05-.282.045-.377.194-.21.4-.412.59-.621C154.466,402.449,154.58,402.259,154.77,402.177Z" transform="translate(-147.915 -388.594)"/>
    <path id="Path_143705" data-name="Path 143705" d="M209.367,402.061c.115-.047.231.031.319.1.221.184.431.38.648.568.08.075.184.156.176.279.018.125-.09.207-.167.286-.333.307-.658.623-.995.926-.094.086-.216.01-.29-.063-.246-.227-.5-.442-.743-.675a.262.262,0,0,1,.024-.37c.2-.224.415-.429.614-.65A2.578,2.578,0,0,1,209.367,402.061Z" transform="translate(-199.781 -388.477)"/>
    <path id="Path_143706" data-name="Path 143706" d="M446.832,427.852c.071-.067.172-.178.273-.093a4.452,4.452,0,0,1,.571.5c.092.087.031.217-.055.282a9.354,9.354,0,0,1-.744.672,5.671,5.671,0,0,1-.617-.553c-.072-.082-.008-.2.054-.262C446.485,428.212,446.659,428.032,446.832,427.852Z" transform="translate(-425.731 -412.861)"/>
    <path id="Path_143707" data-name="Path 143707" d="M311.09,441.055a2.952,2.952,0,0,1,.8-.275c.077.425,0,.862.042,1.292a1.187,1.187,0,0,1,.512-.234.838.838,0,0,1,.828.651,1.376,1.376,0,0,1-.147,1.1,1.108,1.108,0,0,1-.88.5,1.423,1.423,0,0,1-.81-.277c-.008-.656,0-1.311,0-1.967a2.026,2.026,0,0,0-.051-.649l-.244.031c-.018-.06-.035-.12-.051-.18m1.029,1.275a.282.282,0,0,0-.192.28c.008.335-.023.672.017,1a.433.433,0,0,0,.609.109,1.035,1.035,0,0,0,.235-1A.488.488,0,0,0,312.119,442.33Z" transform="translate(-297.424 -425.253)"/>
    <path id="Path_143708" data-name="Path 143708" d="M415.569,449.894l.149-.014a4.486,4.486,0,0,1,.038.65,1.975,1.975,0,0,1,.441.032,1.135,1.135,0,0,1,.025.245c-.153.008-.306.009-.459,0-.034.382-.008.765-.018,1.148.01.117-.018.267.08.354.175.075.248-.257.416-.129.05.095-.032.2-.08.276a.526.526,0,0,1-.715.17.55.55,0,0,1-.186-.464c-.015-.45.008-.9-.012-1.349-.1-.005-.193-.01-.289-.019,0-.037-.007-.112-.01-.15A1.346,1.346,0,0,0,415.569,449.894Z" transform="translate(-396.034 -433.893)"/>
    <path id="Path_143709" data-name="Path 143709" d="M266.451,461.686a1.168,1.168,0,0,1,.881-.016.442.442,0,0,1,.289.363c.041.466,0,.934.039,1.4a2.609,2.609,0,0,1,.237-.146c.131,0,.1.171.042.241a.623.623,0,0,1-.541.3c-.125-.017-.18-.142-.239-.237-.184.1-.356.257-.578.244a.537.537,0,0,1-.545-.464.569.569,0,0,1,.167-.522,2.748,2.748,0,0,1,.934-.495.561.561,0,0,0-.056-.386.289.289,0,0,0-.433-.033c-.053.119-.02.259-.068.381a.251.251,0,0,1-.44-.016.515.515,0,0,1,.313-.617m.132,1.291a.315.315,0,0,0,.106.458c.169.061.32-.067.45-.157.006-.209.008-.419,0-.627A.949.949,0,0,0,266.583,462.976Z" transform="translate(-254.637 -445.012)"/>
    <path id="Path_143710" data-name="Path 143710" d="M368.309,461.961a.9.9,0,0,1,.966-.348c.22.033.472.165.493.413.036.468,0,.939.035,1.408.1-.043.191-.171.31-.128.059.1-.007.211-.075.285a.585.585,0,0,1-.5.241c-.123-.021-.177-.143-.236-.236a.948.948,0,0,1-.677.235.578.578,0,0,1-.281-.976,2.765,2.765,0,0,1,.935-.5.582.582,0,0,0-.037-.359.3.3,0,0,0-.356-.127c-.242.1-.017.515-.32.565-.276.071-.382-.283-.258-.476m.437.989a.313.313,0,0,0,.129.5.5.5,0,0,0,.4-.175,3.629,3.629,0,0,0,.006-.62A1.1,1.1,0,0,0,368.745,462.95Z" transform="translate(-351.622 -445.014)"/>
    <path id="Path_143711" data-name="Path 143711" d="M449.84,461.842a4.086,4.086,0,0,1,.763-.282c.1.027.079.143.087.224q0,.682,0,1.364a1.272,1.272,0,0,0,.033.336c.074.079.194.09.289.135a1.044,1.044,0,0,1-.058.131,10.438,10.438,0,0,1-1.044,0l-.014-.142c.1-.038.2-.071.291-.115,0-.49.021-.983-.013-1.472-.079-.044-.177-.014-.263-.03C449.884,461.941,449.861,461.892,449.84,461.842Z" transform="translate(-429.16 -444.982)"/>
  </g>
</svg>
