<svg xmlns="http://www.w3.org/2000/svg" width="16.651" height="16.648" viewBox="0 0 16.651 16.648">
  <g id="Layer_3" data-name="Layer 3" transform="translate(-2.99 -3)">
    <path id="Path_152633" data-name="Path 152633" d="M40.672,11.27a.287.287,0,0,1-.287-.287,7.314,7.314,0,0,0-7.208-7.409.287.287,0,0,1,0-.574,7.9,7.9,0,0,1,7.782,7.988A.287.287,0,0,1,40.672,11.27Z" transform="translate(-21.318)"/>
    <path id="Path_152634" data-name="Path 152634" d="M16.225,13.9a.287.287,0,0,1-.287-.287,4.151,4.151,0,0,0-4.079-4.2.287.287,0,0,1,0-.574,4.716,4.716,0,0,1,4.65,4.771.287.287,0,0,1-.284.293Zm1.694,6.034a5.721,5.721,0,0,1-1.524,1.894,2.081,2.081,0,0,1-1.633.422,14.025,14.025,0,0,1-7.724-4.1,14.856,14.856,0,0,1-4.019-7.968A2.222,2.222,0,0,1,3.429,8.5a5.6,5.6,0,0,1,1.86-1.579.749.749,0,0,1,1.085,0L8.9,9.549a.893.893,0,0,1,0,1.217L7.112,12.709A15.252,15.252,0,0,0,12.3,18.051l1.892-1.846a.835.835,0,0,1,1.183,0l2.555,2.583a.807.807,0,0,1-.006,1.145Z" transform="translate(0 -2.631)"/>
  </g>
</svg>
