<svg xmlns="http://www.w3.org/2000/svg" width="15" height="15" viewBox="0 0 15 15">
  <g id="Group_57369" data-name="Group 57369" transform="translate(-41 -624.873)">
    <g id="Ellipse_398" data-name="Ellipse 398" transform="translate(41 624.873)" stroke="#000" stroke-width="1">
      <circle cx="7.5" cy="7.5" r="7.5" stroke="none"/>
      <circle cx="7.5" cy="7.5" r="7" fill="none"/>
    </g>
    <path id="currency" d="M5.029,2h0a5.029,5.029,0,1,0,1.958,9.663c.052-.022.1-.046.154-.069a2.657,2.657,0,0,0,1.5.464,2.688,2.688,0,0,0,.273-.014,2.653,2.653,0,0,0,1-.309,2.692,2.692,0,0,0,.942-.856c.048-.071.093-.144.134-.22s.079-.154.113-.234.064-.161.09-.245.048-.169.066-.256a2.666,2.666,0,0,0,.041-.265h0a2.666,2.666,0,0,0-.041-.811c-.018-.087-.04-.171-.066-.255h0q-.039-.125-.09-.245h0a2.668,2.668,0,0,0-.247-.453h0c-.048-.071-.1-.139-.154-.205h0c-.054-.066-.112-.13-.172-.19a2.685,2.685,0,0,0-.475-.374c0-.031,0-.063,0-.095A5.031,5.031,0,0,0,5.029,2Zm-.157.331V4.435h-2a15.242,15.242,0,0,1,.618-1.851A4.746,4.746,0,0,1,4.872,2.329Zm.314,0A4.747,4.747,0,0,1,6.53,2.57a15.171,15.171,0,0,1,.622,1.864H5.186Zm1.738.393A4.69,4.69,0,0,1,8.963,4.435H7.476A15.08,15.08,0,0,0,6.925,2.722Zm-3.836.02a14.969,14.969,0,0,0-.543,1.692H1.1A4.69,4.69,0,0,1,3.088,2.742ZM.925,4.749H2.468a11.31,11.31,0,0,0-.28,2.122H.33A4.663,4.663,0,0,1,.925,4.749Zm1.863,0H4.872V6.87H2.5A10.959,10.959,0,0,1,2.788,4.749Zm2.4,0H7.232A11,11,0,0,1,7.521,6.87H5.186Zm2.369,0H9.133A4.691,4.691,0,0,1,9.738,6.87h-.2a2.648,2.648,0,0,0-1.705-.031A11.277,11.277,0,0,0,7.555,4.749ZM8.643,7.028a2.352,2.352,0,0,1,1.82.857c.048.058.093.119.136.181s.082.128.118.195.07.136.1.206.056.143.079.217.042.149.058.226a2.364,2.364,0,0,1,.036.234A2.4,2.4,0,0,1,11,9.385h0a2.407,2.407,0,0,1-.012.241,2.354,2.354,0,0,1-2.1,2.1,2.4,2.4,0,0,1-.241.012,2.352,2.352,0,0,1-1.82-.858q-.072-.087-.136-.181c-.042-.063-.082-.128-.118-.195s-.07-.135-.1-.206A2.365,2.365,0,0,1,6.3,9.627h0a2.382,2.382,0,0,1,0-.483,2.352,2.352,0,0,1,.036-.233h0q.023-.115.058-.225h0c.023-.074.049-.146.079-.216h0c.03-.07.063-.139.1-.206h0c.036-.067.076-.131.118-.194h0c.042-.063.088-.122.136-.18h0c.048-.058.1-.114.152-.167a2.349,2.349,0,0,1,1.667-.689ZM.33,7.185H2.184a10.335,10.335,0,0,0,.209,2.122H.925A4.665,4.665,0,0,1,.33,7.185Zm2.163,0H4.872V9.307H2.713A9.971,9.971,0,0,1,2.493,7.185Zm2.693,0H7.131a2.691,2.691,0,0,0-.376.312c-.06.06-.118.124-.172.19h0c-.054.066-.106.134-.154.205h0a2.669,2.669,0,0,0-.247.453h0q-.051.12-.09.245h0c-.026.083-.048.168-.066.255h0c0,.013,0,.027-.006.041a2.679,2.679,0,0,0-.045.419H5.186Zm3.455.786a.163.163,0,0,0-.155.16V8.3a.637.637,0,0,0-.549.6.679.679,0,0,0,.707.646.336.336,0,1,1-.392.331.157.157,0,1,0-.314,0,.661.661,0,0,0,.549.628v.14a.157.157,0,1,0,.314,0v-.172a.637.637,0,0,0,.549-.6.659.659,0,0,0-.7-.645h0a.335.335,0,1,1-.009-.662h.018a.36.36,0,0,1,.383.33.157.157,0,1,0,.314,0A.661.661,0,0,0,8.8,8.267V8.13A.163.163,0,0,0,8.641,7.97ZM1.1,9.621H2.464a11.821,11.821,0,0,0,.52,1.645A4.69,4.69,0,0,1,1.1,9.621Zm1.689,0H4.872v2.106a4.74,4.74,0,0,1-1.481-.29A11.83,11.83,0,0,1,2.784,9.621Zm2.4,0h.8c0,.012,0,.024,0,.036h0a2.664,2.664,0,0,0,.041.265h0c.018.087.04.172.066.255s.056.165.09.245h0c.034.08.072.158.113.233s.086.149.134.22h0a2.687,2.687,0,0,0,.287.352c-.031.077-.062.154-.1.231a4.8,4.8,0,0,1-1.435.266Z" transform="translate(43.451 625.531)" fill="#fff"/>
  </g>
</svg>
