<svg xmlns="http://www.w3.org/2000/svg" width="16" height="16" viewBox="0 0 16 16">
  <g id="edit_2_" data-name="edit (2)" transform="translate(0 0)">
    <path id="Path_152644" data-name="Path 152644" d="M6.561,6.732A.5.5,0,0,0,6.421,7L6.007,9.416A.5.5,0,0,0,6.5,10a.487.487,0,0,0,.085-.007L9,9.579a.507.507,0,0,0,.269-.139L14,4.707,11.293,2Z"/>
    <path id="Path_152645" data-name="Path 152645" d="M9.17,10.564,6.5,11A1.5,1.5,0,0,1,5.021,9.248l.414-2.415a1.491,1.491,0,0,1,.418-.807L9.879,2H1.5A1.5,1.5,0,0,0,0,3.5v11A1.5,1.5,0,0,0,1.5,16h11A1.5,1.5,0,0,0,14,14.5V6.121L9.975,10.146A1.485,1.485,0,0,1,9.17,10.564Zm6.391-9.539L14.975.439a1.5,1.5,0,0,0-2.121,0L12,1.292,14.707,4l.854-.854a1.5,1.5,0,0,0,0-2.12Z"/>
  </g>
</svg>
