<svg xmlns="http://www.w3.org/2000/svg" width="25" height="25" viewBox="0 0 25 25">
  <g id="Group_57477" data-name="Group 57477" transform="translate(-361 -236)">
    <g id="Component_109_1" data-name="Component 109 – 1" transform="translate(361 236)">
      <circle id="Ellipse_5" data-name="Ellipse 5" cx="12.5" cy="12.5" r="12.5" fill="#b9873e"/>
      <path id="pen-to-square-solid" d="M20.6,6.224a1.543,1.543,0,0,1,0,2.184l-.827.83-2.7-2.7.83-.829a1.544,1.544,0,0,1,2.184,0Zm-8.765,5.55L16.446,7.16l2.7,2.7-4.615,4.613a1.529,1.529,0,0,1-.6.375l-2.448.816a.678.678,0,0,1-.838-.838l.816-2.448a1.529,1.529,0,0,1,.375-.6Z" transform="translate(-3.33 2.024)" fill="#fff"/>
    </g>
  </g>
</svg>
