<svg id="Component_110_1" data-name="Component 110 – 1" xmlns="http://www.w3.org/2000/svg" xmlns:xlink="http://www.w3.org/1999/xlink" width="14.52" height="14.52" viewBox="0 0 14.52 14.52">
  <defs>
    <linearGradient id="linear-gradient" x1="0.5" y1="1.119" x2="0.5" y2="0.126" gradientUnits="objectBoundingBox">
      <stop offset="0" stop-color="#e3a54a"/>
      <stop offset="1" stop-color="#ffc84d"/>
    </linearGradient>
  </defs>
  <path id="Path_152620" data-name="Path 152620" d="M7.76.5a7.26,7.26,0,1,0,7.26,7.26A7.26,7.26,0,0,0,7.76.5Z" transform="translate(-0.5 -0.5)" fill="#f5f5f5"/>
  <path id="Path_152621" data-name="Path 152621" d="M15.925,10.007a.624.624,0,0,0-.593-.431H12.457L11.57,6.841a.624.624,0,0,0-1.186,0L9.5,9.575H6.62A.625.625,0,0,0,6.251,10.7l2.327,1.688-.888,2.734a.621.621,0,0,0,.954.7l2.331-1.688L13.3,15.823a.614.614,0,0,0,.73,0,.614.614,0,0,0,.224-.7l-.888-2.734L15.7,10.7A.624.624,0,0,0,15.925,10.007Z" transform="translate(-3.717 -3.958)" fill="url(#linear-gradient)"/>
</svg>
