<svg xmlns="http://www.w3.org/2000/svg" width="11.235" height="10.508" viewBox="0 0 11.235 10.508">
  <g id="filter_6_" data-name="filter (6)" transform="translate(-4.562 -6.33)">
    <path id="Path_148285" data-name="Path 148285" d="M8.887,15.128a.41.41,0,0,1-.41-.41V12.612L5.006,8.993A1.569,1.569,0,0,1,6.136,6.33h8.091a1.567,1.567,0,0,1,1.106,2.679L11.6,12.737a.41.41,0,1,1-.578-.58l3.73-3.72a.75.75,0,0,0-.528-1.28H6.136A.748.748,0,0,0,5.6,8.425l3.585,3.73a.41.41,0,0,1,.115.285v2.278A.41.41,0,0,1,8.887,15.128Z" fill="#242424"/>
    <path id="Path_148286" data-name="Path 148286" d="M24.1,38.991a.41.41,0,0,1-.143-.793l2.161-.809V34.6a.41.41,0,1,1,.819,0v3.072a.41.41,0,0,1-.266.385l-2.427.907A.4.4,0,0,1,24.1,38.991Z" transform="translate(-15.21 -22.153)" fill="#242424"/>
  </g>
</svg>
