<svg xmlns="http://www.w3.org/2000/svg" width="81.171" height="58.549" viewBox="0 0 81.171 58.549">
  <g id="_000000ff" data-name="#000000ff" transform="translate(-40.75 -133.62)">
    <path id="Path_1" data-name="Path 1" d="M402.441,134.006a.652.652,0,0,1,.284-.386c-.137,1.652-.418,3.289-.616,4.935-.415,2.987-.713,5.987-1.007,8.987-.079,1.663-.091,3.328-.063,4.991a5.77,5.77,0,0,0,.876,3.33,4.593,4.593,0,0,0,6.033,1.087c1.013-.814,1.737-1.94,2.772-2.728,1.132-.617,2.482-.024,3.669-.418a3.336,3.336,0,0,0,.873-.457c-.525-.474-1.125-.853-1.663-1.307a.889.889,0,0,1-.364-.917,5.366,5.366,0,0,1,.928-1.627,21.177,21.177,0,0,1,4.654-4.767c.823-.515,1.768.077,2.328.705a1.056,1.056,0,0,1,.028,1.5c-.729.306-1.437-.449-2.156-.124a5.1,5.1,0,0,0-1.885,1.421.446.446,0,0,0,.071.675,2.725,2.725,0,0,0,2.69.349c1.443-.452,2.277-1.8,3.341-2.775.35-.19.718.192.633.551-.166.851-.455,1.674-.705,2.505-.1.462-.6.583-.964.77a7.107,7.107,0,0,0-2.163,1.761c-1.272,1.294-2.436,2.694-3.788,3.908a9.583,9.583,0,0,1-2.887,1.984c-.963.43-2.039-.05-3.028.247a2.347,2.347,0,0,0-.881.716c-.928,1.077-1.55,2.392-2.568,3.4a4.8,4.8,0,0,1-3.831,1.621,2.97,2.97,0,0,1-1.951-1.129,7.694,7.694,0,0,1-1.88-3.774,34.7,34.7,0,0,1-.242-5.726,44.072,44.072,0,0,1,.363-4.407A97.414,97.414,0,0,1,402.441,134.006Z" transform="translate(-301.959)"/>
    <path id="Path_2" data-name="Path 2" d="M329.3,175.064a1.015,1.015,0,0,1,.977.336c.677.581,1.337,1.181,2,1.773a1.331,1.331,0,0,1,.55.969,2.127,2.127,0,0,1-.613.79q-1.428,1.324-2.844,2.656c-.2.195-.506.435-.773.207-.666-.476-1.227-1.084-1.853-1.61a4.629,4.629,0,0,1-.936-.967c-.192-.421.129-.817.4-1.1.825-.851,1.635-1.715,2.455-2.573A1.673,1.673,0,0,1,329.3,175.064Z" transform="translate(-240.238 -34.903)"/>
    <path id="Path_3" data-name="Path 3" d="M329.152,224.6c.4-.264.854.083,1.17.331.727.628,1.451,1.263,2.16,1.913a.852.852,0,0,1,.022,1.3c-.952.933-1.943,1.827-2.912,2.744a1.861,1.861,0,0,1-.669.471c-.375.019-.62-.325-.891-.531-.7-.664-1.461-1.263-2.127-1.959-.385-.485.094-1.044.44-1.392C327.3,226.548,328.153,225.5,329.152,224.6Z" transform="translate(-240.249 -76.614)"/>
    <path id="Path_4" data-name="Path 4" d="M94.813,231.494c.694-.256,1.414-.443,2.127-.644-.144,1.307-.953,2.389-1.352,3.615a25.794,25.794,0,0,1-3.361,7.016,6.816,6.816,0,0,1-2.221,2.013,16.093,16.093,0,0,1-3.322.906c-.317.471-.36,1.088-.636,1.591a16.586,16.586,0,0,1-4.407,5.634,22.6,22.6,0,0,1-7.3,3.691,31.166,31.166,0,0,1-7.782,1.4,40.011,40.011,0,0,1-7.836-.416,33.812,33.812,0,0,1-5.513-1.556,52.575,52.575,0,0,1-7.779-3.848,41.851,41.851,0,0,1-4.226-3,.909.909,0,0,1-.455-.677,2.766,2.766,0,0,1,.887.1c1.506.449,2.972,1.022,4.475,1.484a104,104,0,0,0,12.094,2.869,37.025,37.025,0,0,0,16.965-.7,24.767,24.767,0,0,0,5.287-2.416,7.907,7.907,0,0,0,3.314-3.279c.666-1.652.192-3.49.628-5.186a1.317,1.317,0,0,1,1.183-.958c1.555-.184,3.229.055,4.654-.733a5.949,5.949,0,0,0,2.252-2.639c.611-1.222,1.228-2.441,1.83-3.666C94.445,231.865,94.543,231.577,94.813,231.494Z" transform="translate(0 -81.959)"/>
    <path id="Path_5" data-name="Path 5" d="M460.863,309.583c.363-.344.886-.041,1.2.217.762.647,1.512,1.308,2.243,1.992a.848.848,0,0,1,.011,1.28c-1.011.971-2.051,1.915-3.069,2.877-.221.22-.559.5-.864.245-.894-.722-1.734-1.512-2.58-2.287a.8.8,0,0,1,.061-1.18C458.838,311.653,459.873,310.638,460.863,309.583Z" transform="translate(-351.356 -148.196)"/>
    <path id="Path_6" data-name="Path 6" d="M157.191,402.195a.966.966,0,0,1,.873.28c.624.523,1.222,1.076,1.833,1.613a2.419,2.419,0,0,1,.768.949c.149.346-.2.628-.4.859q-1.5,1.406-3,2.81c-.188.155-.41.4-.682.283a6.37,6.37,0,0,1-1.131-.913c-.542-.506-1.126-.969-1.633-1.511-.357-.33-.154-.875.14-1.17.6-.653,1.23-1.28,1.833-1.93C156.245,403.04,156.6,402.449,157.191,402.195Z" transform="translate(-95.144 -226.371)"/>
    <path id="Path_7" data-name="Path 7" d="M211.725,402.091c.358-.146.716.1.991.308.686.57,1.34,1.18,2.013,1.765.25.232.57.484.548.865.055.388-.278.644-.52.887-1.033.955-2.043,1.935-3.091,2.876-.291.269-.672.03-.9-.2-.765-.7-1.563-1.374-2.309-2.1a.813.813,0,0,1,.075-1.151c.613-.694,1.288-1.332,1.908-2.02A8.021,8.021,0,0,1,211.725,402.091Z" transform="translate(-141.192 -226.268)"/>
    <path id="Path_8" data-name="Path 8" d="M448.1,428.114c.221-.207.536-.554.848-.289a13.823,13.823,0,0,1,1.775,1.547c.286.272.1.674-.17.876a29.1,29.1,0,0,1-2.312,2.089,17.633,17.633,0,0,1-1.916-1.72c-.225-.254-.024-.609.168-.815C447.024,429.232,447.564,428.673,448.1,428.114Z" transform="translate(-341.795 -247.916)"/>
    <path id="Path_9" data-name="Path 9" d="M311.09,441.634a9.168,9.168,0,0,1,2.5-.854c.239,1.321,0,2.678.13,4.013a3.691,3.691,0,0,1,1.591-.726,2.6,2.6,0,0,1,2.571,2.023,4.276,4.276,0,0,1-.457,3.43,3.441,3.441,0,0,1-2.734,1.564,4.423,4.423,0,0,1-2.518-.861c-.025-2.037,0-4.074-.009-6.111a6.3,6.3,0,0,0-.157-2.017c-.253.031-.506.063-.759.1-.057-.187-.11-.372-.159-.559m3.2,3.961a.875.875,0,0,0-.6.869c.024,1.04-.071,2.089.052,3.122a1.345,1.345,0,0,0,1.893.339,3.216,3.216,0,0,0,.729-3.1A1.516,1.516,0,0,0,314.286,445.6Z" transform="translate(-227.881 -258.918)"/>
    <path id="Path_10" data-name="Path 10" d="M416.874,449.922l.463-.042a13.953,13.953,0,0,1,.118,2.02,6.151,6.151,0,0,1,1.37.1,3.523,3.523,0,0,1,.079.762c-.474.024-.95.027-1.426.013-.105,1.186-.025,2.378-.055,3.567.03.364-.057.829.248,1.1.543.234.77-.8,1.293-.4.155.294-.1.611-.25.856a1.634,1.634,0,0,1-2.221.528,1.709,1.709,0,0,1-.578-1.442c-.047-1.4.024-2.8-.038-4.192-.3-.016-.6-.031-.9-.06-.008-.116-.022-.349-.03-.465A4.181,4.181,0,0,0,416.874,449.922Z" transform="translate(-315.429 -266.589)"/>
    <path id="Path_11" data-name="Path 11" d="M267.348,461.885a3.63,3.63,0,0,1,2.738-.05,1.375,1.375,0,0,1,.9,1.128c.127,1.447,0,2.9.121,4.352a8.065,8.065,0,0,1,.737-.454c.407.006.32.532.13.748a1.935,1.935,0,0,1-1.682.941c-.389-.053-.561-.441-.743-.735-.572.3-1.106.8-1.8.757a1.668,1.668,0,0,1-1.693-1.442,1.766,1.766,0,0,1,.518-1.622,8.535,8.535,0,0,1,2.9-1.538,1.742,1.742,0,0,0-.174-1.2.9.9,0,0,0-1.346-.1c-.165.371-.063.8-.212,1.183a.781.781,0,0,1-1.368-.049,1.6,1.6,0,0,1,.972-1.916m.411,4.01a.977.977,0,0,0,.328,1.423c.525.19,1-.207,1.4-.488.017-.65.024-1.3,0-1.949A2.949,2.949,0,0,0,267.76,465.895Z" transform="translate(-189.894 -276.461)"/>
    <path id="Path_12" data-name="Path 12" d="M368.593,462.735a2.792,2.792,0,0,1,3-1.081c.685.1,1.467.512,1.533,1.283.113,1.454.013,2.918.11,4.376.317-.135.592-.532.964-.4.184.3-.02.655-.232.886a1.816,1.816,0,0,1-1.553.749c-.382-.064-.55-.443-.733-.733a2.944,2.944,0,0,1-2.1.73,1.794,1.794,0,0,1-.873-3.031,8.588,8.588,0,0,1,2.906-1.542,1.81,1.81,0,0,0-.115-1.117.94.94,0,0,0-1.107-.4c-.752.325-.052,1.6-.994,1.754-.859.22-1.186-.88-.8-1.479m1.357,3.072a.972.972,0,0,0,.4,1.547,1.539,1.539,0,0,0,1.252-.545,11.281,11.281,0,0,0,.019-1.927A3.416,3.416,0,0,0,369.95,465.807Z" transform="translate(-275.999 -276.463)"/>
    <path id="Path_13" data-name="Path 13" d="M449.84,462.435a12.7,12.7,0,0,1,2.372-.875c.325.083.247.443.27.7q0,2.12-.006,4.239a3.953,3.953,0,0,0,.1,1.044c.229.245.6.279.9.419a3.249,3.249,0,0,1-.179.408,32.4,32.4,0,0,1-3.245-.008l-.044-.44c.3-.119.608-.22.9-.357,0-1.523.064-3.055-.039-4.574-.247-.138-.55-.042-.818-.094C449.977,462.743,449.9,462.59,449.84,462.435Z" transform="translate(-344.839 -276.434)"/>
  </g>
</svg>
