<svg xmlns="http://www.w3.org/2000/svg" width="22" height="21.54" viewBox="0 0 22 21.54">
  <g id="kuwait_3_" data-name="kuwait (3)" transform="translate(0 0)">
    <ellipse id="Ellipse_67" data-name="Ellipse 67" cx="11" cy="10.5" rx="11" ry="10.5" transform="translate(0 0.401)" fill="#fff"/>
    <path id="Path_11451" data-name="Path 11451" d="M320.856,157.875H314.22a29.777,29.777,0,0,1,.006,7.139h6.644a10.78,10.78,0,0,0-.014-7.139Z" transform="translate(-299.931 -150.696)" fill="#e4e4e4"/>
    <path id="Path_11452" data-name="Path 11452" d="M260.666,8.107H267.3l0-.009A10.776,10.776,0,0,0,258.115.972C259.763,1.876,260.245,4.739,260.666,8.107Z" transform="translate(-246.378 -0.928)" fill="#258f44"/>
    <path id="Path_11453" data-name="Path 11453" d="M258.115,322.048a10.777,10.777,0,0,0,9.191-7.146l.01-.031h-6.644C260.254,318.257,259.77,321.141,258.115,322.048Z" transform="translate(-246.378 -300.553)" fill="#d32027"/>
    <path id="Path_11454" data-name="Path 11454" d="M195.691,157.875h-6.228v7.139H195.7A29.769,29.769,0,0,0,195.691,157.875Z" transform="translate(-180.847 -150.696)" fill="#efefef"/>
    <path id="Path_11455" data-name="Path 11455" d="M86.553,7.179H92.78C92.359,3.811,91.323.948,89.674.044,89.355.016,89.033,0,88.707,0A10.72,10.72,0,0,0,81.65,2.638l4.9,4.494v.047Z" transform="translate(-77.937 0)" fill="#359846"/>
    <path id="Path_11456" data-name="Path 11456" d="M85.653,314.879l-4.945,4.533a10.72,10.72,0,0,0,7.1,2.676c.326,0,.649-.016.967-.045,1.655-.907,2.693-3.791,3.111-7.177H85.653Z" transform="translate(-77.038 -300.548)" fill="#db2727"/>
    <path id="Path_11457" data-name="Path 11457" d="M3.713,58.016A10.79,10.79,0,0,0,.619,62.548l0,.009A10.779,10.779,0,0,0,.6,69.7l.01.031A10.788,10.788,0,0,0,3.67,74.242l4.945-4.533v-7.2Z" transform="translate(0 -55.378)" fill="#151515"/>
  </g>
</svg>
