<svg xmlns="http://www.w3.org/2000/svg" width="14.246" height="14.246" viewBox="0 0 14.246 14.246">
  <g id="Group_57370" data-name="Group 57370" transform="translate(5041 5458)">
    <path id="Path_152635" data-name="Path 152635" d="M11.984,15.021a.375.375,0,0,1,.174-.1l1.309-.327,1.014-2.706-.292-1.168-1.281-.32a.375.375,0,0,1-.276-.29l-.25-1.25A7,7,0,0,0,10.1,15.305a.356.356,0,0,1,.108.044l.869.579Z" transform="translate(-5051 -5465.039)"/>
    <path id="Path_152636" data-name="Path 152636" d="M17.7,18.245a7.127,7.127,0,0,0,7.025-6h-.277a.375.375,0,0,1-.337-.207l-.694-1.387-.342-.171-.566.849a.4.4,0,0,1-.047.057l-1.125,1.125a.375.375,0,0,1-.4.083l-1.874-.75a.375.375,0,0,1-.228-.275L18.455,9.7a.375.375,0,0,1,0-.147l.328-1.643-1.309-.984a.375.375,0,0,1-.131-.418l.375-1.125a.375.375,0,0,1,.237-.237l1-.334.4-.606a7.025,7.025,0,0,0-5.745,1.091l.279,1.4,1.27.317a.375.375,0,0,1,.273.273l.375,1.5a.375.375,0,0,1-.012.223l-1.125,3a.375.375,0,0,1-.26.232l-1.4.35-1.05,1.05a.375.375,0,0,1-.473.047l-.572-.382A7.134,7.134,0,0,0,17.7,18.245Zm.11-1.765.375-.375a.375.375,0,1,1,.53.53l-.375.375a.375.375,0,1,1-.53-.53ZM14.4,15.021l1.125-1.5a.382.382,0,0,1,.31-.15.375.375,0,0,1,.3.167l.75,1.125a.405.405,0,0,1,.044.09l.375,1.125a.375.375,0,0,1-.02.286l-.75,1.5a.375.375,0,0,1-.276.2.36.36,0,0,1-.058,0,.375.375,0,0,1-.265-.11l-.75-.75a.385.385,0,0,1-.07-.1l-.75-1.5a.375.375,0,0,1,.036-.393Z" transform="translate(-5051.576 -5462)"/>
    <path id="Path_152637" data-name="Path 152637" d="M30.407,6.513l-.23.691,1.283.962a.375.375,0,0,1,.142.375l-.36,1.8.321,1.6,1.456.583.924-.923.729-1.094a.375.375,0,0,1,.479-.127l.75.375a.375.375,0,0,1,.168.168l.646,1.292h.124c.007-.125.019-.248.019-.375a7.128,7.128,0,0,0-4.71-6.693l-.6.9a.375.375,0,0,1-.193.147Z" transform="translate(-5063.613 -5462.717)"/>
    <path id="Path_152638" data-name="Path 152638" d="M23.129,34.2l.448-.9-.31-.93-.428-.642-.668.89.619,1.238Z" transform="translate(-5058.608 -5479.334)"/>
  </g>
</svg>
