<svg xmlns="http://www.w3.org/2000/svg" width="333.217" height="217.114" viewBox="0 0 333.217 217.114">
  <g id="Group_57512" data-name="Group 57512" transform="translate(17036.216 12340.004)">
    <g id="translation-language" transform="translate(-16925.518 -12273.113)">
      <path id="Path_153433" data-name="Path 153433" d="M756.245,522.968c-26.77,0-44.407-10.221-55.015-19.718a64.8,64.8,0,0,1-17.511,2.416H619.45a64.721,64.721,0,0,1,0-129.442h64.27A64.713,64.713,0,0,1,728.035,488.1c5.275,17.038,18.772,27.146,42.409,31.781l6.8,1.334-6.881.853A114.71,114.71,0,0,1,756.245,522.968ZM701.8,500.778l.46.419c11.134,10.142,30.547,21.319,61.041,19.321-20.456-5.438-32.782-16.1-37.593-32.443l-.195-.661.507-.467a62.5,62.5,0,0,0-42.3-108.507H619.45a62.505,62.505,0,0,0,0,125.011h64.27a62.613,62.613,0,0,0,17.488-2.5Z" transform="translate(-554.729 -376.224)"/>
      <path id="Path_153435" data-name="Path 153435" d="M621.158,400.767h64.269a63.613,63.613,0,0,1,63.614,63.614h0A63.438,63.438,0,0,1,728.482,511.2c4.176,14.188,14.761,23.23,43.456,28.857-31.231,3.871-53.837-1.054-68.713-14.6a63.6,63.6,0,0,1-17.8,2.542H621.158a63.614,63.614,0,0,1-63.614-63.613h0A63.613,63.613,0,0,1,621.158,400.767Z" transform="translate(-556.437 -391.111)" fill="#fff"/>
      <path id="Path_153436" data-name="Path 153436" d="M764.767,519.95a63.6,63.6,0,0,0-16.8-104.756,63.59,63.59,0,0,1,2.976,96.208c-12.155,10.5-30.295,16.8-43.055,16.8H643.621a63.353,63.353,0,0,1-26.257-5.675,63.336,63.336,0,0,0,40.079,14.224h64.27a63.587,63.587,0,0,0,17.8-2.542c14.877,13.549,37.482,18.475,68.713,14.6C779.529,543.18,768.942,534.137,764.767,519.95Z" transform="translate(-592.722 -399.862)" fill="#e0e0e0"/>
    </g>
    <text id="A" transform="translate(-16847.156 -12183.584)" fill="#b9873e" font-size="66" font-family="RobotoSlab-Bold, Roboto Slab" font-weight="700"><tspan x="0" y="0">A</tspan></text>
    <path id="Path_153437" data-name="Path 153437" d="M424.14,283.855H359.871a63.613,63.613,0,0,0-63.613,63.613h0a63.439,63.439,0,0,0,20.558,46.818c-4.175,14.187-14.761,23.23-43.456,28.857,31.231,3.871,53.837-1.054,68.713-14.6a63.6,63.6,0,0,0,17.8,2.542H424.14a63.614,63.614,0,0,0,63.614-63.613h0A63.614,63.614,0,0,0,424.14,283.855Z" transform="translate(-17309.576 -12593.31)" fill="#b9873e"/>
    <path id="Path_153438" data-name="Path 153438" d="M445.034,292.824a63.608,63.608,0,0,1-34.9,116.787H345.86a63.585,63.585,0,0,1-17.8-2.542c-8.01,7.295-18.283,12.066-30.913,14.334-6.087,2.849-13.826,5.227-23.789,7.18,31.231,3.872,53.837-1.054,68.713-14.6a63.6,63.6,0,0,0,17.8,2.542h64.27a63.613,63.613,0,0,0,20.894-123.7Z" transform="translate(-17309.576 -12598.747)" fill="#e0e0e0"/>
    <text id="ع" transform="translate(-16949.207 -12255.004)" fill="#fff" font-size="65" font-family="Cairo-Bold, Cairo" font-weight="700"><tspan x="0" y="0">ع</tspan></text>
  </g>
</svg>
