<svg xmlns="http://www.w3.org/2000/svg" width="212.443" height="175.706" viewBox="0 0 212.443 175.706">
  <g id="Group_57511" data-name="Group 57511" transform="translate(17070 12389)">
    <g id="translation-language" transform="translate(-17070 -12389)">
      <path id="Path_153432" data-name="Path 153432" d="M206.052,76.2C192.466,88.438,186.277,105.01,187.8,123.82c1.721,21.306-23.954,35.653-15.842,62.532,11.082,36.719,55.738,21.111,78.69,34.325,22.095,12.72,52.511,15.513,74.069,6.935,19.871-7.906,35.456-15.795,48.81-37.495,10.777-17.513,11.266-41.813,6.082-58.13-7.773-24.47-27.264-31.387-46.631-36.2-23.36-5.8-33.924-30.542-59.951-36.816C249.127,53.214,224.962,59.159,206.052,76.2Z" transform="translate(-170.365 -56.839)" fill="#f1f1f1"/>
      <path id="Path_153433" data-name="Path 153433" d="M661.071,453.662c-14.127,0-23.434-5.394-29.032-10.405a34.191,34.191,0,0,1-9.241,1.275H588.883a34.154,34.154,0,0,1,0-68.308H622.8a34.15,34.15,0,0,1,23.386,59.04c2.784,8.991,9.906,14.325,22.38,16.771l3.59.7-3.631.45A60.534,60.534,0,0,1,661.071,453.662Zm-28.729-11.71.243.221c5.875,5.352,16.12,11.25,32.212,10.2-10.8-2.87-17.3-8.494-19.838-17.12l-.1-.349.268-.247a32.98,32.98,0,0,0-22.325-57.26H588.883a32.985,32.985,0,0,0,0,65.969H622.8a33.042,33.042,0,0,0,9.229-1.318Z" transform="translate(-474.93 -309.916)"/>
      <path id="Path_153435" data-name="Path 153435" d="M591.114,400.767h33.915A33.569,33.569,0,0,1,658.6,434.336h0a33.477,33.477,0,0,1-10.849,24.706c2.2,7.487,7.79,12.259,22.932,15.228-16.481,2.043-28.41-.556-36.261-7.706a33.563,33.563,0,0,1-9.392,1.342H591.114a33.569,33.569,0,0,1-33.569-33.569h0A33.569,33.569,0,0,1,591.114,400.767Z" transform="translate(-477.161 -329.363)" fill="#fff"/>
      <path id="Path_153436" data-name="Path 153436" d="M695.15,470.475a33.562,33.562,0,0,0-8.864-55.281,33.557,33.557,0,0,1,1.57,50.77c-6.415,5.541-15.987,8.863-22.72,8.863H631.22a33.432,33.432,0,0,1-13.856-3,33.423,33.423,0,0,0,21.15,7.506H672.43A33.556,33.556,0,0,0,681.822,478c7.85,7.15,19.779,9.749,36.261,7.706C702.94,482.734,697.353,477.961,695.15,470.475Z" transform="translate(-524.562 -340.795)" fill="#e0e0e0"/>
    </g>
    <text id="A" transform="translate(-16948.85 -12273.858)" fill="#b9873e" font-size="36" font-family="RobotoSlab-Bold, Roboto Slab" font-weight="700"><tspan x="0" y="0">A</tspan></text>
    <path id="Path_153437" data-name="Path 153437" d="M352.928,283.855H319.013a33.569,33.569,0,0,0-33.569,33.569h0a33.477,33.477,0,0,0,10.849,24.707c-2.2,7.487-7.79,12.259-22.932,15.228,16.481,2.043,28.41-.556,36.261-7.706a33.563,33.563,0,0,0,9.392,1.342h33.916A33.569,33.569,0,0,0,386.5,317.425h0A33.57,33.57,0,0,0,352.928,283.855Z" transform="translate(-17321.979 -12625.725)"/>
    <path id="Path_153438" data-name="Path 153438" d="M363.954,292.824a33.567,33.567,0,0,1-18.42,61.63H311.619a33.555,33.555,0,0,1-9.392-1.342c-4.227,3.85-9.648,6.367-16.313,7.564a54.518,54.518,0,0,1-12.554,3.789c16.481,2.043,28.41-.556,36.261-7.706a33.564,33.564,0,0,0,9.392,1.341h33.916a33.569,33.569,0,0,0,11.026-65.276Z" transform="translate(-17321.979 -12632.83)" fill="#e0e0e0"/>
    <text id="ع" transform="translate(-17002.703 -12309.99)" fill="#fff" font-size="37" font-family="Cairo-Bold, Cairo" font-weight="700"><tspan x="0" y="0">ع</tspan></text>
  </g>
</svg>
