<svg id="Component_115_1" data-name="Component 115 – 1" xmlns="http://www.w3.org/2000/svg" width="320.441" height="221.656" viewBox="0 0 320.441 221.656">
  <path id="Path_156327" data-name="Path 156327" d="M339.406,449.24a2.111,2.111,0,0,1-.563,1.377,1.84,1.84,0,0,1-1.377.563H20.94A1.95,1.95,0,0,1,19,449.24a2.111,2.111,0,0,1,.563-1.377,1.84,1.84,0,0,1,1.377-.563H337.466A1.95,1.95,0,0,1,339.406,449.24Z" transform="translate(-18.965 -229.524)" fill="#4a5b6b"/>
  <path id="Path_156328" data-name="Path 156328" d="M315.874,103.743v212.77a4.46,4.46,0,0,1-4.443,4.443h-175.6a6.637,6.637,0,0,1-6.633-6.633V103.743a4.46,4.46,0,0,1,4.443-4.443h177.85A4.448,4.448,0,0,1,315.874,103.743Z" transform="translate(-60.203 -99.3)" fill="#e6d6bf"/>
  <path id="Path_156329" data-name="Path 156329" d="M138.64,319.106a1.95,1.95,0,0,1-1.94-1.94V106.9H313.987V319.106Z" transform="translate(-63.008 -102.144)" fill="#fffefd"/>
  <path id="Path_156330" data-name="Path 156330" d="M317.62,202.157l1.189-3.254H206.354v-55.07l-3.254,1.189a25.316,25.316,0,0,0,4.068-7.322,25.317,25.317,0,0,0,4.068,7.322l-3.254-1.189V197.15h110.7l-1.189-3.254a25.317,25.317,0,0,0,7.322,4.068A32.829,32.829,0,0,0,317.62,202.157Z" transform="translate(-87.855 -113.67)" fill="#606060"/>
  <path id="Path_156331" data-name="Path 156331" d="M317.122,162.668l-24.469,28.724-28.536-25.72-32.228,18.711-1.189-2.128,33.73-19.587,28.036,25.282L316,160.228l2.315-2.128Z" transform="translate(-98.184 -121.303)" fill="#e0e0e0"/>
  <path id="Path_156332" data-name="Path 156332" d="M233.461,195.781a4.381,4.381,0,1,1-4.381-4.381A4.393,4.393,0,0,1,233.461,195.781Z" transform="translate(-95.939 -133.764)" fill="#e6d6bf"/>
  <path id="Path_156333" data-name="Path 156333" d="M286.061,165.181a4.381,4.381,0,1,1-4.381-4.381A4.393,4.393,0,0,1,286.061,165.181Z" transform="translate(-115.623 -122.314)" fill="#b9873e"/>
  <path id="Path_156334" data-name="Path 156334" d="M331.361,205.08a4.381,4.381,0,1,1-4.381-4.381A4.393,4.393,0,0,1,331.361,205.08Z" transform="translate(-132.574 -137.244)" fill="#e6d6bf"/>
  <path id="Path_156335" data-name="Path 156335" d="M370.761,159.58a4.381,4.381,0,1,1-4.381-4.381A4.315,4.315,0,0,1,370.761,159.58Z" transform="translate(-147.318 -120.217)" fill="#b9873e"/>
  <g id="Group_58308" data-name="Group 58308" transform="translate(86.707 106.009)">
    <rect id="Rectangle_19839" data-name="Rectangle 19839" width="12.766" height="96.81" transform="translate(0 0)" fill="#b9873e"/>
    <rect id="Rectangle_19840" data-name="Rectangle 19840" width="12.829" height="86.547" transform="translate(17.397 10.263)" fill="#b9873e" opacity="0.706"/>
    <rect id="Rectangle_19841" data-name="Rectangle 19841" width="12.829" height="59.575" transform="translate(34.794 37.297)" fill="#b9873e" opacity="0.45"/>
    <rect id="Rectangle_19842" data-name="Rectangle 19842" width="12.766" height="33.668" transform="translate(52.191 63.142)" fill="#b9873e" opacity="0.209"/>
  </g>
  <g id="Group_58325" data-name="Group 58325" transform="translate(0 29.166)">
    <path id="Path_156358" data-name="Path 156358" d="M47.641,444.664a3.694,3.694,0,0,1-.125.876.548.548,0,0,1-.563.438H29.368a.4.4,0,0,1-.375-.5l.688-2.879,2.065-8.761a.622.622,0,0,1,.626-.438l6.008.626a.538.538,0,0,1,.5.5c.063,1.126.626,4.005,5.006,5.257C47.266,440.847,47.7,443.225,47.641,444.664Z" transform="translate(-22.699 -253.489)"/>
    <path id="Path_156359" data-name="Path 156359" d="M42.514,438.982a5.051,5.051,0,0,1-2.691-4.255.538.538,0,0,0-.5-.5l-6.008-.626a.6.6,0,0,0-.626.438L31.5,439.044H42.514Z" transform="translate(-23.642 -253.564)" fill="#606060"/>
    <path id="Path_156360" data-name="Path 156360" d="M102.679,444.664a3.694,3.694,0,0,1-.125.876.548.548,0,0,1-.563.438H84.468a.4.4,0,0,1-.375-.5l.688-2.879,2.065-8.761a.622.622,0,0,1,.626-.438l6.008.626a.538.538,0,0,1,.5.5c.063,1.126.626,4.005,5.006,5.257C102.366,440.847,102.8,443.225,102.679,444.664Z" transform="translate(-43.318 -253.489)"/>
    <path id="Path_156361" data-name="Path 156361" d="M97.614,438.982a5.051,5.051,0,0,1-2.691-4.255.538.538,0,0,0-.5-.5l-6.008-.626a.6.6,0,0,0-.626.438L86.6,439.044H97.614Z" transform="translate(-44.261 -253.564)" fill="#606060"/>
    <path id="Path_156362" data-name="Path 156362" d="M71.383,325.3c-.939,9.888-1.064,13.642-2.5,19.838-.751,3.254-1.5,25.783,2.628,32.041h25.97c.939-16.145-6.07-89.739-9.262-101.378L65,276.3C66.94,291.132,72.071,317.916,71.383,325.3Z" transform="translate(-36.178 -194.514)"/>
    <path id="Path_156363" data-name="Path 156363" d="M37.439,271.7c-.313,14.518-1.377,37.3-3.129,44.181-2.378,9.137-6.7,16.709-8.886,22.341-2.065,5.444-6.946,22.967-6.446,36.484,0,.5.25,1,.688,1H44.511a.735.735,0,0,0,.688-.688c1.94-11.577,15.082-90.49,13.7-102.38Z" transform="translate(-18.943 -192.98)" fill="#171717"/>
    <path id="Path_156364" data-name="Path 156364" d="M84.2,192.833s1,3.129,2.315,6.884c2,5.57,4.693,12.391,5.757,12.015.751-.25,9.262,2.816,15.9-.688a46.585,46.585,0,0,0,8.135-5.695c6.7-5.695,12.954-11.014,12.954-11.014l-2.879-8.135-21.652,14.018C99.97,196.838,84.2,192.833,84.2,192.833Z" transform="translate(-43.362 -160.985)" fill="#b9873e"/>
    <path id="Path_156365" data-name="Path 156365" d="M87.9,205.807c2,5.57,4.693,12.391,5.757,12.015.751-.25,9.262,2.816,15.9-.688a46.585,46.585,0,0,0,8.135-5.695c-3.817-.438-7.7,2.065-11.515,1.5-2.566-.375-4.693-2.065-6.7-3.755-2.315-1.94-4.693-3.817-7.009-5.757-.876-.751-1.752-1.439-2.753-.5A10.649,10.649,0,0,0,87.9,205.807Z" transform="translate(-44.747 -167.075)" fill="#c4954f"/>
    <path id="Path_156366" data-name="Path 156366" d="M40.6,207.667a15.249,15.249,0,0,0,.063,1.69,64.891,64.891,0,0,0,1.314,8.323c1,4.693,2.253,9.637,2.753,13.893a70.865,70.865,0,0,1-.188,15.833c0,.5,1.252.814,3.379,1.064,1.69.188,3.942.313,6.508.375,10.263.25,24.907-.688,24.907-2.315a33.722,33.722,0,0,1-1.752-11.139c.063-3.442.25-7.447.25-11.577V220.5a9.243,9.243,0,0,0-.063-1.314c-.063-1.752-.125-3.442-.313-5.132-.125-1.126-.25-2.315-.375-3.379-.063-.25-.063-.5-.125-.751-.876-5.57-2.691-10.263-6.2-12.641-4.631-3.129-20.276-3.755-26.283.313h-.063c-.063.063-.188.125-.25.188-1.877,1.377-2.879,3.692-3.317,6.508a16.867,16.867,0,0,0-.25,1.752C40.6,206.6,40.6,207.1,40.6,207.667Z" transform="translate(-27.047 -164.179)" fill="#b9873e"/>
    <path id="Path_156367" data-name="Path 156367" d="M40.6,210.508a15.249,15.249,0,0,0,.063,1.69,64.891,64.891,0,0,0,1.314,8.323c1,4.693,2.253,9.637,2.753,13.893a70.865,70.865,0,0,1-.188,15.833c0,.5,1.252.814,3.379,1.064-.25-3.192-.563-6.446-.814-9.637-.25-2.816-.438-5.82.876-8.323,1.627-3.129,5.319-4.693,8.824-5.006,3.5-.375,7.071.25,10.576.313,2.5,0,5.194-.313,7.2-1.877a10.527,10.527,0,0,0,2.566-3.379,9.42,9.42,0,0,0,.688-1.377,26.8,26.8,0,0,0,2.5-9.825c-1.064.188-2.19.375-3.317.563a21.531,21.531,0,0,1-4.005.25,12.036,12.036,0,0,1-6.946-2.19,39.094,39.094,0,0,1-3.88-4.005,15.753,15.753,0,0,0-13.7-4.255c-3.817-.063-6.446,1.377-7.572,4.631a16.869,16.869,0,0,0-.25,1.752A12.567,12.567,0,0,0,40.6,210.508Z" transform="translate(-27.047 -167.02)" fill="#c4954f"/>
    <path id="Path_156368" data-name="Path 156368" d="M68.938,179.1l.125-4.506s5.945,3.317,7.572-.939c1.439-3.567,3.63-14.831-1.564-19.149-8.323-6.884-19.712,2.816-17.71,11.577.688,2.879,4.568,6.321,4.568,6.321l-1.377,6.508C60.365,182.478,70.065,182.853,68.938,179.1Z" transform="translate(-33.232 -148.251)" fill="#ffd1c4"/>
    <g id="Group_58319" data-name="Group 58319" transform="translate(31.2 24.151)">
      <path id="Path_156369" data-name="Path 156369" d="M73.368,190.07,68.8,184.5a35.119,35.119,0,0,0,4.631,2.19Z" transform="translate(-68.8 -184.5)" fill="#f1c0ba"/>
    </g>
    <g id="Group_58320" data-name="Group 58320" transform="translate(18.617 0)">
      <path id="Path_156370" data-name="Path 156370" d="M58.4,173.25s3.066-3.817,1.439-7.76,1.5-4.819,2.441-3.63.313-.626,1.94-1.126c5.006-1.627,24.406-12.766,4.819-14.644-10.826-1.064-17.147,2.628-16.333,7.822C45.756,156.1,47.946,161.36,58.4,173.25Z" transform="translate(-48.692 -145.907)"/>
    </g>
    <g id="Group_58322" data-name="Group 58322" transform="translate(69.249 19.082)">
      <circle id="Ellipse_510" data-name="Ellipse 510" cx="14.018" cy="14.018" r="14.018" transform="translate(0 2.253)" fill="#b9873e"/>
      <path id="Path_156372" data-name="Path 156372" d="M152,176.4v16.271h16.271A16.238,16.238,0,0,0,152,176.4Z" transform="translate(-137.982 -176.4)" fill="#e6d6bf"/>
    </g>
    <g id="Group_58323" data-name="Group 58323" transform="translate(63.992 35.686)">
      <path id="Path_156373" data-name="Path 156373" d="M121.2,208.482s6.7-9.512,10.764-3.63c4.068,5.945-7.948,7.948-7.948,7.948Z" transform="translate(-121.2 -202.932)" fill="#ffd1c4"/>
    </g>
    <g id="Group_58324" data-name="Group 58324" transform="translate(13.553 33.3)">
      <path id="Path_156374" data-name="Path 156374" d="M40.6,209.308a1.687,1.687,0,0,0,.5.438c3.755,3.567,18.211,12.391,24.03,15.332a4.027,4.027,0,0,0,3.942-.125l26.1-12.391-4.13-6.258-22.654,8.135s-15.269-13.58-21.84-15.082a4.737,4.737,0,0,0-2.065-.188h-.063c-.063.063-.188.125-.25.188-2.19,1.69-3.254,4.631-3.567,8.323Z" transform="translate(-40.6 -199.119)" fill="#b9873e"/>
    </g>
  </g>
  <g id="Group_58328" data-name="Group 58328" transform="translate(166.059 132.611)">
    <path id="Path_153557" data-name="Path 153557" d="M250.355,74.354v60.578c0,2.679-2.551,4.846-5.694,4.846h-63.67c-3.148,0-5.7-2.167-5.7-4.846V74.354c0-2.679,2.551-4.846,5.7-4.846h63.67C247.8,69.507,250.355,71.674,250.355,74.354Z" transform="translate(-175.292 -69.507)" fill="#fff" stroke="#e0e0e0" stroke-width="1"/>
    <path id="Path_153559" data-name="Path 153559" d="M249.22,164.6a3.739,3.739,0,0,1-3.744,3.745H199.2a3.744,3.744,0,0,1,0-7.489h46.272A3.71,3.71,0,0,1,249.22,164.6Zm-53.76-12.48a3.738,3.738,0,0,1,3.744-3.745h46.272a3.744,3.744,0,1,1,0,7.489H199.2A3.766,3.766,0,0,1,195.46,152.115Z" transform="translate(-184.807 -106.715)" fill="#f1f1f1"/>
    <g id="Group_57563" data-name="Group 57563" transform="translate(25.057 10.041)">
      <ellipse id="Ellipse_423" data-name="Ellipse 423" cx="12.476" cy="12.476" rx="12.476" ry="12.476" transform="translate(0)" fill="#aaa"/>
      <path id="Path_153561" data-name="Path 153561" d="M234.858,98.9a4.467,4.467,0,1,1,4.47,4.47A4.469,4.469,0,0,1,234.858,98.9Zm12.171,9.048a8.313,8.313,0,0,1-15.4,0,2.155,2.155,0,0,1,2-2.96h11.4A2.159,2.159,0,0,1,247.029,107.953Z" transform="translate(-226.852 -91.312)" fill="#e0e0e0"/>
    </g>
  </g>
  <g id="Group_58327" data-name="Group 58327" transform="translate(233.506 43.743)">
    <path id="Path_153524" data-name="Path 153524" d="M548.311,1832.07c-3.182.522-6.99,2.764-7.146,3.86,3.286.991,15.174.682,16.082-.313a3.139,3.139,0,0,0,.438-2.66A57.683,57.683,0,0,0,548.311,1832.07Zm17.977.96c-3.157.657-6.866,3.059-6.976,4.16,3.324.851,14.629.058,15.495-.974a3.138,3.138,0,0,0,.326-2.676A53.253,53.253,0,0,0,566.288,1833.031Z" transform="translate(-516.291 -1661.577)" fill="#fff"/>
    <path id="Path_153525" data-name="Path 153525" d="M658.453,1318.491c-.313,12.414-1.982,24.937-2.608,34.634s-1.461,15.023-1.147,15.127c6.469,2.4,16.343,1.357,16.343,1.357.66-9.388.974-25.246.974-25.871-.73-11.893-.938-18.673-3.651-22.742S658.453,1318.491,658.453,1318.491Z" transform="translate(-624.061 -1197.76)" fill="#606060"/>
    <path id="Path_153526" data-name="Path 153526" d="M668.889,1333.778c-.5-1.132-1.011-1.907-1.6-2.124-1.721-.636-5.921,4.688-5.921,4.688a13.4,13.4,0,0,0,3.26.675c-.051,11.137-.036,16.993-.019,19.294,2.025-.059,3.375-.2,3.375-.2C668.466,1349.311,668.762,1339.121,668.889,1333.778ZM655.38,1305.7c2.21,1.433,7.843,1.954,7.843,1.954.522-2.191,4.7-4.068,0-4.383A11.59,11.59,0,0,0,655.38,1305.7Z" transform="translate(-621.007 -1184.262)" fill="#d8d8d8" style="mix-blend-mode: multiply;isolation: isolate"/>
    <path id="Path_153527" data-name="Path 153527" d="M465.12,1597.685v22.846c5.425.626,21.178-.07,22.112-.609-.417-9.092-1.877-21.195-1.981-23.385C482.646,1593.825,465.12,1594.764,465.12,1597.685Z" transform="translate(-420.817 -1447.534)" fill="#a8a8a8"/>
    <path id="Path_153528" data-name="Path 153528" d="M500.979,1600.014c.172.438.379.908.584,1.356-.228-2.26-.4-3.94-.429-4.632-.942-.974-3.827-1.482-7.13-1.588a52.525,52.525,0,0,0-9.822,1.9,6.369,6.369,0,0,0-3.182,2.965C491.013,1600.7,500.872,1599.693,500.979,1600.014Z" transform="translate(-436.695 -1447.735)" fill="#d8d8d8" style="mix-blend-mode: multiply;isolation: isolate"/>
    <path id="Path_153529" data-name="Path 153529" d="M697.917,106.923c-1.152-1.043-3.707-.835-4.307-.208-1.434,1.982-2.338,7.89-2.33,13.619s.908,11.087,2.143,12.042-1.507,4.279,1.57,3.654c5.008-8.4,7.511-19.613,6.207-23.629S697.917,106.923,697.917,106.923Z" transform="translate(-657.157 -103.819)" fill="#a8a8a8"/>
    <path id="Path_153530" data-name="Path 153530" d="M784.868,517.434c-2.749-2.435-3.6-3.034-4.286-4.091a4.217,4.217,0,0,0-3.88-1.995c-4.286-.143-7.438-1.106-7.884-.779.218,1.436,2.435,3.477,6.6,4.358,2.715.575,2.435.292,6.787,5.563A23.775,23.775,0,0,1,784.868,517.434Zm15.976,45.636c-.909,1.68-2.412,3.858-2.224,5.358.2,1.61,5.293,2.63,6.608,1.461.909-1.1.063-6.252.063-6.252A18.775,18.775,0,0,0,800.844,563.07Z" transform="translate(-768.818 -468.742)" fill="#e6d6bf"/>
    <path id="Path_153531" data-name="Path 153531" d="M771.23,700.26a336.689,336.689,0,0,1-4.038,33.851c1.155,1.282,5.545,1.5,5.545,1.5C773.987,724.3,771.23,700.26,771.23,700.26Z" transform="translate(-736.072 -640.017)" fill="#c6c6c6"/>
    <path id="Path_153532" data-name="Path 153532" d="M767.567,706.931c.195-2.164.373-4.41.533-6.721,0,0,2.76,24.04,1.507,35.348a21.722,21.722,0,0,1-2.394-.278C768.187,720.686,767.882,717.7,767.567,706.931Z" transform="translate(-732.944 -639.972)" fill="#dedede" style="mix-blend-mode: multiply;isolation: isolate"/>
    <path id="Path_153533" data-name="Path 153533" d="M527.152,555.978c.347,13.046.773,15.081-.469,32.763s-1.241,22.7-.928,23.319c2.66,1.956,26.915.779,26.915.779-.079-7.355-6.937-77.719-6.937-77.719s-16.4,10.119-17.8,14.344S527.088,553.57,527.152,555.978Z" transform="translate(-492.144 -490.964)" fill="#606060"/>
    <path id="Path_153534" data-name="Path 153534" d="M739.07,674.323c-1.682,1.407-3.239,3.986-3.243,5.6a42.456,42.456,0,0,1-.428,4.491h0c1.948-3.312,2.338-2.611,3.162-4.685a7.758,7.758,0,0,1,1.821-3.208C739.07,674.323,740.753,672.914,739.07,674.323Z" transform="translate(-700.296 -616.097)" fill="#dedede" style="mix-blend-mode: multiply;isolation: isolate"/>
    <path id="Path_153535" data-name="Path 153535" d="M437.561,538.735c2.306,22.966,2.212,44.009,1.873,65.638s-1.811,46.99-.82,47.922c5.912.745,23.429-.5,30.891-.648.845-9.51-.562-20.239-1.584-49.141s-2.205-34.125-5.766-46.056a188.023,188.023,0,0,1-5.173-22.375c-1.9-9.138-6-15.492-11.747-9.6S437.02,533.348,437.561,538.735Z" transform="translate(-400.656 -479.296)" fill="#242424"/>
    <path id="Path_153536" data-name="Path 153536" d="M656.693,168.5c-2.451,5.321-1.231,16.274.835,18.1,1.982.991,8.138-.053,9.6-1.513s2.712-10.854.521-14.4S658.154,166.722,656.693,168.5Z" transform="translate(-620.945 -159.13)" fill="#e6d6bf"/>
    <path id="Path_153537" data-name="Path 153537" d="M681.914,131.839c-2.764-1.825-9.393-2.362-11.086-1.155-.1-2.338,1.851-5.521,3-6.565s5.163-.939,6.989,1.877A8.135,8.135,0,0,1,681.914,131.839Z" transform="translate(-635.682 -119.451)" fill="#fff"/>
    <path id="Path_153538" data-name="Path 153538" d="M508.034,86.3c5.32,5.719,8.036,11.767,8.714,14.845-6.1,9.337-8.864,8.526-8.864,8.526-1.774,3.835-3.765,8.426-3.864,12.285-4.591,7.2-3.442,16.377-2.607,20.343s.721,10.119,2.082,10.954c1.461-2.087.422-2.817,2.922-6.051s4.383-18.882,5.947-20.238a6.074,6.074,0,0,1,8.555,1.461c2.71,3.652,1.461,8.555,4.59,10.85s5.425,1.461,5.425,1.461c-1.669-3.02-1.252-6.05-1.252-10.432A34.57,34.57,0,0,0,524,109.674c4.59-4.277,8.789-10.757,8.58-15.243S530.958,85.89,523.79,83.2a25.327,25.327,0,0,0-15.27-.39c-2.465,1.017-2.435,1.9-2.435,1.9C506.762,84.5,508.034,86.3,508.034,86.3Z" transform="translate(-469.628 -81.818)" fill="#b9873e"/>
    <path id="Path_153539" data-name="Path 153539" d="M638.84,218.065c-.886-.157-1.461,3.5-2.712,6.051-.768,1.169-1.482,2.186-2.143,3.061C637.4,223.83,639.654,218.208,638.84,218.065Zm.912,9.65c1.33,0-2.858,4.8-5.972,8.294-3,3.366-7.563,7.46-6.937,7.825s6-6.521,10.9-6.1c.052.682-3.462,1.364-6.121,2.932s-4.838,4.266-5.775,4.214,1.447-2.782,3.107-4.452,3.655-3.942,5.268-5.747C636.858,231.731,638.423,227.714,639.752,227.714ZM623.4,244.928c1.517-3.912,4.991-7.615,7.271-9.623s4.991-4.408,4.578-4.773-3.117,1.779-4.968,4.363S625.27,238.825,623.4,244.928Z" transform="translate(-589.008 -204.789)" fill="#d8d8d8" style="mix-blend-mode: multiply;isolation: isolate"/>
    <path id="Path_153540" data-name="Path 153540" d="M577.1,362.53c-2.143-.259-3.074-1.129-5.737,0a7.776,7.776,0,0,1,4.383.249A1.439,1.439,0,0,0,577.1,362.53Zm-.782,7.86c3.729,3.117,1.865,12.956,3.729,15.9-1.864-1.122-1.8-6.749-1.76-8.822a9.653,9.653,0,0,0-1.154-5.4C576.3,370.916,576.317,370.39,576.317,370.39Zm-9.2,3.617c-.055,1.878-8.021,4.147-8.536,9.859-.516-3.248,2.614-6.1,4.1-6.964a20.5,20.5,0,0,0,3.208-1.8C566.56,374.451,566.855,373.355,567.113,374.007Z" transform="translate(-522.729 -334.677)" fill="#d8d8d8" style="mix-blend-mode: multiply;isolation: isolate"/>
    <path id="Path_153541" data-name="Path 153541" d="M661.29,521.913c-4.543,6.889-16.066,18.778-20.031,19.925-1.982.208-11.579-4.486-20.864-16.691-.417-.939,3.13-3.755,3.651-3.755,1.982,1.565,13.906,9.726,15.6,11.008,1.45-.439,7.674-8.968,9.767-11.367a14.584,14.584,0,0,1,3.449-3.13C658.231,516.91,661.29,521.913,661.29,521.913Z" transform="translate(-609.997 -475.306)" fill="#c6c6c6"/>
  </g>
</svg>
