<svg xmlns="http://www.w3.org/2000/svg" width="229.446" height="213.675" viewBox="0 0 229.446 213.675">
  <g id="Group_57605" data-name="Group 57605" transform="translate(-98.875 -155.234)">
    <path id="Path_153548" data-name="Path 153548" d="M271.978,197.385c-11.369,21.2-32.008,38.843-56.007,40.52-25.823,1.807-51.442-14.608-76.564-8.366-15.43,3.833-29.086,15.983-44.915,14.5C81.455,242.813,70.3,230.915,69.915,217.82L66.7,199.493c-4.256-25.5,5.575-52.182,22.82-71.453s41.22-31.633,66.2-38.339c24.724-6.641,51.555-7.951,75.571.887s44.662,28.988,49.855,54.054C284.837,162.473,280.589,181.337,271.978,197.385Z" transform="translate(42.634 86.515)" fill="#f8f8f8"/>
    <path id="Path_153549" data-name="Path 153549" d="M77.436,173.145a19.485,19.485,0,0,1,2.113-10.232c7.937-16.687,29.2-19.107,44.06-25.918,18.331-8.5,23.142-23.606,31.327-42.108A103.038,103.038,0,0,1,163.3,79.076c9.2-13.765,20.314-16.128,21.088-16.636l3.295-.929,3.351-.66,2.255-.275c34.6-4.062,93.046,30.807,95.827,77.935q.042.975.052,1.625c.013.866-.016,1.3-.087,1.3s-.182-.418-.332-1.266q-.113-.636-.254-1.591C277.294,77.538,212.963,64.53,212.9,64.5a59.069,59.069,0,0,0-21.457-1.059c-.863.467-15.1.837-25.975,17.105a100.565,100.565,0,0,0-8.138,15.407c-8.606,19.445-13.5,34.615-32.72,43.246-14.776,6.547-46.266,10.714-46.751,33.944C77.8,174.854,77.652,174.871,77.436,173.145Zm197.659,23.909c.121.058-.311,1.292-1.363,3.682s-2.717,5.945-5.276,10.534c-1.283,2.291-2.789,4.843-4.632,7.58a88.181,88.181,0,0,1-6.6,8.685c-15.62,17.853-34.551,22.79-49.258,19.22-21.26-5.295-37.912-29.662-60-23.053-8.734,2.642-28.679,17.963-49.383,1.4-12.077-9.7-13.178-24.86-11.6-20.191a36.264,36.264,0,0,0,12.755,18.705c19.979,14.982,37.749.54,47.476-2.421,23.571-7.077,40.715,17.867,61.377,23.018,13.5,3.273,31.548-1.222,47.014-18.117a92.5,92.5,0,0,0,6.678-8.316c1.893-2.63,3.469-5.09,4.835-7.3,2.725-4.424,4.6-7.851,5.882-10.113S274.958,196.988,275.095,197.054Z" transform="translate(38.544 94.98)" fill="#f6f6f6"/>
    <path id="Path_153550" data-name="Path 153550" d="M280.523,220.31c-.13.046-.3-.077-.463-.39l-.276-.843c-.054-.349.011-.548.146-.59s.3.086.468.394l.273.832C280.72,220.06,280.659,220.262,280.523,220.31Zm1.415,3.563c-.126.056-.306-.051-.494-.351l-.345-.818c-.083-.343-.034-.547.1-.6s.31.061.5.355l.34.806C282.114,223.606,282.07,223.813,281.938,223.872Zm1.727,3.422c-.12.068-.309-.022-.524-.3l-.419-.783c-.114-.334-.084-.542.042-.605s.315.033.53.308l.412.771C283.816,227.013,283.791,227.223,283.666,227.294Zm2.059,3.233c-.112.08-.309.01-.552-.248l-.5-.737c-.148-.321-.139-.53-.02-.606s.317,0,.559.252l.488.724C285.845,230.231,285.842,230.443,285.725,230.527Zm2.407,2.981c-.1.093-.305.046-.576-.182l-.579-.675c-.184-.3-.2-.511-.089-.6s.315-.035.584.186l.567.661C288.217,233.2,288.238,233.411,288.132,233.508Zm2.759,2.656c-.089.105-.3.085-.595-.107l-.662-.6c-.221-.276-.263-.481-.165-.583s.309-.074.6.111l.647.583C290.934,235.847,290.983,236.054,290.89,236.164ZM294,238.409c-.072.117-.28.128-.6-.02l-.742-.495c-.259-.242-.33-.439-.247-.553s.3-.117.614.022l.724.483C293.993,238.088,294.071,238.286,294,238.409Zm3.4,1.758c-.053.127-.258.168-.6.071l-.808-.379c-.293-.2-.392-.384-.327-.509s.275-.16.611-.069l.787.37C297.35,239.85,297.457,240.033,297.4,240.167Zm3.633,1.217c-.033.134-.228.206-.581.163l-.857-.25c-.32-.153-.446-.319-.4-.453s.247-.2.593-.163l.834.243C300.934,241.078,301.068,241.243,301.034,241.383Zm3.784.607c-.01.137-.19.241-.546.257l-.889-.1c-.342-.1-.494-.24-.471-.379s.211-.239.558-.259l.863.1C304.667,241.705,304.828,241.846,304.818,241.99Zm3.826-.082c.016.136-.141.272-.488.353l-.893.061c-.354-.033-.529-.146-.532-.287s.165-.274.5-.357l.865-.06C308.443,241.656,308.627,241.765,308.644,241.908Zm3.736-.833c.044.13-.082.3-.4.452l-.862.251c-.357.026-.552-.055-.583-.193s.109-.3.426-.432l.831-.243C312.132,240.872,312.334,240.939,312.38,241.075Zm3.479-1.591c.07.119-.02.306-.305.519l-.794.414c-.338.111-.543.078-.6-.05s.042-.317.317-.528l.767-.4C315.574,239.334,315.786,239.36,315.859,239.484Zm3.1-2.252c.091.1.039.3-.2.569l-.7.561c-.31.175-.517.183-.6.069s-.021-.319.207-.58l.676-.543C318.648,237.141,318.861,237.125,318.957,237.232Zm2.616-2.8c.109.084.1.291-.088.6l-.58.684c-.271.231-.474.278-.576.181s-.081-.309.094-.609l.561-.662C321.252,234.4,321.458,234.341,321.573,234.429Zm2.033-3.248c.123.061.15.267.029.6l-.438.781c-.221.278-.411.363-.531.288s-.139-.288-.025-.616l.423-.756C323.285,231.211,323.476,231.117,323.606,231.181Zm1.345-3.582c.133.034.2.23.149.582l-.271.854c-.161.317-.33.438-.462.388s-.194-.255-.148-.6l.262-.824C324.643,227.694,324.811,227.562,324.951,227.6Zm.557-3.789c.138,0,.246.181.271.537l-.081.894c-.089.345-.228.5-.367.478s-.244-.208-.273-.553l.078-.861C325.227,223.969,325.363,223.8,325.508,223.809Zm-.267-3.82c.135-.024.279.125.379.467l.11.89c-.014.356-.117.536-.257.546s-.282-.151-.384-.482l-.106-.858C325,220.205,325.1,220.015,325.24,219.989Zm-1.077-3.674c.127-.054.3.061.471.374l.3.846c.063.351,0,.549-.134.588s-.308-.087-.479-.388l-.288-.815C323.976,216.578,324.03,216.371,324.164,216.315Zm-1.887-3.333c.11-.082.3-.011.544.253l.49.755c.144.327.13.533.007.6s-.321-.014-.557-.266l-.47-.724C322.156,213.283,322.161,213.068,322.276,212.982Zm-2.668-2.744c.082-.107.3-.1.605.086l.662.613c.221.282.259.487.157.585s-.313.066-.6-.119l-.632-.585C319.583,210.548,319.518,210.355,319.609,210.238Zm-3.332-1.876c.049-.128.251-.17.6-.072l.816.385c.295.2.391.385.321.508s-.282.156-.615.066l-.778-.367C316.334,208.682,316.225,208.5,316.277,208.362Zm-3.721-.89c.013-.137.2-.232.554-.23l.888.15c.339.115.48.265.447.4s-.229.226-.574.23l-.849-.143C312.7,207.764,312.542,207.615,312.556,207.472Zm-3.821.153c-.025-.134.122-.292.466-.4q.447-.065.9-.1c.359.03.537.151.542.291s-.16.266-.492.352q-.429.033-.854.095C308.95,207.852,308.762,207.768,308.735,207.625Zm-3.6,1.28c-.067-.119.023-.316.317-.527q.406-.2.826-.371c.352-.08.559-.017.605.116s-.074.3-.364.482q-.4.16-.781.351C305.414,209.051,305.209,209.031,305.138,208.9Zm-2.959,2.41c-.1-.089-.088-.3.116-.6q.312-.33.65-.633c.3-.2.521-.206.609-.1s.032.308-.178.576q-.318.286-.612.6C302.489,211.356,302.29,211.409,302.179,211.314Zm-1.928,3.292c-.129-.045-.192-.253-.107-.606q.175-.42.386-.823c.217-.29.417-.375.537-.3s.137.278.034.6q-.2.379-.363.772C300.555,214.535,300.388,214.655,300.251,214.607Zm-.5,3.772c-.134.013-.28-.149-.35-.509a8.827,8.827,0,0,1,.022-.914c.085-.355.238-.51.376-.49s.233.2.267.54a8.151,8.151,0,0,0-.02.847C300,218.186,299.9,218.365,299.75,218.379Zm1.149,3.631c-.119.066-.316-.023-.526-.319q-.2-.408-.364-.834c-.074-.356,0-.562.129-.6s.3.083.473.373q.152.4.341.781C301.045,221.734,301.026,221.939,300.9,222.01Zm2.392,2.977c-.091.1-.306.08-.6-.128q-.323-.316-.622-.656c-.192-.306-.2-.521-.093-.609s.308-.03.576.182q.284.322.591.623C303.341,224.678,303.388,224.879,303.291,224.987Zm3.183,2.12c-.059.124-.266.158-.61.047-.273-.128-.523-.3-.783-.45-.275-.233-.354-.426-.276-.543s.291-.13.611-.007c.248.144.484.308.745.429C306.435,226.79,306.535,226.977,306.474,227.107Zm3.646,1.15c-.023.136-.213.217-.57.19l-.875-.212c-.329-.139-.46-.3-.418-.433s.244-.21.589-.188l.837.2C310,227.955,310.144,228.115,310.12,228.257Zm3.823.184c.011.137-.153.264-.505.326l-.9.013c-.353-.053-.52-.174-.513-.315s.183-.264.523-.329l.864-.012C313.753,228.179,313.932,228.3,313.943,228.441Zm3.759-.749c.044.13-.085.293-.412.438l-.871.229c-.356.035-.548-.043-.575-.182s.114-.3.428-.446l.835-.22C317.454,227.483,317.657,227.555,317.7,227.692Zm3.45-1.651c.075.115-.007.3-.287.526l-.785.44c-.335.122-.54.094-.6-.033s.035-.32.3-.539l.75-.421C320.859,225.9,321.073,225.92,321.152,226.041Zm2.888-2.5c.1.091.076.3-.129.592l-.628.644c-.3.2-.512.219-.6.113s-.046-.312.163-.583l.6-.618C323.723,223.483,323.932,223.441,324.04,223.536Z" transform="translate(-32.606 43.354)" fill="#e7e7e7"/>
    <path id="Path_153551" data-name="Path 153551" d="M350.825,208.787c.12.066.138.273,0,.6l-.473.761c-.234.268-.427.344-.543.263s-.125-.294,0-.617l.457-.735C350.5,208.8,350.7,208.717,350.825,208.787Zm1.558-3.5c.13.046.183.248.107.595l-.329.829c-.182.3-.359.414-.488.357s-.177-.265-.106-.606l.321-.808C352.07,205.357,352.247,205.239,352.383,205.287Zm1.053-3.688c.134.03.213.225.182.577l-.219.862c-.141.324-.3.457-.439.419s-.21-.237-.184-.585l.215-.847C353.136,201.706,353.3,201.567,353.437,201.6Zm.689-3.771c.136.02.231.208.231.561l-.143.874c-.113.334-.263.482-.4.456s-.23-.215-.234-.566l.142-.865C353.836,197.957,353.983,197.806,354.126,197.827Zm.51-3.8c.136.017.238.2.25.555l-.112.876c-.1.337-.246.491-.386.472s-.238-.2-.254-.556l.112-.874C354.351,194.161,354.492,194.006,354.636,194.024Zm.516-3.8c.136.021.235.209.242.56l-.124.87c-.105.334-.252.487-.392.469s-.235-.2-.246-.557l.125-.876C354.865,190.352,355.009,190.2,355.152,190.222Zm.705-3.768c.134.031.221.226.207.575l-.177.857c-.126.326-.282.47-.421.445s-.223-.216-.211-.569l.18-.869C355.564,186.563,355.716,186.422,355.857,186.454Zm1.084-3.675c.129.048.192.253.139.6l-.273.827c-.162.308-.334.435-.47.4s-.2-.237-.145-.588l.279-.846C356.638,182.851,356.806,182.729,356.941,182.779Zm1.6-3.478c.119.068.15.282.044.612l-.4.772c-.207.278-.4.378-.526.319s-.159-.263-.053-.6l.408-.8C358.237,179.323,358.421,179.23,358.546,179.3Zm2.235-3.1c.1.093.087.309-.082.61l-.541.671c-.258.229-.466.288-.581.206s-.1-.287.069-.6l.563-.7C360.476,176.153,360.674,176.1,360.781,176.2Zm2.222-1.99a.363.363,0,0,1-.036.433l-.379.3a.364.364,0,0,1-.431-.073.334.334,0,0,1,.025-.428l.4-.31A.334.334,0,0,1,363,174.207Z" transform="translate(-57.196 54.967)" fill="#e7e7e7"/>
    <g id="Group_57562" data-name="Group 57562" transform="translate(98.875 348.279)">
      <ellipse id="Ellipse_422" data-name="Ellipse 422" cx="113.487" cy="10.315" rx="113.487" ry="10.315" transform="translate(0 0)" fill="#f6f6f6"/>
    </g>
    <g id="Group_57564" data-name="Group 57564" transform="translate(179.408 161.234)">
      <path id="Path_153557" data-name="Path 153557" d="M267.45,76.5v87.385a6.99,6.99,0,0,1-6.991,6.991h-78.17a6.991,6.991,0,0,1-7-6.991V76.5a6.991,6.991,0,0,1,7-6.991h78.17A6.99,6.99,0,0,1,267.45,76.5Z" transform="translate(-175.292 -69.508)" fill="#f1f1f1"/>
      <path id="Path_153558" data-name="Path 153558" d="M251.833,197.3a4.285,4.285,0,0,1-2.737,4v5.8a1.532,1.532,0,0,1-.46,1.1,1.559,1.559,0,0,1-2.659-1.1v-5.8a4.294,4.294,0,1,1,5.856-4Z" transform="translate(-199.178 -112.917)" fill="#dcdcdc"/>
      <path id="Path_153559" data-name="Path 153559" d="M261.463,168.291a4.59,4.59,0,0,1-4.6,4.6h-56.81a4.6,4.6,0,0,1,0-9.194h56.81A4.555,4.555,0,0,1,261.463,168.291Zm-66-15.323a4.589,4.589,0,0,1,4.6-4.6h56.81a4.6,4.6,0,1,1,0,9.194h-56.81A4.624,4.624,0,0,1,195.46,152.968Z" transform="translate(-182.381 -97.228)" fill="#fff"/>
      <g id="Group_57563" data-name="Group 57563" transform="translate(28.114 9.678)">
        <path id="Path_153560" data-name="Path 153560" d="M236.611,120.363A17.966,17.966,0,1,1,254.577,102.4,17.986,17.986,0,0,1,236.611,120.363Zm0-35.1A17.134,17.134,0,1,0,253.744,102.4,17.153,17.153,0,0,0,236.611,85.264Z" transform="translate(-218.644 -84.432)" fill="#606060"/>
        <ellipse id="Ellipse_423" data-name="Ellipse 423" cx="15.317" cy="15.317" rx="15.317" ry="15.317" transform="translate(2.649 2.649)" fill="#fff"/>
        <path id="Path_153561" data-name="Path 153561" d="M235.63,99.921a5.484,5.484,0,1,1,5.488,5.488A5.486,5.486,0,0,1,235.63,99.921Zm14.943,11.109a10.207,10.207,0,0,1-18.909,0,2.646,2.646,0,0,1,2.453-3.634h13.995A2.65,2.65,0,0,1,250.573,111.03Z" transform="translate(-223.152 -87.95)"/>
      </g>
    </g>
    <g id="Group_57597" data-name="Group 57597" transform="translate(278.368 193.272)">
      <path id="Path_153627" data-name="Path 153627" d="M353,131.778c-.066,0-.148-.322-.241-.953a15.619,15.619,0,0,0-.722-2.752,11.9,11.9,0,0,0-2.43-3.983,12.649,12.649,0,0,0-2.294-1.973,13.019,13.019,0,0,0-3.154-1.46,11.646,11.646,0,0,0-14.524,14.536,13.029,13.029,0,0,0,1.462,3.15,12.631,12.631,0,0,0,1.972,2.291,11.9,11.9,0,0,0,3.981,2.429,15.688,15.688,0,0,0,2.751.724c.631.094.953.177.953.245s-.322.118-.984.146a10.6,10.6,0,0,1-2.951-.41,11.716,11.716,0,0,1-4.427-2.355,13.105,13.105,0,0,1-2.245-2.423,13.752,13.752,0,0,1-1.7-3.431,12.892,12.892,0,0,1,16.079-16.092,13.734,13.734,0,0,1,3.436,1.7,13.107,13.107,0,0,1,2.426,2.246,11.707,11.707,0,0,1,2.357,4.429,10.552,10.552,0,0,1,.409,2.952C353.126,131.456,353.075,131.778,353,131.778Z" transform="translate(-327.891 -118.911)" fill="#e7e7e7"/>
      <path id="Path_153628" data-name="Path 153628" d="M351.6,134.259a8.3,8.3,0,0,1-14.637,5.355c-.077-.089-.149-.183-.222-.277a8.3,8.3,0,1,1,13.189-10.075c.124.166.243.332.349.507A8.24,8.24,0,0,1,351.6,134.259Z" transform="translate(-330.389 -121.387)" fill="#b9873e"/>
      <path id="Path_153629" data-name="Path 153629" d="M351.639,135.963A8.3,8.3,0,0,1,337,141.318c-.077-.089-.149-.183-.221-.277a8.23,8.23,0,0,1-1.657-3.919c.051.068.107.136.162.2a8.3,8.3,0,0,0,14.637-5.355,8.032,8.032,0,0,0-.081-1.163c.047.055.085.106.128.162.124.166.243.332.349.507A8.239,8.239,0,0,1,351.639,135.963Z" transform="translate(-330.433 -123.091)" fill="#d19b4c"/>
      <path id="Path_153630" data-name="Path 153630" d="M350.914,133.322c.209.258-.526,1.24-2.309,2.862l-2.375,1.924-1.188.962-.3.24-.148.12-.127.1a1.481,1.481,0,0,1-.156.106,1.45,1.45,0,0,1-1.422.034,1.472,1.472,0,0,1-.487-.458l-.084-.132-.051-.084-.1-.165-.186-.315-.326-.568c-.2-.351-.352-.648-.467-.888a3.239,3.239,0,0,1-.219-.545.5.5,0,0,0-.037-.139c-.008-.017.016-.026.029-.061a.79.79,0,0,1,.077-.152.243.243,0,0,1,.226-.012,1.95,1.95,0,0,1,.608.341,7.158,7.158,0,0,1,.78.713q.217.225.456.5l.467.546a.028.028,0,0,0,.018-.014l4.03-3.264C349.586,133.572,350.694,133.051,350.914,133.322Z" transform="translate(-332.475 -123.952)" fill="#fff"/>
    </g>
    <g id="Group_57598" data-name="Group 57598" transform="translate(282.669 230.188)">
      <path id="Path_153631" data-name="Path 153631" d="M335.44,177.085a3.687,3.687,0,1,1,.331,5.2A3.691,3.691,0,0,1,335.44,177.085Zm4.3,3.788a2.046,2.046,0,1,0-2.887.184A2.048,2.048,0,0,0,339.744,180.873Z" transform="translate(-334.523 -175.836)" fill="#f0f0f0"/>
    </g>
    <g id="Group_57599" data-name="Group 57599" transform="translate(169.769 301.56)" opacity="0.5">
      <path id="Path_153632" data-name="Path 153632" d="M164.405,285.9a.818.818,0,0,1,.611.144l4.571,3.289a.821.821,0,0,1,.187,1.146l-3.289,4.571a.821.821,0,0,1-1.146.187l-4.571-3.289a.821.821,0,0,1-.187-1.146l3.289-4.571A.818.818,0,0,1,164.405,285.9Zm3.557,4.286-3.238-2.33-2.33,3.238,3.238,2.33Z" transform="translate(-160.427 -285.893)" fill="#999"/>
    </g>
    <g id="Group_57600" data-name="Group 57600" transform="translate(248.774 302.191)" opacity="0.5">
      <path id="Path_153633" data-name="Path 153633" d="M286.231,286.89a.706.706,0,0,1,.863.5l1.759,6.616a.706.706,0,0,1-.952.833l-5.21-2.158a.706.706,0,0,1-.288-1.084l3.451-4.458A.705.705,0,0,1,286.231,286.89Zm.891,6.1-1.026-3.858-2.012,2.6Z" transform="translate(-282.255 -286.867)" fill="#b0b0b0"/>
    </g>
    <g id="Group_57601" data-name="Group 57601" transform="translate(305.17 270.896)">
      <path id="Path_153634" data-name="Path 153634" d="M385.875,240.078v10.927a1.471,1.471,0,0,1-1.47,1.47H370.69a1.471,1.471,0,0,1-1.47-1.47V240.078a1.471,1.471,0,0,1,1.47-1.47H384.4A1.471,1.471,0,0,1,385.875,240.078Z" transform="translate(-369.22 -238.608)" fill="#f6f6f6"/>
      <path id="Path_153635" data-name="Path 153635" d="M394.452,260.082h-13.03a1.637,1.637,0,0,1-1.638-1.632v-9.761a1.637,1.637,0,0,1,1.638-1.632h13.03a1.634,1.634,0,0,1,1.632,1.632v9.761A1.634,1.634,0,0,1,394.452,260.082Zm-13.03-12.7a1.312,1.312,0,0,0-1.314,1.308v9.761a1.312,1.312,0,0,0,1.314,1.308h13.03a1.309,1.309,0,0,0,1.308-1.308v-9.761a1.309,1.309,0,0,0-1.308-1.308Z" transform="translate(-372.933 -241.578)" fill="#e7e7e7"/>
    </g>
    <g id="Group_57602" data-name="Group 57602" transform="translate(189.375 323.967)">
      <path id="Path_153636" data-name="Path 153636" d="M207.316,321.916v10.927a1.471,1.471,0,0,1-1.47,1.47H192.131a1.471,1.471,0,0,1-1.47-1.47V321.916a1.471,1.471,0,0,1,1.47-1.47h13.715A1.471,1.471,0,0,1,207.316,321.916Z" transform="translate(-190.662 -320.446)" fill="#f6f6f6"/>
      <path id="Path_153637" data-name="Path 153637" d="M215.893,341.92H202.864a1.637,1.637,0,0,1-1.638-1.632v-9.761a1.637,1.637,0,0,1,1.638-1.632h13.029a1.634,1.634,0,0,1,1.632,1.632v9.761A1.634,1.634,0,0,1,215.893,341.92Zm-13.029-12.7a1.312,1.312,0,0,0-1.314,1.308v9.761a1.312,1.312,0,0,0,1.314,1.308h13.029a1.309,1.309,0,0,0,1.308-1.308v-9.761a1.309,1.309,0,0,0-1.308-1.308Z" transform="translate(-194.375 -323.416)" fill="#e7e7e7"/>
    </g>
    <g id="Group_57558" data-name="Group 57558" transform="translate(111.732 221.231)">
      <ellipse id="Ellipse_421" data-name="Ellipse 421" cx="26.3" cy="3.936" rx="26.3" ry="3.936" transform="translate(0 134.734)" fill="#e6e6e6" style="mix-blend-mode: multiply;isolation: isolate"/>
      <path id="Path_153524" data-name="Path 153524" d="M562.672,1832.07c2.536.416,5.571,2.2,5.695,3.076-2.618.79-12.092.543-12.816-.25a2.5,2.5,0,0,1-.349-2.12A45.962,45.962,0,0,1,562.672,1832.07Zm-14.326.765c2.516.523,5.472,2.438,5.56,3.315-2.649.678-11.658.047-12.348-.776a2.5,2.5,0,0,1-.26-2.132A42.438,42.438,0,0,1,548.346,1832.835Z" transform="translate(-527.329 -1696.202)" fill="#fff"/>
      <path id="Path_153525" data-name="Path 153525" d="M665.438,1318.431c.249,9.893,1.58,19.873,2.078,27.6s1.164,11.972.914,12.055c-5.155,1.912-13.024,1.081-13.024,1.081-.526-7.482-.776-20.119-.776-20.617.581-9.478.748-14.881,2.909-18.124S665.438,1318.431,665.438,1318.431Z" transform="translate(-631.986 -1222.219)" fill="#606060"/>
      <path id="Path_153526" data-name="Path 153526" d="M655.38,1327.576c.4-.9.806-1.52,1.272-1.692,1.372-.507,4.718,3.735,4.718,3.735a10.678,10.678,0,0,1-2.6.538c.04,8.875.029,13.542.016,15.376-1.614-.047-2.69-.16-2.69-.16C655.717,1339.954,655.481,1331.834,655.38,1327.576Zm10.766-22.379c-1.761,1.142-6.251,1.557-6.251,1.557-.416-1.746-3.742-3.241,0-3.493A9.236,9.236,0,0,1,666.146,1305.2Z" transform="translate(-632.678 -1208.425)" fill="#d8d8d8" style="mix-blend-mode: multiply;isolation: isolate"/>
      <path id="Path_153527" data-name="Path 153527" d="M482.742,1597.125v18.206c-4.323.5-16.877-.056-17.622-.485.332-7.246,1.5-16.89,1.579-18.636C468.775,1594.049,482.742,1594.8,482.742,1597.125Z" transform="translate(-457.187 -1477.468)" fill="#a8a8a8"/>
      <path id="Path_153528" data-name="Path 153528" d="M481.466,1599.026c-.138.349-.3.724-.466,1.08.182-1.8.316-3.14.342-3.691.751-.776,3.05-1.181,5.682-1.265a41.873,41.873,0,0,1,7.827,1.513,5.076,5.076,0,0,1,2.536,2.363C489.408,1599.572,481.551,1598.77,481.466,1599.026Z" transform="translate(-471.834 -1477.673)" fill="#d8d8d8" style="mix-blend-mode: multiply;isolation: isolate"/>
      <path id="Path_153529" data-name="Path 153529" d="M694.168,106.775a3.225,3.225,0,0,1,3.433-.166c1.143,1.58,1.863,6.288,1.857,10.853s-.723,8.836-1.708,9.6,1.2,3.41-1.251,2.912c-3.991-6.692-5.986-15.63-4.947-18.83A9,9,0,0,1,694.168,106.775Z" transform="translate(-665.791 -104.301)" fill="#a8a8a8"/>
      <path id="Path_153530" data-name="Path 153530" d="M785.379,516.026c2.19-1.941,2.872-2.418,3.415-3.26a3.361,3.361,0,0,1,3.092-1.59c3.416-.114,5.928-.881,6.283-.621-.174,1.144-1.941,2.771-5.256,3.473-2.163.458-1.941.233-5.409,4.433A18.947,18.947,0,0,0,785.379,516.026Zm-12.732,36.368c.724,1.338,1.922,3.075,1.772,4.27-.161,1.283-4.218,2.1-5.266,1.164-.724-.874-.05-4.982-.05-4.982A14.963,14.963,0,0,1,772.647,552.393Z" transform="translate(-737.31 -477.223)" fill="#e6d6bf"/>
      <path id="Path_153531" data-name="Path 153531" d="M768.653,700.26a268.3,268.3,0,0,0,3.218,26.976c-.921,1.022-4.419,1.193-4.419,1.193C766.456,719.418,768.653,700.26,768.653,700.26Z" transform="translate(-735.811 -652.252)" fill="#c6c6c6"/>
      <path id="Path_153532" data-name="Path 153532" d="M769.1,705.566c-.155-1.725-.3-3.514-.425-5.356,0,0-2.2,19.158-1.2,28.169a17.313,17.313,0,0,0,1.908-.221A170.242,170.242,0,0,1,769.1,705.566Z" transform="translate(-735.828 -652.205)" fill="#dedede" style="mix-blend-mode: multiply;isolation: isolate"/>
      <path id="Path_153533" data-name="Path 153533" d="M545.915,551.742c-.276,10.4-.616,12.018.374,26.109s.989,18.087.74,18.583c-2.12,1.559-21.449.621-21.449.621.063-5.862,5.529-61.935,5.529-61.935s13.069,8.064,14.183,11.431S545.967,549.823,545.915,551.742Z" transform="translate(-512.954 -499.931)" fill="#606060"/>
      <path id="Path_153534" data-name="Path 153534" d="M736.446,674.208c1.341,1.121,2.581,3.177,2.584,4.459a33.847,33.847,0,0,0,.341,3.579h0c-1.553-2.639-1.863-2.081-2.52-3.734a6.182,6.182,0,0,0-1.452-2.556C736.446,674.208,735.106,673.085,736.446,674.208Z" transform="translate(-706.486 -627.807)" fill="#dedede" style="mix-blend-mode: multiply;isolation: isolate"/>
      <path id="Path_153535" data-name="Path 153535" d="M463.151,535.376c-1.837,18.3-1.763,35.071-1.492,52.307s1.443,37.446.654,38.189c-4.711.594-18.671-.4-24.617-.516-.673-7.578.448-16.129,1.262-39.161s1.758-27.195,4.6-36.7a149.822,149.822,0,0,0,4.122-17.831c1.514-7.282,4.783-12.346,9.361-7.648S463.582,531.083,463.151,535.376Z" transform="translate(-431.701 -488.008)" fill="#242424"/>
      <path id="Path_153536" data-name="Path 153536" d="M665.006,168.292c1.953,4.24.981,12.969-.665,14.424-1.58.789-6.485-.042-7.649-1.206s-2.161-8.65-.415-11.476S663.841,166.875,665.006,168.292Z" transform="translate(-632.635 -160.825)" fill="#e6d6bf"/>
      <path id="Path_153537" data-name="Path 153537" d="M670.94,130.148c2.2-1.455,7.486-1.882,8.835-.921.078-1.863-1.475-4.4-2.393-5.231s-4.114-.748-5.57,1.5A6.482,6.482,0,0,0,670.94,130.148Z" transform="translate(-646.923 -120.275)" fill="#fff"/>
      <path id="Path_153538" data-name="Path 153538" d="M520.206,85.39c-4.24,4.558-6.4,9.377-6.945,11.83,4.863,7.441,7.064,6.795,7.064,6.795,1.414,3.056,3,6.715,3.08,9.79,3.659,5.737,2.743,13.051,2.077,16.212s-.574,8.064-1.659,8.729c-1.164-1.663-.336-2.245-2.329-4.822S518,118.877,516.756,117.8a4.84,4.84,0,0,0-6.817,1.164c-2.16,2.91-1.164,6.817-3.658,8.646s-4.323,1.164-4.323,1.164c1.33-2.406,1-4.821,1-8.313a27.549,27.549,0,0,1,4.531-16.442c-3.658-3.409-7-8.572-6.837-12.147s1.289-6.806,7-8.95a20.183,20.183,0,0,1,12.169-.311c1.965.81,1.941,1.517,1.941,1.517C521.219,83.953,520.206,85.39,520.206,85.39Z" transform="translate(-489.952 -81.818)" fill="#b9873e"/>
      <path id="Path_153539" data-name="Path 153539" d="M624.325,218.064c.706-.125,1.164,2.785,2.161,4.822.612.932,1.181,1.742,1.708,2.439C625.472,222.658,623.676,218.178,624.325,218.064Zm-.727,7.69c-1.06,0,2.278,3.825,4.759,6.609,2.389,2.682,6.027,5.945,5.529,6.236s-4.781-5.2-8.689-4.863c-.041.543,2.759,1.087,4.878,2.337s3.856,3.4,4.6,3.358-1.153-2.217-2.476-3.548-2.913-3.142-4.2-4.58C625.9,228.955,624.657,225.753,623.6,225.753Zm13.034,13.718a22.175,22.175,0,0,0-5.794-7.669c-1.817-1.6-3.978-3.513-3.648-3.8s2.484,1.417,3.959,3.477S635.14,234.608,636.632,239.471Z" transform="translate(-603.177 -207.484)" fill="#d8d8d8" style="mix-blend-mode: multiply;isolation: isolate"/>
      <path id="Path_153540" data-name="Path 153540" d="M560.868,362.415c1.708-.207,2.45-.9,4.572,0a6.2,6.2,0,0,0-3.493.2A1.146,1.146,0,0,1,560.868,362.415Zm.623,6.264c-2.972,2.484-1.486,10.325-2.972,12.672,1.486-.894,1.434-5.378,1.4-7.031a7.693,7.693,0,0,1,.92-4.3C561.507,369.1,561.492,368.679,561.492,368.679Zm7.335,2.882c.043,1.5,6.392,3.3,6.8,7.857.411-2.588-2.083-4.863-3.267-5.55a16.337,16.337,0,0,1-2.556-1.434C569.268,371.915,569.032,371.042,568.827,371.561Z" transform="translate(-543.337 -340.218)" fill="#d8d8d8" style="mix-blend-mode: multiply;isolation: isolate"/>
      <path id="Path_153541" data-name="Path 153541" d="M620.36,521.072c3.621,5.49,12.8,14.964,15.963,15.879,1.58.166,9.228-3.575,16.627-13.3.332-.748-2.494-2.993-2.91-2.993-1.58,1.247-11.082,7.75-12.429,8.772-1.156-.35-6.115-7.146-7.784-9.058a11.623,11.623,0,0,0-2.749-2.494C622.8,517.085,620.36,521.072,620.36,521.072Z" transform="translate(-600.376 -483.93)" fill="#c6c6c6"/>
    </g>
  </g>
</svg>
