<svg id="Group_58332" data-name="Group 58332" xmlns="http://www.w3.org/2000/svg" width="20.143" height="20.143" viewBox="0 0 20.143 20.143">
  <g id="exclamation" transform="translate(0 0)">
    <path id="Path_142399" data-name="Path 142399" d="M10.071,0A10.071,10.071,0,1,0,20.143,10.071,10.071,10.071,0,0,0,10.071,0Zm0,17.625a7.553,7.553,0,1,1,7.553-7.553A7.553,7.553,0,0,1,10.071,17.625Z" fill="#b9873e"/>
    <path id="Path_142400" data-name="Path 142400" d="M225.259,117a1.259,1.259,0,0,0,1.259-1.259v-5.875a1.259,1.259,0,0,0-2.518,0v5.875A1.259,1.259,0,0,0,225.259,117Z" transform="translate(-215.188 -104.335)" fill="#b9873e"/>
    <circle id="Ellipse_53" data-name="Ellipse 53" cx="1.259" cy="1.259" r="1.259" transform="translate(8.817 13.428)" fill="#b9873e"/>
  </g>
</svg>
