<svg xmlns="http://www.w3.org/2000/svg" xmlns:xlink="http://www.w3.org/1999/xlink" width="428" height="924" viewBox="0 0 428 924">
  <defs>
    <clipPath id="clip-_79-LOGIN">
      <rect width="428" height="924"/>
    </clipPath>
  </defs>
  <g id="_79-LOGIN" data-name="79-LOGIN" clip-path="url(#clip-_79-LOGIN)">
    <rect width="428" height="924" fill="#fff"/>
    <text id="Signin" transform="translate(186 703)" fill="#fff" font-size="18" font-family="RobotoSlab-Regular, Roboto Slab"><tspan x="0" y="0">Signin</tspan></text>
    <rect id="Rectangle_19585" data-name="Rectangle 19585" width="428" height="92" fill="#fff"/>
    <path id="Path_152631" data-name="Path 152631" d="M0,0H428" transform="translate(0 92)" fill="none" stroke="#f4f4f4" stroke-linecap="round" stroke-width="1"/>
    <g id="Group_57604" data-name="Group 57604">
      <path id="Path_5" data-name="Path 5" d="M492.792,311.078c3.882-3.68,9.478-.437,12.89,2.319,8.15,6.924,16.183,14,24,21.309,4.252,3.31,4.184,10.251.118,13.7-10.823,10.385-21.947,20.485-32.837,30.787-2.37,2.353-5.983,5.344-9.243,2.622-9.562-7.73-18.553-16.183-27.611-24.468-4.184-3.243-2.638-9.361.656-12.621C471.131,333.227,482.205,322.371,492.792,311.078Z" transform="translate(252.354 -564.889) rotate(39)" fill="#f1f1f1"/>
      <path id="Path_5-2" data-name="Path 5" d="M492.792,311.078c3.882-3.68,9.478-.437,12.89,2.319,8.15,6.924,16.183,14,24,21.309,4.252,3.31,4.184,10.251.118,13.7-10.823,10.385-21.947,20.485-32.837,30.787-2.37,2.353-5.983,5.344-9.243,2.622-9.562-7.73-18.553-16.183-27.611-24.468-4.184-3.243-2.638-9.361.656-12.621C471.131,333.227,482.205,322.371,492.792,311.078Z" transform="translate(-186.379 -580.666) rotate(39)" fill="#f1f1f1"/>
      <path id="Path_5-3" data-name="Path 5" d="M536.839,313.14c8.737-8.283,21.332-.984,29.009,5.22,18.343,15.582,36.421,31.5,54.008,47.957,9.569,7.451,9.416,23.071.265,30.824-24.358,23.373-49.394,46.1-73.9,69.287-5.333,5.295-13.464,12.027-20.8,5.9-21.519-17.4-41.754-36.422-62.14-55.067-9.416-7.3-5.938-21.067,1.476-28.4C488.088,362.988,513.012,338.556,536.839,313.14Z" transform="translate(-141.684 246.714) rotate(39)" fill="#f1f1f1"/>
      <path id="Path_5-4" data-name="Path 5" d="M536.839,313.14c8.737-8.283,21.332-.984,29.009,5.22,18.343,15.582,36.421,31.5,54.008,47.957,9.569,7.451,9.416,23.071.265,30.824-24.358,23.373-49.394,46.1-73.9,69.287-5.333,5.295-13.464,12.027-20.8,5.9-21.519-17.4-41.754-36.422-62.14-55.067-9.416-7.3-5.938-21.067,1.476-28.4C488.088,362.988,513.012,338.556,536.839,313.14Z" transform="translate(297.047 299.714) rotate(39)" fill="#f1f1f1"/>
    </g>
  </g>
</svg>
