<svg id="Component_118_1" data-name="Component 118 – 1" xmlns="http://www.w3.org/2000/svg" width="50" height="50" viewBox="0 0 50 50">
  <rect id="Card" width="50" height="50" rx="5" fill="#b9873e"/>
  <g id="sales_2_" data-name="sales (2)" transform="translate(6.713 13.332)">
    <path id="Path_156387" data-name="Path 156387" d="M25.3,34.889a3.51,3.51,0,1,1,3.51-3.51A3.51,3.51,0,0,1,25.3,34.889Zm0-5.18a1.669,1.669,0,1,0,1.184.487A1.676,1.676,0,0,0,25.3,29.709Zm-9.784-4.984a3.51,3.51,0,1,1,3.5-3.51A3.51,3.51,0,0,1,15.515,24.726Zm0-5.186a1.676,1.676,0,1,0,1.669,1.676,1.676,1.676,0,0,0-1.669-1.676ZM5.67,36.222a3.51,3.51,0,1,1,3.51-3.5A3.51,3.51,0,0,1,5.67,36.222Zm0-5.18a1.666,1.666,0,1,1,0,.018ZM35.145,19.98a3.51,3.51,0,1,1,3.51-3.51A3.51,3.51,0,0,1,35.145,19.98Zm0-5.18a1.66,1.66,0,1,1,0,.018Z" transform="translate(-2.16 -12.96)" fill="#fff"/>
    <path id="Path_156388" data-name="Path 156388" d="M9.76,34.819a.893.893,0,0,1-.612-.226.911.911,0,0,1-.092-1.29l6.549-7.54a.923.923,0,0,1,1.382,1.223L10.457,34.5a.93.93,0,0,1-.7.318Zm16.493-1.235a.9.9,0,0,1-.66-.281l-6.225-6.47a.919.919,0,0,1,1.327-1.272l6.219,6.47a.917.917,0,0,1-.66,1.553Zm3.247-.055a.9.9,0,0,1-.508-.147.911.911,0,0,1-.251-1.272l6.88-10.286a.917.917,0,1,1,1.523,1.021l-6.88,10.273a.911.911,0,0,1-.764.41Z" transform="translate(-4.752 -16.235)" fill="#fff"/>
  </g>
</svg>
