<svg id="Component_115_1" data-name="Component 115 – 1" xmlns="http://www.w3.org/2000/svg" width="50" height="50" viewBox="0 0 50 50">
  <rect id="Card" width="50" height="50" rx="5" fill="#b9873e"/>
  <path id="Union_16" data-name="Union 16" d="M-1082.546-2945h-4.538a6.013,6.013,0,0,1-5.916-6.093v-13.815a6.013,6.013,0,0,1,5.916-6.092h9.075a5.771,5.771,0,0,1,3.494,1.179,6.146,6.146,0,0,1,2.422,4.913v13.815a6.013,6.013,0,0,1-5.916,6.093Zm-8.481-6.093a4.008,4.008,0,0,0,3.943,4.061h9.075a4.008,4.008,0,0,0,3.944-4.061v-13.815a4.008,4.008,0,0,0-3.944-4.061h-9.075a4.008,4.008,0,0,0-3.943,4.061Zm4.783.405a1,1,0,0,1-.986-1.016,1,1,0,0,1,.986-1.015h5.325a1,1,0,0,1,.986,1.015,1,1,0,0,1-.986,1.016Zm0-3.91a1,1,0,0,1-.986-1.015,1,1,0,0,1,.986-1.016h5.325a1,1,0,0,1,.986,1.016,1,1,0,0,1-.986,1.015Zm0-3.859a1,1,0,0,1-.986-1.016,1,1,0,0,1,.986-1.015h5.325a1,1,0,0,1,.986,1.015,1,1,0,0,1-.986,1.016Zm0-3.91a1,1,0,0,1-.986-1.016,1,1,0,0,1,.986-1.015h7.3a1,1,0,0,1,.986,1.015,1,1,0,0,1-.986,1.016Z" transform="translate(1107.547 2983)" fill="#fff" stroke="rgba(0,0,0,0)" stroke-width="1"/>
</svg>
