<svg xmlns="http://www.w3.org/2000/svg" width="211.82" height="211.82" viewBox="0 0 211.82 211.82">
  <g id="Group_57953" data-name="Group 57953" transform="translate(-108.09 -279.18)">
    <circle id="Ellipse_475" data-name="Ellipse 475" cx="105.91" cy="105.91" r="105.91" transform="translate(108.09 279.18)" fill="#f1f1f1"/>
    <path id="Path_153701" data-name="Path 153701" d="M198.292,384.993l8.224,4.691h0Z" transform="translate(-72.061 86.318)" fill="#7a7a7a"/>
    <g id="businessman-writes-a-schedule-on-a-calendar" transform="translate(-126.141 171.178)">
      <path id="Path_153704" data-name="Path 153704" d="M848.862,256.947H727.5V230.562a6.86,6.86,0,0,1,6.862-6.862H842.01a6.86,6.86,0,0,1,6.862,6.862v26.384Z" transform="translate(-448.04 -65.017)" fill="#606060"/>
      <path id="Path_153705" data-name="Path 153705" d="M848.772,538.1v53.061L822.586,623.3H734.262a6.867,6.867,0,0,1-6.862-6.862V538.1Z" transform="translate(-447.95 -346.577)" fill="#e7e7e7"/>
      <circle id="Ellipse_478" data-name="Ellipse 478" cx="5.4" cy="5.4" r="5.4" transform="translate(285.769 163.467)" fill="#cbcbcb"/>
      <circle id="Ellipse_479" data-name="Ellipse 479" cx="5.4" cy="5.4" r="5.4" transform="translate(302.178 163.467)" fill="#cbcbcb"/>
      <circle id="Ellipse_480" data-name="Ellipse 480" cx="5.4" cy="5.4" r="5.4" transform="translate(318.598 163.467)" fill="#cbcbcb"/>
      <circle id="Ellipse_481" data-name="Ellipse 481" cx="5.4" cy="5.4" r="5.4" transform="translate(335.018 163.467)" fill="#cbcbcb"/>
      <circle id="Ellipse_482" data-name="Ellipse 482" cx="5.4" cy="5.4" r="5.4" transform="translate(351.437 163.467)" fill="#cbcbcb"/>
      <circle id="Ellipse_483" data-name="Ellipse 483" cx="5.4" cy="5.4" r="5.4" transform="translate(367.847 163.467)" fill="#cbcbcb"/>
      <circle id="Ellipse_484" data-name="Ellipse 484" cx="5.4" cy="5.4" r="5.4" transform="translate(384.266 163.467)" fill="#cbcbcb"/>
      <path id="Path_153706" data-name="Path 153706" d="M816.405,169.6h0a2.706,2.706,0,0,1-2.705-2.705V153.805a2.706,2.706,0,0,1,2.705-2.705h0a2.706,2.706,0,0,1,2.705,2.705v13.088A2.719,2.719,0,0,1,816.405,169.6Zm16.409,0h0a2.706,2.706,0,0,1-2.705-2.705V153.805a2.706,2.706,0,0,1,2.705-2.705h0a2.706,2.706,0,0,1,2.705,2.705v13.088A2.706,2.706,0,0,1,832.814,169.6Zm16.42,0h0a2.706,2.706,0,0,1-2.705-2.705V153.805a2.706,2.706,0,0,1,2.705-2.705h0a2.706,2.706,0,0,1,2.705,2.705v13.088A2.706,2.706,0,0,1,849.234,169.6Zm16.42,0h0a2.706,2.706,0,0,1-2.705-2.705V153.805a2.706,2.706,0,0,1,2.705-2.705h0a2.706,2.706,0,0,1,2.705,2.705v13.088A2.713,2.713,0,0,1,865.654,169.6Zm16.42,0h0a2.706,2.706,0,0,1-2.705-2.705V153.805a2.706,2.706,0,0,1,2.705-2.705h0a2.706,2.706,0,0,1,2.705,2.705v13.088A2.719,2.719,0,0,1,882.073,169.6Zm16.409,0h0a2.706,2.706,0,0,1-2.705-2.705V153.805a2.706,2.706,0,0,1,2.705-2.705h0a2.706,2.706,0,0,1,2.705,2.705v13.088A2.706,2.706,0,0,1,898.483,169.6Zm16.42,0h0a2.706,2.706,0,0,1-2.705-2.705V153.805A2.706,2.706,0,0,1,914.9,151.1h0a2.706,2.706,0,0,1,2.705,2.705v13.088A2.706,2.706,0,0,1,914.9,169.6Z" transform="translate(-525.236)"/>
      <path id="Path_153707" data-name="Path 153707" d="M837.849,413.432H803.422a3.323,3.323,0,0,1-3.322-3.322h0a3.323,3.323,0,0,1,3.322-3.322h34.427a3.323,3.323,0,0,1,3.322,3.322h0A3.316,3.316,0,0,1,837.849,413.432Zm47.692-.9h0a3.466,3.466,0,0,1-3.468-3.468v-1.6A3.466,3.466,0,0,1,885.541,404h0a3.466,3.466,0,0,1,3.468,3.468v1.6A3.466,3.466,0,0,1,885.541,412.534Zm9.63,0h0a3.466,3.466,0,0,1-3.468-3.468v-1.6A3.466,3.466,0,0,1,895.171,404h0a3.466,3.466,0,0,1,3.468,3.468v1.6A3.473,3.473,0,0,1,895.171,412.534Zm9.63,0h0a3.466,3.466,0,0,1-3.468-3.468v-1.6A3.466,3.466,0,0,1,904.8,404h0a3.466,3.466,0,0,1,3.468,3.468v1.6A3.473,3.473,0,0,1,904.8,412.534Z" transform="translate(-513.057 -226.484)" fill="#e7e7e7"/>
      <g id="Group_57643" data-name="Group 57643" transform="translate(374.636 244.584)">
        <path id="Path_153708" data-name="Path 153708" d="M1664.886,1046.1l-26.186,32.14v-25.423a6.718,6.718,0,0,1,6.716-6.716Z" transform="translate(-1638.7 -1046.1)" fill="#cbcbcb"/>
      </g>
    </g>
    <g id="Group_57635" data-name="Group 57635" transform="translate(-138.843 87.173)">
      <path id="Path_153686" data-name="Path 153686" d="M26.359-.134c18.018.28,26.85,12.6,27.667,25.536S51.369,46.7,26,47-2.446,38.063-2.446,25.084,8.342-.414,26.359-.134Z" transform="translate(327 290)" fill="none" stroke="#606060" stroke-width="1"/>
      <g id="Ellipse_463" data-name="Ellipse 463" transform="translate(335 312)" fill="#606060" stroke="#606060" stroke-width="1">
        <circle cx="4" cy="4" r="4" stroke="none"/>
        <circle cx="4" cy="4" r="3.5" fill="none"/>
      </g>
      <circle id="Ellipse_465" data-name="Ellipse 465" cx="4.5" cy="4.5" r="4.5" transform="translate(328 318)" fill="#cbcbcb"/>
      <circle id="Ellipse_466" data-name="Ellipse 466" cx="4.5" cy="4.5" r="4.5" transform="translate(368 318)" fill="#cbcbcb"/>
      <g id="Ellipse_464" data-name="Ellipse 464" transform="translate(362 312)" fill="#606060" stroke="#606060" stroke-width="1">
        <circle cx="4" cy="4" r="4" stroke="none"/>
        <circle cx="4" cy="4" r="3.5" fill="none"/>
      </g>
      <line id="Line_265" data-name="Line 265" x2="14" transform="translate(345.5 327.5)" fill="none" stroke="#606060" stroke-linecap="round" stroke-width="1.5"/>
    </g>
  </g>
</svg>
