<svg id="Component_109_1" data-name="Component 109 – 1" xmlns="http://www.w3.org/2000/svg" width="211.82" height="211.82" viewBox="0 0 211.82 211.82">
  <circle id="Ellipse_477" data-name="Ellipse 477" cx="105.91" cy="105.91" r="105.91" fill="#f1f1f1"/>
  <path id="location_2_" data-name="location (2)" d="M62.9,126.715c2.046,0,8.612-2.727,18.006-11.415,14.925-13.738,32.351-37.881,32.351-60.61a50.661,50.661,0,0,0-101.321,0C11.94,90.4,53.534,125.957,62.9,126.715Zm-.3-102.2A24.143,24.143,0,1,1,38.457,48.654,24.143,24.143,0,0,1,62.6,24.511Z" transform="translate(43.31 26.374)" fill="#606060"/>
  <path id="location_1_" data-name="location (1)" d="M137.31,100.679c0,5.452-22.419,16.034-63.555,16.034S10.2,106.131,10.2,100.679c0-3.644,10.5-10.408,33.877-13.906a3.907,3.907,0,0,0,1.166-.379c10.962,10.349,21.69,17,28.162,17.492h.816c8.746,0,21.486-10.758,26.617-15.48.641-.583,1.283-1.224,1.924-1.866a5.833,5.833,0,0,0,.671.175C126.815,90.271,137.31,97.035,137.31,100.679Z" transform="translate(32.155 58.578)" fill="#e0e0e0"/>
</svg>
