<svg id="Component_118_1" data-name="Component 118 – 1" xmlns="http://www.w3.org/2000/svg" width="211.82" height="211.82" viewBox="0 0 211.82 211.82">
  <g id="Component_117_1" data-name="Component 117 – 1">
    <circle id="Ellipse_474" data-name="Ellipse 474" cx="105.91" cy="105.91" r="105.91" fill="#f1f1f1"/>
  </g>
  <path id="history_1_" data-name="history (1)" d="M107.79,4.24H23.211A18.939,18.939,0,0,0,4.25,23.2V70.812A16.031,16.031,0,0,0,19.909,86.789L31.52,87v23.966A16.02,16.02,0,0,0,47.5,126.945h63.274a16.02,16.02,0,0,0,15.978-15.977V23.2A18.939,18.939,0,0,0,107.79,4.24ZM31.52,76.35l-11.4-.213a5.326,5.326,0,0,1-5.22-5.326V23.2a8.309,8.309,0,0,1,16.617,0ZM97.99,78.8H60.068a5.337,5.337,0,0,1-5.326-5.326,5.411,5.411,0,0,1,5.326-5.326H97.99a5.411,5.411,0,0,1,5.326,5.326A5.337,5.337,0,0,1,97.99,78.8Zm0-21.3H60.068a5.337,5.337,0,0,1-5.326-5.326,5.411,5.411,0,0,1,5.326-5.326H97.99a5.411,5.411,0,0,1,5.326,5.326A5.337,5.337,0,0,1,97.99,57.5Zm0-21.3H70.72a5.337,5.337,0,0,1-5.326-5.326,5.411,5.411,0,0,1,5.326-5.326H97.99a5.411,5.411,0,0,1,5.326,5.326,5.337,5.337,0,0,1-5.326,5.326Z" transform="translate(40.75 40.76)"/>
</svg>
