<svg xmlns="http://www.w3.org/2000/svg" width="211.82" height="211.82" viewBox="0 0 211.82 211.82">
  <g id="Group_57960" data-name="Group 57960" transform="translate(-108.09 -279.18)">
    <circle id="Ellipse_504" data-name="Ellipse 504" cx="105.91" cy="105.91" r="105.91" transform="translate(108.09 279.18)" fill="#f1f1f1"/>
    <g id="world-heart-day" transform="translate(-52.617 181.281)">
      <path id="Path_153746" data-name="Path 153746" d="M266.906,267.333q-2.306-1.032-4.62-2.132l-.107-.052q-1.893-.906-3.784-1.852c-.08-.039-.155-.08-.235-.118-5.745-2.889-11.438-6.078-16.953-9.522q-.946-.588-1.882-1.189-1.059-.676-2.105-1.365-.837-.55-1.665-1.109-1.152-.776-2.292-1.565c-15.058-10.436-28.18-22.735-36.462-35.859-11.345-17.976-13.614-37.5.652-55.917,24.644-31.813,61.835-9.857,69.453,5.827,3.716-7.652,14.844-16.849,27.947-20.543a45.334,45.334,0,0,1,5.215-1.15,39.984,39.984,0,0,1,6.565-.5c.36,0,.722.009,1.082.023a34.017,34.017,0,0,1,18.687,6.276,42.684,42.684,0,0,1,9.96,10.069C366.906,199.06,317.14,244.886,266.906,267.333Z" transform="translate(0 0)" fill="#e0e0e0"/>
      <path id="Path_153747" data-name="Path 153747" d="M196.8,213.075c-11.345-17.976-13.614-37.5.652-55.917,24.644-31.813,61.835-9.857,69.453,5.827,3.716-7.652,14.844-16.849,27.947-20.543C297.6,195.215,230.387,209.323,196.8,213.075Z" transform="translate(0 -0.506)" fill="#e7e7e7"/>
      <ellipse id="Ellipse_490" data-name="Ellipse 490" cx="18.979" cy="9.184" rx="18.979" ry="9.184" transform="translate(191.347 175.593) rotate(-50.817)" fill="#f5f5f5"/>
      <path id="Path_153748" data-name="Path 153748" d="M506.1,267.34q-2.307-1.032-4.62-2.132l-.107-.052q-1.893-.906-3.784-1.852c-.08-.039-.155-.08-.235-.118-5.745-2.889-11.438-6.078-16.953-9.522q-.946-.588-1.882-1.189-1.059-.676-2.105-1.365-.837-.55-1.665-1.109-1.152-.776-2.292-1.565c100.708-5.6,85.566-85.86,73.369-108.144.36,0,.722.009,1.082.023A34.017,34.017,0,0,1,565.6,146.59a42.683,42.683,0,0,1,9.96,10.069C606.1,199.067,556.338,244.892,506.1,267.34Z" transform="translate(-239.198 -0.007)" fill="#d9d9d9"/>
    </g>
    <g id="Group_57959" data-name="Group 57959" transform="translate(-142.975 73.09)">
      <g id="Ellipse_463" data-name="Ellipse 463" transform="translate(336.279 312)" fill="#606060" stroke="#606060" stroke-width="1">
        <circle cx="4.731" cy="4.731" r="4.731" stroke="none"/>
        <circle cx="4.731" cy="4.731" r="4.231" fill="none"/>
      </g>
      <circle id="Ellipse_465" data-name="Ellipse 465" cx="5.322" cy="5.322" r="5.322" transform="translate(328 319.096)" fill="#cbcbcb"/>
      <circle id="Ellipse_466" data-name="Ellipse 466" cx="5.322" cy="5.322" r="5.322" transform="translate(375.306 319.096)" fill="#cbcbcb"/>
      <g id="Ellipse_464" data-name="Ellipse 464" transform="translate(368.21 312)" fill="#606060" stroke="#606060" stroke-width="1">
        <circle cx="4.731" cy="4.731" r="4.731" stroke="none"/>
        <circle cx="4.731" cy="4.731" r="4.231" fill="none"/>
      </g>
      <line id="Line_265" data-name="Line 265" x2="16.557" transform="translate(348.696 330.331)" fill="none" stroke="#606060" stroke-linecap="round" stroke-width="1.5"/>
    </g>
  </g>
</svg>
