<svg xmlns="http://www.w3.org/2000/svg" width="12" height="13.901" viewBox="0 0 12 13.901">
  <g id="order-history" transform="translate(-32)">
    <path id="Path_156410" data-name="Path 156410" d="M110.861,255.669a.476.476,0,0,1-.471-.481v-.208a.471.471,0,1,1,.942,0v.208A.476.476,0,0,1,110.861,255.669Zm-2.13.782h-3.894a.482.482,0,0,1,0-.963h3.894a.482.482,0,0,1,0,.963Zm0,2.252h-3.894a.482.482,0,0,1,0-.963h3.894a.482.482,0,0,1,0,.963Z" transform="translate(-70.189 -246.981)" fill="#b9873e"/>
    <path id="Path_156411" data-name="Path 156411" d="M34.149,6.819a.475.475,0,0,0,.475.475h3.93a.475.475,0,0,0,.427-.267,3.646,3.646,0,1,0-1.85-5.1H32.891A.892.892,0,0,0,32,2.822V13.01a.892.892,0,0,0,.891.891h7.4a.892.892,0,0,0,.891-.891V9.655a.475.475,0,0,0-.951,0v3.3H32.95V2.881h3.832a3.662,3.662,0,0,0-.05,1.239H34.625a.475.475,0,0,0,0,.95h2.367A3.664,3.664,0,0,0,37.9,6.344H34.625A.475.475,0,0,0,34.149,6.819Zm3.5-3.172a2.7,2.7,0,1,1,2.7,2.7A2.7,2.7,0,0,1,37.652,3.647Z" fill="#b9873e"/>
    <path id="Path_156412" data-name="Path 156412" d="M298.667,44.189a.479.479,0,0,1-.216-.051l-1.04-.523a.482.482,0,0,1-.265-.43V41.2a.481.481,0,1,1,.963,0v1.691l.775.39a.484.484,0,0,1-.217.912Z" transform="translate(-257.29 -39.49)" fill="#b9873e"/>
  </g>
</svg>
