<svg xmlns="http://www.w3.org/2000/svg" width="33.854" height="39.218" viewBox="0 0 33.854 39.218">
  <g id="order-history" transform="translate(-32)">
    <path id="Path_156410" data-name="Path 156410" d="M122.86,257.76a1.341,1.341,0,0,1-1.341-1.341v-.58a1.341,1.341,0,1,1,2.682,0v.58A1.341,1.341,0,0,1,122.86,257.76Zm-6.064,2.179H105.707a1.341,1.341,0,1,1,0-2.682H116.8a1.341,1.341,0,1,1,0,2.682Zm0,6.272H105.707a1.341,1.341,0,1,1,0-2.682H116.8a1.341,1.341,0,1,1,0,2.682Z" transform="translate(-66.302 -233.171)" fill="#b9873e"/>
    <path id="Path_156411" data-name="Path 156411" d="M38.064,19.238A1.341,1.341,0,0,0,39.4,20.579H50.493a1.339,1.339,0,0,0,1.2-.754A10.288,10.288,0,1,0,46.478,5.447H34.514A2.517,2.517,0,0,0,32,7.961V36.7a2.517,2.517,0,0,0,2.514,2.514H55.385A2.517,2.517,0,0,0,57.9,36.7V27.24a1.341,1.341,0,0,0-2.682,0v9.3H34.682V8.128H45.494a10.33,10.33,0,0,0-.142,3.5H39.4a1.341,1.341,0,0,0,0,2.682h6.678A10.336,10.336,0,0,0,48.638,17.9H39.4A1.341,1.341,0,0,0,38.064,19.238Zm9.882-8.95a7.614,7.614,0,1,1,7.614,7.607A7.619,7.619,0,0,1,47.946,10.288Z" fill="#b9873e"/>
    <path id="Path_156413" data-name="Path 156413" d="M25.1,18.233l-4.475,5.59-2.581-2.581a.615.615,0,1,0-.87.87l3.065,3.065a.644.644,0,0,0,.435.178h.037a.613.613,0,0,0,.441-.227l4.9-6.13a.613.613,0,1,0-.956-.766Z" transform="translate(33.935 -11.474)" fill="#b9873e" stroke="#b9873e" stroke-width="1"/>
  </g>
</svg>
