<svg xmlns="http://www.w3.org/2000/svg" width="33.85" height="39.213" viewBox="0 0 33.85 39.213">
  <g id="order-history" transform="translate(-32)">
    <path id="Path_156410" data-name="Path 156410" d="M122.857,257.76a1.341,1.341,0,0,1-1.341-1.341v-.58a1.341,1.341,0,0,1,2.681,0v.58A1.341,1.341,0,0,1,122.857,257.76Zm-6.063,2.178H105.707a1.341,1.341,0,0,1,0-2.681h11.087a1.341,1.341,0,0,1,0,2.681Zm0,6.271H105.707a1.341,1.341,0,1,1,0-2.681h11.087a1.341,1.341,0,1,1,0,2.681Z" transform="translate(-66.303 -233.174)" fill="#b9873e"/>
    <g id="Component_119_1" data-name="Component 119 – 1" transform="translate(32)">
      <path id="Path_156411" data-name="Path 156411" d="M38.063,19.235A1.341,1.341,0,0,0,39.4,20.576H50.491a1.339,1.339,0,0,0,1.2-.754A10.286,10.286,0,1,0,46.476,5.446H34.514A2.516,2.516,0,0,0,32,7.959V36.7a2.516,2.516,0,0,0,2.514,2.514H55.381A2.516,2.516,0,0,0,57.895,36.7V27.236a1.341,1.341,0,0,0-2.681,0v9.295H34.681V8.127H45.492a10.329,10.329,0,0,0-.142,3.5H39.4a1.341,1.341,0,1,0,0,2.681h6.677a10.334,10.334,0,0,0,2.555,3.59H39.4a1.34,1.34,0,0,0-1.341,1.341Zm9.881-8.949a7.612,7.612,0,1,1,7.612,7.606A7.618,7.618,0,0,1,47.944,10.287Z" transform="translate(-32)" fill="#b9873e"/>
    </g>
    <g id="Group_58447" data-name="Group 58447" transform="translate(52.182 7.498)">
      <line id="Line_321" data-name="Line 321" x1="6.383" y2="6.365" fill="none" stroke="#b9873e" stroke-linecap="round" stroke-width="2"/>
      <line id="Line_322" data-name="Line 322" x1="6.383" y1="6.365" fill="none" stroke="#b9873e" stroke-linecap="round" stroke-width="2"/>
    </g>
  </g>
</svg>
