<svg xmlns="http://www.w3.org/2000/svg" width="16.108" height="16.118" viewBox="0 0 16.108 16.118">
  <path id="order_1_" data-name="order (1)" d="M8.92,9.539v.967a8.657,8.657,0,0,0,2.627,6.212l.465.451a1.589,1.589,0,0,0,2.247-.034l.436-.449a8.658,8.658,0,0,0,2.443-6.028V9.539a1.084,1.084,0,0,0-1.084-1.084H10A1.084,1.084,0,0,0,8.92,9.539ZM4.793,4.914V10.93a.6.6,0,0,0,.974.468l1.317-1.054,1.277,1.022a9.256,9.256,0,0,0,2.059,5.01H1.707a.671.671,0,0,1-.671-.672s-.012-8.838,0-10.754c0-.012,0-.024,0-.036H4.793Zm7.542,8.844,3.094-3.094a.336.336,0,0,1,.475.475L12.572,14.47a.336.336,0,0,1-.475,0L10.432,12.8a.336.336,0,0,1,.475-.475ZM5.393,4.914H8.776V8.388a1.677,1.677,0,0,0-.455,1.151v.967c0,.02,0,.04,0,.06l-1.237-.99L5.393,10.93Zm3.982,0H12.5V7.856H10a1.677,1.677,0,0,0-.629.122V4.914Zm6.418-2.96a.669.669,0,0,1,.036.217V7.856H13.1V4.71ZM1.364,4.315,3.529,1.739A.671.671,0,0,1,4.043,1.5H15.157a.669.669,0,0,1,.209.033L12.649,4.315H1.364Z" transform="translate(-1.03 -1.5)" fill-rule="evenodd"/>
</svg>
