<svg xmlns="http://www.w3.org/2000/svg" width="21" height="20.995" viewBox="0 0 21 20.995">
  <g id="Layer_3" data-name="Layer 3" transform="translate(-2.99 -3)">
    <path id="Path_152633" data-name="Path 152633" d="M42.7,13.429a.362.362,0,0,1-.362-.362,9.224,9.224,0,0,0-9.09-9.343.362.362,0,0,1,0-.724,9.957,9.957,0,0,1,9.814,10.075A.362.362,0,0,1,42.7,13.429Z" transform="translate(-19.076)" fill="#fff"/>
    <path id="Path_152634" data-name="Path 152634" d="M19.682,15.784a.362.362,0,0,1-.362-.362,5.235,5.235,0,0,0-5.144-5.3.362.362,0,0,1,0-.724,5.948,5.948,0,0,1,5.864,6.016.362.362,0,0,1-.358.369Zm2.136,7.609A7.215,7.215,0,0,1,19.9,25.782a2.625,2.625,0,0,1-2.06.532,17.688,17.688,0,0,1-9.741-5.169A18.736,18.736,0,0,1,3.026,11.1a2.8,2.8,0,0,1,.518-2.121A7.063,7.063,0,0,1,5.89,6.983a.945.945,0,0,1,1.368,0L10.447,10.3a1.126,1.126,0,0,1,0,1.535L8.188,14.281a19.236,19.236,0,0,0,6.538,6.737l2.386-2.328a1.053,1.053,0,0,1,1.491,0l3.222,3.258a1.017,1.017,0,0,1-.007,1.444Z" transform="translate(0 -2.354)" fill="#fff"/>
  </g>
</svg>
