<svg id="Component_115_1" data-name="Component 115 – 1" xmlns="http://www.w3.org/2000/svg" width="40" height="40" viewBox="0 0 40 40">
  <rect id="Card" width="40" height="40" rx="5" fill="#fdf2e2"/>
  <g id="order-history" transform="translate(-24.238 5.823)">
    <path id="Path_156410" data-name="Path 156410" d="M117.737,256.856a.969.969,0,0,1-.969-.969v-.42a.969.969,0,0,1,1.939,0v.42A.969.969,0,0,1,117.737,256.856Zm-4.384,1.575h-8.017a.969.969,0,1,1,0-1.939h8.017a.969.969,0,1,1,0,1.939Zm0,4.535h-8.017a.969.969,0,1,1,0-1.939h8.017a.969.969,0,0,1,0,1.939Z" transform="translate(-67.982 -239.079)" fill="#b9873e"/>
    <path id="Path_156411" data-name="Path 156411" d="M36.384,13.909a.969.969,0,0,0,.969.969h8.017a.968.968,0,0,0,.871-.545,7.438,7.438,0,1,0-3.774-10.4h-8.65A1.82,1.82,0,0,0,32,5.756V26.537a1.82,1.82,0,0,0,1.818,1.818H48.907a1.82,1.82,0,0,0,1.818-1.818V19.695a.969.969,0,0,0-1.939,0v6.721H33.939V5.877h7.817a7.469,7.469,0,0,0-.1,2.528h-4.3a.969.969,0,0,0,0,1.939h4.828a7.473,7.473,0,0,0,1.847,2.6H37.354a.969.969,0,0,0-.969.969Zm7.145-6.471a5.5,5.5,0,1,1,5.5,5.5,5.508,5.508,0,0,1-5.5-5.5Z" fill="#b9873e"/>
    <path id="Path_156412" data-name="Path 156412" d="M300.209,47.71a.965.965,0,0,1-.435-.1l-2.095-1.054a.97.97,0,0,1-.534-.866v-4a.969.969,0,1,1,1.939,0v3.4l1.561.786a.976.976,0,0,1-.436,1.836Z" transform="translate(-249.081 -38.248)" fill="#b9873e"/>
  </g>
</svg>
