<svg xmlns="http://www.w3.org/2000/svg" width="14" height="17.872" viewBox="0 0 14 17.872">
  <g id="Group_57378" data-name="Group 57378" transform="translate(-15 -897.85)">
    <path id="Path_152642" data-name="Path 152642" d="M4.246,18.185h9.383a2.32,2.32,0,0,0,2.309-2.309V2.621A2.32,2.32,0,0,0,13.629.313H7.672a2.67,2.67,0,0,0-1.564.6L2.682,4.259a2.179,2.179,0,0,0-.745,1.713v9.9A2.32,2.32,0,0,0,4.246,18.185ZM8.714,7.164a.422.422,0,0,1,.745,0,3.025,3.025,0,0,0,2.9,1.34.565.565,0,0,1,.3.149.387.387,0,0,1,.149.3v2.755a4.714,4.714,0,0,1-3.5,4.543h-.3a4.631,4.631,0,0,1-3.5-4.543V8.876a.565.565,0,0,1,.149-.3c.074-.074.149-.149.3-.074A3.027,3.027,0,0,0,8.714,7.164ZM3.427,5.9a.919.919,0,0,1,.3-.6L7.15,2.025a.846.846,0,0,1,.6-.223H7.82v2.83A1.414,1.414,0,0,1,6.406,6.047L3.427,5.9Z" transform="translate(13.063 897.537)"/>
    <path id="Path_152643" data-name="Path 152643" d="M6.6,10.832c.133.2.266.332.465.332h.2c.133,0,.266-.066.4-.066l2.26-1.329a.73.73,0,1,0-.731-1.263L7.53,9.436l-.2-.332a.73.73,0,1,0-1.263.731Z" transform="translate(14.31 899.938)"/>
  </g>
</svg>
