<svg xmlns="http://www.w3.org/2000/svg" width="28.024" height="19.267" viewBox="0 0 28.024 19.267">
  <path id="Path_152625" data-name="Path 152625" d="M26.272,3H8.757V4.752H7.006V3H1.751A1.754,1.754,0,0,0,0,4.752V9.13a.876.876,0,0,0,.876.876,2.627,2.627,0,1,1,0,5.254A.876.876,0,0,0,0,16.136v4.379a1.732,1.732,0,0,0,1.751,1.751H7.006V20.515H8.757v1.751H26.272a1.734,1.734,0,0,0,1.751-1.751V4.752A1.734,1.734,0,0,0,26.272,3ZM8.757,18.764H7.006V17.012H8.757Zm0-3.5H7.006V13.509H8.757Zm0-3.5H7.006V10.006H8.757Zm0-3.5H7.006V6.5H8.757ZM14.888,6.5A2.627,2.627,0,1,1,12.26,9.13,2.63,2.63,0,0,1,14.888,6.5Zm-1.751,12.26a.874.874,0,0,1-.673-1.436L21.221,6.818a.876.876,0,0,1,1.343,1.123L13.807,18.45A.876.876,0,0,1,13.136,18.764Zm7.006,0a2.627,2.627,0,1,1,2.627-2.627A2.63,2.63,0,0,1,20.142,18.764Z" transform="translate(0 -3)" fill="#fff"/>
</svg>
