<svg id="Component_115_1" data-name="Component 115 – 1" xmlns="http://www.w3.org/2000/svg" width="16" height="16" viewBox="0 0 16 16">
  <circle id="Ellipse_515" data-name="Ellipse 515" cx="8" cy="8" r="8"/>
  <path id="Path_156407" data-name="Path 156407" d="M24.2,18.151a.53.53,0,0,0-.752,0L21.177,20.43,18.9,18.151a.532.532,0,1,0-.752.752l2.279,2.273L18.151,23.45a.532.532,0,1,0,.752.752l2.273-2.279L23.45,24.2a.532.532,0,1,0,.752-.752l-2.279-2.273L24.2,18.9a.53.53,0,0,0,0-.752Z" transform="translate(-13.176 -13.177)" fill="#fff"/>
</svg>
