<svg id="Component_117_1" data-name="Component 117 – 1" xmlns="http://www.w3.org/2000/svg" width="40" height="40" viewBox="0 0 40 40">
  <g id="Card">
    <rect id="Card-2" data-name="Card" width="40" height="40" rx="5" fill="#fdf2e2"/>
  </g>
  <g id="order-history" transform="translate(-24.238 5.823)">
    <path id="Path_156410" data-name="Path 156410" d="M117.737,256.856a.969.969,0,0,1-.969-.969v-.42a.969.969,0,0,1,1.939,0v.42A.969.969,0,0,1,117.737,256.856Zm-4.384,1.575h-8.017a.969.969,0,1,1,0-1.939h8.017a.969.969,0,1,1,0,1.939Zm0,4.535h-8.017a.969.969,0,1,1,0-1.939h8.017a.969.969,0,0,1,0,1.939Z" transform="translate(-67.982 -239.079)" fill="#b9873e"/>
    <path id="Path_156411" data-name="Path 156411" d="M36.384,13.909a.969.969,0,0,0,.969.969h8.017a.968.968,0,0,0,.871-.545,7.438,7.438,0,1,0-3.774-10.4h-8.65A1.82,1.82,0,0,0,32,5.756V26.537a1.82,1.82,0,0,0,1.818,1.818H48.907a1.82,1.82,0,0,0,1.818-1.818V19.695a.969.969,0,0,0-1.939,0v6.721H33.939V5.877h7.817a7.469,7.469,0,0,0-.1,2.528h-4.3a.969.969,0,0,0,0,1.939h4.828a7.473,7.473,0,0,0,1.847,2.6H37.354a.969.969,0,0,0-.969.969Zm7.145-6.471a5.5,5.5,0,1,1,5.5,5.5,5.508,5.508,0,0,1-5.5-5.5Z" fill="#b9873e"/>
    <g id="Group_58447" data-name="Group 58447" transform="translate(-0.131 0.745)">
      <line id="Line_321" data-name="Line 321" x1="4.615" y2="4.603" transform="translate(46.725 4.677)" fill="none" stroke="#b9873e" stroke-linecap="round" stroke-width="2"/>
      <line id="Line_322" data-name="Line 322" x1="4.615" y1="4.603" transform="translate(46.725 4.677)" fill="none" stroke="#b9873e" stroke-linecap="round" stroke-width="2"/>
    </g>
  </g>
</svg>
