<svg xmlns="http://www.w3.org/2000/svg" width="25" height="25" viewBox="0 0 25 25">
  <g id="Group_57476" data-name="Group 57476" transform="translate(-366 -710)">
    <g id="Component_110_1" data-name="Component 110 – 1" transform="translate(366 710)">
      <circle id="Ellipse_5" data-name="Ellipse 5" cx="12.5" cy="12.5" r="12.5" fill="#b9873e"/>
      <path id="delete_1_" data-name="delete (1)" d="M16.786,8.482l-.233,7.042a2.32,2.32,0,0,1-2.326,2.243H9.806A2.32,2.32,0,0,1,7.48,15.526L7.247,8.482A.582.582,0,0,1,8.41,8.443l.233,7.043a1.163,1.163,0,0,0,1.163,1.118h4.42a1.163,1.163,0,0,0,1.163-1.121l.233-7.041a.582.582,0,1,1,1.163.038Zm.769-2.343a.582.582,0,0,1-.582.582H7.06a.582.582,0,0,1,0-1.163h1.8a.742.742,0,0,0,.74-.668,1.74,1.74,0,0,1,1.736-1.567h1.355a1.74,1.74,0,0,1,1.736,1.567.742.742,0,0,0,.74.668h1.8a.582.582,0,0,1,.582.582Zm-6.942-.582h2.808a1.919,1.919,0,0,1-.148-.549.582.582,0,0,0-.578-.523H11.339a.582.582,0,0,0-.578.523,1.919,1.919,0,0,1-.149.549Zm.586,8.812V9.416a.582.582,0,1,0-1.163,0v4.955a.582.582,0,1,0,1.163,0Zm2.8,0V9.416a.582.582,0,1,0-1.163,0v4.955a.582.582,0,0,0,1.163,0Z" transform="translate(0.484 1.956)" fill="#fff"/>
    </g>
  </g>
</svg>
