<svg xmlns="http://www.w3.org/2000/svg" xmlns:xlink="http://www.w3.org/1999/xlink" width="88" height="88" viewBox="0 0 88 88">
  <defs>
    <filter id="Rectangle_17352" x="0" y="0" width="88" height="88" filterUnits="userSpaceOnUse">
      <feOffset input="SourceAlpha"/>
      <feGaussianBlur stdDeviation="8" result="blur"/>
      <feFlood flood-opacity="0.098"/>
      <feComposite operator="in" in2="blur"/>
      <feComposite in="SourceGraphic"/>
    </filter>
  </defs>
  <g id="Component_112_1" data-name="Component 112 – 1" transform="translate(24 24)">
    <g transform="matrix(1, 0, 0, 1, -24, -24)" filter="url(#Rectangle_17352)">
      <rect id="Rectangle_17352-2" data-name="Rectangle 17352" width="40" height="40" rx="20" transform="translate(24 24)" fill="#fff"/>
    </g>
    <path id="share_3_" data-name="share (3)" d="M18.53,13.978a1.684,1.684,0,0,0-.693-.1,3.841,3.841,0,0,0-3.068,1.485L9.72,13.087a4.433,4.433,0,0,0,0-2.277l5.048-2.277a3.935,3.935,0,1,0,.495-5.543A3.711,3.711,0,0,0,13.878,5.96a1.684,1.684,0,0,0,.1.693L8.731,9.028a4.035,4.035,0,0,0-5.642.1,4.035,4.035,0,0,0,.1,5.642,4.006,4.006,0,0,0,5.543,0l5.246,2.376A3.815,3.815,0,0,0,17.144,21.7,3.815,3.815,0,0,0,21.7,18.531,3.863,3.863,0,0,0,18.53,13.978Z" transform="translate(7.359 8.669)"/>
  </g>
</svg>
