<svg xmlns="http://www.w3.org/2000/svg" xmlns:xlink="http://www.w3.org/1999/xlink" width="88" height="88" viewBox="0 0 88 88">
  <defs>
    <filter id="Rectangle_17352" x="0" y="0" width="88" height="88" filterUnits="userSpaceOnUse">
      <feOffset input="SourceAlpha"/>
      <feGaussianBlur stdDeviation="8" result="blur"/>
      <feFlood flood-opacity="0.098"/>
      <feComposite operator="in" in2="blur"/>
      <feComposite in="SourceGraphic"/>
    </filter>
  </defs>
  <g id="Component_109_1" data-name="Component 109 – 1" transform="translate(24 24)">
    <g transform="matrix(1, 0, 0, 1, -24, -24)" filter="url(#Rectangle_17352)">
      <g id="Rectangle_17352-2" data-name="Rectangle 17352" transform="translate(24 24)" fill="#fff" stroke="#f8f8f8" stroke-width="1">
        <rect width="40" height="40" rx="20" stroke="none"/>
        <rect x="0.5" y="0.5" width="39" height="39" rx="19.5" fill="none"/>
      </g>
    </g>
    <path id="share_3_" data-name="share (3)" d="M17.542,13.267a1.584,1.584,0,0,0-.652-.093,3.611,3.611,0,0,0-2.885,1.4L9.259,12.429a4.168,4.168,0,0,0,0-2.141l4.747-2.141a3.7,3.7,0,1,0,.465-5.212,3.489,3.489,0,0,0-1.3,2.792,1.584,1.584,0,0,0,.093.652L8.328,8.613a3.794,3.794,0,0,0-5.305.093,3.794,3.794,0,0,0,.093,5.305,3.767,3.767,0,0,0,5.212,0l4.933,2.234a3.587,3.587,0,0,0,2.978,4.281,3.587,3.587,0,0,0,4.281-2.978A3.632,3.632,0,0,0,17.542,13.267Z" transform="translate(8.715 8.669)"/>
  </g>
</svg>
