<svg xmlns="http://www.w3.org/2000/svg" width="229.446" height="213.675" viewBox="0 0 229.446 213.675">
  <g id="Group_57606" data-name="Group 57606" transform="translate(0)">
    <path id="Path_153548" data-name="Path 153548" d="M76.214,197.385c11.369,21.2,32.007,38.843,56.007,40.52,25.823,1.807,51.441-14.608,76.564-8.366,15.43,3.833,29.086,15.983,44.915,14.5,13.037-1.229,24.195-13.127,24.577-26.221l3.215-18.327c4.256-25.5-5.575-52.182-22.819-71.453s-41.22-31.633-66.2-38.339c-24.724-6.641-51.555-7.951-75.571.887S72.242,119.576,67.05,144.642C63.355,162.473,67.6,181.337,76.214,197.385Z" transform="translate(-62.505 -68.719)" fill="#f8f8f8"/>
    <path id="Path_153549" data-name="Path 153549" d="M289.079,173.145a19.485,19.485,0,0,0-2.113-10.232c-7.937-16.687-29.2-19.107-44.06-25.918-18.331-8.5-23.142-23.605-31.327-42.108a103.037,103.037,0,0,0-8.362-15.812c-9.2-13.765-20.314-16.128-21.088-16.636l-3.295-.929-3.351-.66-2.255-.275c-34.6-4.062-93.046,30.807-95.827,77.935q-.042.975-.052,1.625c-.013.866.016,1.3.087,1.3s.182-.418.332-1.266q.113-.636.254-1.591c11.2-61.044,75.528-74.053,75.593-74.088a59.069,59.069,0,0,1,21.457-1.059c.863.467,15.1.837,25.975,17.105a100.565,100.565,0,0,1,8.138,15.407c8.606,19.445,13.5,34.615,32.72,43.246,14.776,6.547,46.266,10.714,46.751,33.944C288.717,174.854,288.863,174.871,289.079,173.145ZM91.42,197.054c-.121.058.311,1.292,1.363,3.682s2.717,5.945,5.276,10.534c1.283,2.291,2.789,4.843,4.632,7.58a88.181,88.181,0,0,0,6.6,8.685c15.62,17.853,34.551,22.79,49.258,19.22,21.26-5.295,37.912-29.662,60-23.053,8.734,2.642,28.679,17.963,49.383,1.4,12.077-9.7,13.178-24.86,11.6-20.191a36.264,36.264,0,0,1-12.755,18.705c-19.979,14.982-37.749.54-47.476-2.421-23.571-7.077-40.715,17.867-61.377,23.018-13.5,3.273-31.548-1.222-47.014-18.117a92.5,92.5,0,0,1-6.678-8.316c-1.893-2.63-3.469-5.09-4.835-7.3-2.725-4.424-4.6-7.851-5.882-10.113S91.557,196.988,91.42,197.054Z" transform="translate(-76.739 -60.254)" fill="#f6f6f6"/>
    <path id="Path_153550" data-name="Path 153550" d="M325.02,220.31c.13.046.3-.077.463-.39l.276-.843c.054-.349-.011-.548-.146-.59s-.3.086-.468.394l-.273.832C324.823,220.06,324.884,220.262,325.02,220.31Zm-1.415,3.563c.126.056.306-.051.494-.351l.345-.818c.083-.343.034-.547-.1-.6s-.31.061-.5.355l-.34.806C323.429,223.606,323.473,223.813,323.6,223.872Zm-1.727,3.422c.12.068.309-.022.524-.3l.419-.783c.114-.334.084-.542-.042-.605s-.315.033-.53.308l-.412.771C321.727,227.013,321.752,227.223,321.877,227.294Zm-2.059,3.233c.112.08.309.01.552-.248l.5-.737c.148-.321.139-.53.02-.606s-.317,0-.559.252l-.488.724C319.7,230.231,319.7,230.443,319.818,230.527Zm-2.407,2.981c.1.093.305.046.576-.182l.579-.675c.184-.3.2-.511.089-.6s-.315-.035-.584.186l-.567.661C317.326,233.2,317.3,233.411,317.411,233.508Zm-2.759,2.656c.089.105.3.085.595-.107l.662-.6c.221-.276.263-.481.165-.583s-.309-.074-.6.111l-.647.583C314.608,235.847,314.56,236.054,314.652,236.164Zm-3.105,2.244c.072.117.28.128.6-.02l.742-.495c.259-.242.33-.439.247-.553s-.3-.117-.614.022l-.724.483C311.55,238.088,311.472,238.286,311.547,238.409Zm-3.4,1.758c.053.127.258.168.6.071l.808-.379c.293-.2.392-.384.327-.509s-.275-.16-.611-.069l-.787.37C308.193,239.85,308.086,240.033,308.142,240.166Zm-3.633,1.217c.033.134.228.206.581.163l.857-.25c.32-.153.446-.319.4-.453s-.247-.2-.593-.163l-.834.243C304.609,241.078,304.475,241.243,304.509,241.383Zm-3.784.607c.01.137.19.241.546.257l.889-.1c.342-.1.494-.24.471-.379s-.211-.239-.558-.259l-.863.1C300.876,241.705,300.715,241.846,300.725,241.99Zm-3.826-.082c-.016.136.141.272.488.353l.893.061c.354-.033.529-.146.532-.287s-.165-.274-.5-.357l-.865-.06C297.1,241.656,296.916,241.765,296.9,241.908Zm-3.736-.833c-.044.13.082.3.4.452l.862.251c.357.026.552-.055.583-.193s-.109-.3-.426-.432l-.831-.243C293.411,240.872,293.209,240.938,293.163,241.075Zm-3.479-1.591c-.07.119.02.306.305.519l.794.414c.338.111.543.078.6-.05s-.042-.317-.317-.528l-.767-.4C289.969,239.334,289.757,239.36,289.684,239.484Zm-3.1-2.252c-.091.1-.039.3.2.569l.7.561c.31.175.517.183.6.069s.021-.319-.207-.58l-.676-.543C286.895,237.141,286.682,237.125,286.586,237.232Zm-2.616-2.8c-.109.084-.1.291.088.6l.58.684c.271.231.474.278.576.181s.081-.309-.094-.609l-.561-.662C284.291,234.4,284.085,234.341,283.97,234.429Zm-2.033-3.248c-.123.061-.15.267-.029.6l.438.781c.221.278.411.363.531.288s.139-.288.025-.616l-.423-.756C282.258,231.211,282.067,231.117,281.937,231.181Zm-1.345-3.582c-.133.034-.2.23-.149.582l.271.854c.161.317.33.438.462.388s.194-.255.148-.6l-.262-.824C280.9,227.694,280.732,227.562,280.592,227.6Zm-.557-3.789c-.138,0-.246.181-.271.537l.081.894c.089.345.228.5.367.478s.244-.208.273-.553l-.078-.861C280.316,223.969,280.18,223.8,280.035,223.809Zm.267-3.82c-.135-.024-.279.125-.379.467l-.11.89c.014.356.117.536.257.546s.282-.151.384-.482l.106-.858C280.543,220.2,280.445,220.015,280.3,219.989Zm1.077-3.674c-.127-.054-.3.061-.471.374l-.3.846c-.063.351,0,.549.134.588s.308-.087.479-.388l.288-.815C281.567,216.578,281.512,216.371,281.379,216.315Zm1.887-3.333c-.11-.082-.3-.011-.544.253l-.49.755c-.144.327-.13.533-.007.6s.321-.014.557-.266l.47-.724C283.387,213.283,283.382,213.068,283.267,212.982Zm2.668-2.744c-.082-.107-.3-.1-.605.086l-.662.613c-.221.282-.259.487-.157.585s.313.066.6-.119l.632-.585C285.96,210.548,286.025,210.355,285.934,210.238Zm3.332-1.876c-.049-.128-.251-.17-.6-.072l-.816.385c-.295.2-.391.385-.321.508s.282.156.615.066l.778-.367C289.209,208.682,289.318,208.5,289.266,208.362Zm3.721-.89c-.013-.137-.2-.232-.554-.23l-.888.15c-.339.115-.48.265-.447.4s.229.226.574.23l.849-.143C292.846,207.764,293,207.615,292.987,207.472Zm3.821.153c.025-.134-.122-.292-.466-.4q-.447-.065-.9-.1c-.359.03-.537.151-.542.291s.16.266.492.352q.429.033.854.095C296.593,207.852,296.781,207.768,296.808,207.625Zm3.6,1.28c.067-.119-.023-.316-.317-.527q-.406-.2-.826-.371c-.352-.08-.559-.017-.605.116s.074.3.364.482q.4.16.781.351C300.129,209.051,300.334,209.031,300.4,208.9Zm2.959,2.41c.1-.089.088-.3-.116-.6q-.312-.33-.65-.633c-.3-.2-.521-.206-.609-.1s-.032.308.178.576q.318.286.612.6C303.054,211.356,303.253,211.409,303.364,211.314Zm1.928,3.292c.129-.045.192-.253.107-.606q-.175-.42-.386-.823c-.217-.29-.417-.375-.537-.3s-.137.278-.034.6q.2.379.363.772C304.988,214.535,305.154,214.655,305.292,214.607Zm.5,3.772c.134.013.28-.149.35-.509a8.827,8.827,0,0,0-.022-.914c-.085-.355-.238-.51-.376-.49s-.233.2-.267.54a8.151,8.151,0,0,1,.02.847C305.548,218.186,305.647,218.365,305.793,218.379Zm-1.149,3.631c.119.066.316-.023.526-.319q.2-.408.364-.834c.074-.356,0-.562-.129-.6s-.3.083-.473.373q-.152.4-.341.781C304.5,221.734,304.517,221.939,304.644,222.01Zm-2.392,2.977c.091.1.306.08.6-.128q.323-.316.622-.656c.192-.306.2-.521.093-.609s-.308-.03-.576.182q-.284.322-.591.623C302.2,224.678,302.155,224.879,302.252,224.987Zm-3.183,2.12c.059.124.266.158.61.047.273-.128.523-.3.783-.45.275-.233.354-.426.276-.543s-.291-.13-.611-.007c-.248.144-.484.308-.745.429C299.108,226.79,299.008,226.977,299.069,227.107Zm-3.646,1.15c.023.136.213.217.57.19l.875-.212c.329-.139.46-.3.418-.433s-.244-.21-.589-.188l-.837.2C295.543,227.955,295.4,228.115,295.423,228.257Zm-3.823.184c-.011.137.153.264.505.326l.9.013c.353-.053.52-.174.513-.315s-.183-.264-.523-.329l-.863-.012C291.79,228.179,291.611,228.3,291.6,228.441Zm-3.759-.749c-.044.13.085.293.412.438l.871.229c.356.035.548-.043.575-.182s-.114-.3-.428-.446l-.835-.22C288.089,227.483,287.886,227.555,287.84,227.692Zm-3.45-1.651c-.075.115.007.3.287.526l.785.44c.335.122.54.094.6-.033s-.035-.32-.3-.539l-.75-.421C284.684,225.9,284.47,225.92,284.391,226.041Zm-2.888-2.5c-.1.091-.076.3.129.592l.628.644c.3.2.512.219.6.113s.046-.312-.163-.583l-.6-.618C281.82,223.483,281.611,223.441,281.5,223.536Z" transform="translate(-244.616 -111.88)" fill="#e7e7e7"/>
    <path id="Path_153551" data-name="Path 153551" d="M361.954,208.787c-.12.066-.138.273,0,.6l.473.761c.234.268.427.344.543.263s.125-.294,0-.617l-.457-.735C362.276,208.8,362.081,208.717,361.954,208.787Zm-1.558-3.5c-.13.046-.183.248-.107.595l.329.829c.182.3.359.414.488.357s.177-.265.106-.606l-.321-.808C360.709,205.357,360.532,205.239,360.4,205.287Zm-1.053-3.688c-.134.03-.213.225-.182.577l.219.862c.141.324.3.457.439.419s.21-.237.184-.585l-.215-.847C359.643,201.706,359.483,201.567,359.342,201.6Zm-.689-3.771c-.136.02-.231.208-.231.561l.143.874c.113.334.263.482.4.456s.23-.215.234-.566l-.142-.865C358.944,197.957,358.8,197.806,358.654,197.827Zm-.51-3.8c-.136.017-.238.2-.25.555l.112.876c.1.337.246.491.386.472s.238-.2.254-.556l-.112-.874C358.429,194.161,358.287,194.006,358.144,194.024Zm-.516-3.8c-.136.021-.235.209-.242.56l.124.87c.105.334.252.487.392.469s.235-.2.246-.557l-.125-.876C357.914,190.352,357.77,190.2,357.628,190.222Zm-.705-3.768c-.134.031-.221.226-.207.575l.177.857c.126.326.282.47.421.445s.223-.216.211-.569l-.18-.869C357.215,186.563,357.063,186.422,356.922,186.454Zm-1.084-3.675c-.129.048-.192.253-.139.6l.273.827c.162.308.334.435.47.4s.2-.237.145-.588l-.279-.846C356.141,182.851,355.974,182.729,355.838,182.779Zm-1.6-3.478c-.119.068-.15.282-.044.612l.4.772c.207.278.4.378.526.319s.159-.263.053-.6l-.408-.8C354.542,179.323,354.358,179.23,354.233,179.3ZM352,176.2c-.1.093-.087.309.082.61l.541.671c.258.229.466.288.581.206s.1-.287-.069-.6l-.563-.7C352.3,176.153,352.105,176.1,352,176.2Zm-2.222-1.99a.363.363,0,0,0,.036.433l.379.3a.364.364,0,0,0,.431-.073.334.334,0,0,0-.025-.428l-.4-.31A.334.334,0,0,0,349.776,174.207Z" transform="translate(-327.262 -100.267)" fill="#e7e7e7"/>
    <g id="Group_57562" data-name="Group 57562" transform="translate(2.472 193.045)">
      <ellipse id="Ellipse_422" data-name="Ellipse 422" cx="113.487" cy="10.315" rx="113.487" ry="10.315" transform="translate(0 0)" fill="#f6f6f6"/>
    </g>
    <g id="Group_57564" data-name="Group 57564" transform="translate(56.755 6)">
      <path id="Path_153557" data-name="Path 153557" d="M175.292,79.839V208.988c0,5.712,3.132,10.332,6.991,10.332h78.17c3.865,0,7-4.62,7-10.332V79.839c0-5.712-3.132-10.332-7-10.332h-78.17C178.424,69.507,175.292,74.127,175.292,79.839Z" transform="translate(-175.292 -69.507)" fill="#f1f1f1"/>
      <path id="Path_153559" data-name="Path 153559" d="M195.46,168.291a4.59,4.59,0,0,0,4.6,4.6h56.81a4.6,4.6,0,0,0,0-9.194h-56.81A4.555,4.555,0,0,0,195.46,168.291Zm66-15.323a4.589,4.589,0,0,0-4.6-4.6h-56.81a4.6,4.6,0,1,0,0,9.194h56.81A4.624,4.624,0,0,0,261.463,152.968Z" transform="translate(-182.384 -97.228)" fill="#fff"/>
      <path id="Path_153675" data-name="Path 153675" d="M195.46,168.291a4.59,4.59,0,0,0,4.6,4.6h56.81a4.6,4.6,0,0,0,0-9.194h-56.81A4.555,4.555,0,0,0,195.46,168.291Zm66-15.323a4.589,4.589,0,0,0-4.6-4.6h-56.81a4.6,4.6,0,1,0,0,9.194h56.81A4.624,4.624,0,0,0,261.463,152.968Z" transform="translate(-182.382 -65.228)" fill="#fff"/>
      <path id="Path_153676" data-name="Path 153676" d="M195.46,168.291a4.59,4.59,0,0,0,4.6,4.6h56.81a4.6,4.6,0,0,0,0-9.194h-56.81A4.555,4.555,0,0,0,195.46,168.291Z" transform="translate(-182.382 -48.552)"/>
      <g id="Group_57563" data-name="Group 57563" transform="translate(28.112 9.678)">
        <path id="Path_153560" data-name="Path 153560" d="M236.611,120.363A17.966,17.966,0,1,0,218.644,102.4,17.986,17.986,0,0,0,236.611,120.363Zm0-35.1A17.134,17.134,0,1,1,219.477,102.4,17.153,17.153,0,0,1,236.611,85.264Z" transform="translate(-218.644 -84.432)" fill="#606060"/>
        <ellipse id="Ellipse_423" data-name="Ellipse 423" cx="15.317" cy="15.317" rx="15.317" ry="15.317" transform="translate(2.649 2.649)" fill="#fff"/>
        <path id="Path_153561" data-name="Path 153561" d="M246.606,99.921a5.484,5.484,0,1,0-5.488,5.488A5.486,5.486,0,0,0,246.606,99.921ZM231.663,111.03a10.207,10.207,0,0,0,18.909,0,2.646,2.646,0,0,0-2.453-3.634H234.124A2.65,2.65,0,0,0,231.663,111.03Z" transform="translate(-223.152 -87.95)"/>
      </g>
    </g>
    <g id="Group_57597" data-name="Group 57597" transform="translate(24.687 38.038)">
      <path id="Path_153627" data-name="Path 153627" d="M353,131.778c-.066,0-.148-.322-.241-.953a15.617,15.617,0,0,0-.722-2.752,11.9,11.9,0,0,0-2.43-3.983,12.649,12.649,0,0,0-2.294-1.973,13.02,13.02,0,0,0-3.154-1.46,11.646,11.646,0,0,0-14.524,14.536,13.029,13.029,0,0,0,1.462,3.15,12.631,12.631,0,0,0,1.972,2.291,11.9,11.9,0,0,0,3.981,2.429,15.691,15.691,0,0,0,2.751.724c.631.094.953.177.953.245s-.322.118-.984.146a10.6,10.6,0,0,1-2.951-.41,11.716,11.716,0,0,1-4.427-2.355,13.1,13.1,0,0,1-2.245-2.423,13.752,13.752,0,0,1-1.7-3.431,12.892,12.892,0,0,1,16.079-16.092,13.735,13.735,0,0,1,3.436,1.7,13.107,13.107,0,0,1,2.426,2.246,11.707,11.707,0,0,1,2.357,4.429,10.552,10.552,0,0,1,.409,2.952C353.126,131.456,353.075,131.778,353,131.778Z" transform="translate(-327.891 -118.911)" fill="#e7e7e7"/>
      <path id="Path_153628" data-name="Path 153628" d="M351.6,134.259a8.3,8.3,0,0,1-14.637,5.355c-.077-.09-.149-.183-.222-.277a8.3,8.3,0,1,1,13.189-10.075c.124.166.243.332.349.507A8.24,8.24,0,0,1,351.6,134.259Z" transform="translate(-330.39 -121.387)" fill="#b9873e"/>
      <path id="Path_153629" data-name="Path 153629" d="M351.639,135.963A8.3,8.3,0,0,1,337,141.318c-.077-.089-.149-.183-.221-.277a8.23,8.23,0,0,1-1.657-3.919c.051.068.107.136.162.2a8.3,8.3,0,0,0,14.637-5.355,8.033,8.033,0,0,0-.081-1.163c.047.055.085.106.128.162.124.166.243.332.349.507A8.239,8.239,0,0,1,351.639,135.963Z" transform="translate(-330.433 -123.091)" fill="#d19b4c"/>
      <path id="Path_153630" data-name="Path 153630" d="M350.914,133.322c.209.258-.526,1.24-2.309,2.862l-2.375,1.924-1.188.962-.3.24-.148.12-.127.1a1.479,1.479,0,0,1-.156.106,1.45,1.45,0,0,1-1.422.034,1.473,1.473,0,0,1-.487-.458l-.084-.132-.051-.084-.1-.165-.186-.315-.326-.568c-.2-.351-.352-.648-.467-.888a3.239,3.239,0,0,1-.219-.545.5.5,0,0,0-.037-.139c-.008-.017.016-.026.029-.061a.79.79,0,0,1,.077-.152.243.243,0,0,1,.226-.012,1.95,1.95,0,0,1,.608.341,7.158,7.158,0,0,1,.78.713q.217.225.456.5l.467.546a.028.028,0,0,0,.018-.014l4.03-3.264C349.586,133.572,350.694,133.051,350.914,133.322Z" transform="translate(-332.475 -123.952)" fill="#fff"/>
    </g>
    <g id="Group_57598" data-name="Group 57598" transform="translate(38.281 74.954)">
      <path id="Path_153631" data-name="Path 153631" d="M340.976,177.085a3.687,3.687,0,1,0-.331,5.2A3.691,3.691,0,0,0,340.976,177.085Zm-4.3,3.788a2.046,2.046,0,1,1,2.887.184A2.048,2.048,0,0,1,336.673,180.873Z" transform="translate(-334.522 -175.836)" fill="#f0f0f0"/>
    </g>
    <g id="Group_57599" data-name="Group 57599" transform="translate(149.05 146.325)" opacity="0.5">
      <path id="Path_153632" data-name="Path 153632" d="M165.951,285.9a.818.818,0,0,0-.611.144l-4.571,3.289a.821.821,0,0,0-.187,1.146l3.289,4.571a.821.821,0,0,0,1.146.187l4.571-3.289a.821.821,0,0,0,.187-1.146l-3.289-4.571A.818.818,0,0,0,165.951,285.9Zm-3.557,4.286,3.238-2.33,2.33,3.238-3.238,2.33Z" transform="translate(-160.427 -285.893)" fill="#999"/>
    </g>
    <g id="Group_57600" data-name="Group 57600" transform="translate(72.926 146.957)" opacity="0.5">
      <path id="Path_153633" data-name="Path 153633" d="M284.9,286.89a.706.706,0,0,0-.863.5l-1.759,6.616a.706.706,0,0,0,.952.833l5.21-2.158a.706.706,0,0,0,.288-1.084l-3.451-4.458A.705.705,0,0,0,284.9,286.89Zm-.891,6.1,1.026-3.858,2.012,2.6Z" transform="translate(-282.255 -286.867)" fill="#b0b0b0"/>
    </g>
    <g id="Group_57601" data-name="Group 57601" transform="translate(0 115.661)">
      <path id="Path_153634" data-name="Path 153634" d="M369.22,240.078V251a1.471,1.471,0,0,0,1.47,1.47H384.4a1.471,1.471,0,0,0,1.47-1.47V240.078a1.471,1.471,0,0,0-1.47-1.47H370.69A1.471,1.471,0,0,0,369.22,240.078Z" transform="translate(-362.724 -238.608)" fill="#f6f6f6"/>
      <path id="Path_153635" data-name="Path 153635" d="M381.415,260.082h13.03a1.637,1.637,0,0,0,1.638-1.632v-9.761a1.637,1.637,0,0,0-1.638-1.632h-13.03a1.634,1.634,0,0,0-1.632,1.632v9.761A1.634,1.634,0,0,0,381.415,260.082Zm13.03-12.7a1.312,1.312,0,0,1,1.314,1.308v9.761a1.312,1.312,0,0,1-1.314,1.308h-13.03a1.309,1.309,0,0,1-1.308-1.308v-9.761a1.309,1.309,0,0,1,1.308-1.308Z" transform="translate(-379.783 -241.578)" fill="#e7e7e7"/>
    </g>
    <g id="Group_57602" data-name="Group 57602" transform="translate(115.795 168.733)">
      <path id="Path_153636" data-name="Path 153636" d="M190.662,321.916v10.927a1.471,1.471,0,0,0,1.47,1.47h13.715a1.471,1.471,0,0,0,1.47-1.47V321.916a1.471,1.471,0,0,0-1.47-1.47H192.131A1.471,1.471,0,0,0,190.662,321.916Z" transform="translate(-184.166 -320.446)" fill="#f6f6f6"/>
      <path id="Path_153637" data-name="Path 153637" d="M202.858,341.92h13.029a1.637,1.637,0,0,0,1.638-1.632v-9.761a1.637,1.637,0,0,0-1.638-1.632H202.858a1.634,1.634,0,0,0-1.632,1.632v9.761A1.634,1.634,0,0,0,202.858,341.92Zm13.029-12.7a1.312,1.312,0,0,1,1.314,1.308v9.761a1.312,1.312,0,0,1-1.314,1.308H202.858a1.309,1.309,0,0,1-1.308-1.308v-9.761a1.309,1.309,0,0,1,1.308-1.308Z" transform="translate(-201.226 -323.416)" fill="#e7e7e7"/>
    </g>
    <g id="Group_57607" data-name="Group 57607" transform="translate(-102.875 -157.234)">
      <path id="Path_153682" data-name="Path 153682" d="M1687.592,480.833c-1.821-1.609-2.355-2.91-3.267-3.161s-4.474.248-5.427.147-4.114-.309-4.607-.309c.142.588,2.9,1.769,4.256,2.244a18.279,18.279,0,0,0,4.716.392c.351.335,1.856,2.59,1.856,2.59C1687.627,481.736,1687.592,480.833,1687.592,480.833Z" transform="translate(-1427.969 -225.743)" fill="#e6d6bf"/>
      <ellipse id="Ellipse_462" data-name="Ellipse 462" cx="34.832" cy="5.93" rx="34.832" ry="5.93" transform="translate(262.251 354.487)" fill="#f0f0f0" style="mix-blend-mode: multiply;isolation: isolate"/>
      <path id="Path_153680" data-name="Path 153680" d="M1823.844,514.184c-2.213-1.925-5.52-1.414-5.588-1.01-1.136,3.076-2.617,5.52-2.953,5.52a150.874,150.874,0,0,1-13.2-8.414c-.875.134-3.105,2.288-3.038,2.9,4.645,5.52,14.675,13.729,18.184,13.935,1.347,0,9.008-7.876,9.008-7.876C1826,517,1825.846,515.925,1823.844,514.184Z" transform="translate(-1542.705 -255.879)" fill="#b9873e"/>
      <path id="Path_153683" data-name="Path 153683" d="M1982.247,621.59c-.707,18.679-3.445,32.31-5.308,51.9s-7.668,45.992-7.668,45.992c4.36,1.465,21.254,2.941,29.2,2.589,6.866-.3,18.411-.417,24.873-2.538-3.987-19.137-9.193-49.818-10.141-63.658s-1.679-22.664-4.4-27.565C2003.249,622.4,1982.247,621.59,1982.247,621.59Z" transform="translate(-1699.224 -358.235)" fill="#b9873e"/>
      <path id="Path_153684" data-name="Path 153684" d="M2298.946,820.673c-.006-3.841-.012-7.47.053-12.94l-2.827-.034c-.065,5.489-.059,9.126-.053,12.978.007,4.112.014,8.365-.065,15.295-.094,8.385-.064,11.64-.032,15.086.019,2.118.039,4.308.032,7.814,0,2.9,0,5.578,0,8.065,0,5.6,0,10.027-.059,13.724-.063,3.872,0,9.665.037,12.6,1.027,0,1.977-.014,2.827-.051-.039-2.925-.1-8.674-.037-12.505.06-3.721.06-8.156.06-13.771q0-3.73,0-8.06c.006-3.522-.014-5.719-.034-7.845-.031-3.431-.06-6.676.034-15.028C2298.956,829.053,2298.946,824.793,2298.946,820.673Z" transform="translate(-1999.646 -529.377)" fill="#e6d6bf"/>
      <path id="Path_153677" data-name="Path 153677" d="M2045.887,91.842c.762-1.068,7.093-4.872,11.889-3.155,3.805,1.362,7.976,7.018,9.642,13.025s2.847,8.54,6.128,11.216,4.323,2.567,7.029,5.156c3.736,3.577,4.363,5.993,4.363,5.993-2.827,2.727-4.981,3.446-8.616,11.578s-6.837,13.968-14.2,13.665-12.724-6.368-16.21-13.988-6.715-9.437-8.23-10.245c0-1.413,1.818-3.13,3.941-5.856s5.116-5.317,5.184-6.428.715-3.072.647-3.341a41.846,41.846,0,0,1-2.821-10.671C2044.19,94.86,2045.13,92.9,2045.887,91.842Z" transform="translate(-1762.132 132.209)" fill="#242424"/>
      <path id="Path_153679" data-name="Path 153679" d="M2152.75,168.767a19.794,19.794,0,0,0-2.057-2.3c-3.612-2.366-6.424-2.45-7.315-2.238-.315.063-1.036.647-1.458,2.238a16.254,16.254,0,0,0,1.643,6.706c1.279,2.659,4.183,5.177,5.148,4.943C2150.274,177.733,2152.75,173.4,2152.75,168.767Z" transform="translate(-1857.987 62.41)" fill="#e6d6bf"/>
      <path id="Path_153678" data-name="Path 153678" d="M2045.187,155.955c.448-2.118,3.914-2.709,8.773-.922-3.578-3.351-6.8-3.472-7.531-3.239C2045.187,152.783,2045.047,154.583,2045.187,155.955Zm14.92,6.806a14.61,14.61,0,0,0-3.714-5.007,18.074,18.074,0,0,1,1.348,4l-.2.044a14.408,14.408,0,0,0-1.6-4.4l-.453-.577.592.434a14.519,14.519,0,0,1,4.214,5.429Zm-11.445,8.847a19.619,19.619,0,0,0-2.166-3.721l.161-.12a19.56,19.56,0,0,1,2.193,3.768Zm-2.792,1.679-.2-.014c.081-1.224.161-2.106.161-2.115l.2.019C2046.03,171.186,2045.951,172.065,2045.871,173.287Zm25.592,1.745c-2.676-3.569-3.314-7.069-3.876-10.157a29.154,29.154,0,0,0-.865-3.8l.192-.063a28.98,28.98,0,0,1,.872,3.829c.558,3.066,1.191,6.541,3.839,10.071Zm5.033,2.8c-.737-2.378-2.886-4.9-4.457-6.744-.287-.335-.555-.651-.8-.942l.156-.129c.241.29.508.6.793.939,1.582,1.856,3.748,4.4,4.5,6.816Zm-35.233,5.694c-3.458-1.206-4.363-.022-4.372-.01l-.161-.118c.039-.055,1.006-1.321,4.6-.063Z" transform="translate(-1761.258 73.843)" fill="#fff"/>
      <path id="Path_153685" data-name="Path 153685" d="M2457.88,762.316c-.781,3.324-1.323,5.17-.961,6.419.563,1.938,3.421,4.57,4.4,4.57a20.012,20.012,0,0,0,3.7-.907c-.227-.832-2.268-.6-3.175-.983-.87-2.493-1.573-2.574-2.21-3.96a16.408,16.408,0,0,1,2.042-3.629C2459.339,761.331,2457.88,762.316,2457.88,762.316Z" transform="translate(-2147.545 -487.467)" fill="#e6d6bf"/>
      <path id="Path_153681" data-name="Path 153681" d="M2459,533.71c2.087,2.76,2.289,4.039,2.289,5.25s-2.9,7.068-6.058,10.838-5.81,6.6-6.338,7.067c-1.471-.269-4.433-2.423-4.433-3.163,2.424-10.165,5.99-16.223,9.626-18.041S2459,533.71,2459,533.71Z" transform="translate(-2136.193 -277.424)" fill="#b9873e"/>
    </g>
  </g>
</svg>
