<svg xmlns="http://www.w3.org/2000/svg" width="13.183" height="12.323" viewBox="0 0 13.183 12.323">
  <path id="Path_157964" data-name="Path 157964" d="M6.732,5.865A17.7,17.7,0,0,1,6.445,11.6h5.732a18.158,18.158,0,0,1-.287-5.732l1.146.86,1.146-2.006C11.833,2.956,12.045,3,11.317,3A2.006,2.006,0,1,1,7.3,3c-.725,0-.49-.063-2.866,1.719L5.585,6.725ZM3.006,3.572a.287.287,0,0,0,0-.573H1.287a.287.287,0,0,0,0,.573H1.86v7.451H1.287a.287.287,0,1,0,0,.573H3.006a.287.287,0,1,0,0-.573H2.433V10.45h.573a.287.287,0,0,0,0-.573H2.433v-.86h.573a.287.287,0,1,0,0-.573H2.433v-.86h.573a.287.287,0,0,0,0-.573H2.433v-.86h.573a.287.287,0,0,0,0-.573H2.433v-.86h.573a.287.287,0,0,0,0-.573H2.433V3.572Zm10.6,9.744v.573h-.573v-.573a.287.287,0,1,0-.573,0v.573H11.6v-.573a.287.287,0,1,0-.573,0v.573h-.86v-.573a.287.287,0,1,0-.573,0v.573h-.86v-.573a.287.287,0,1,0-.573,0v.573H7.3v-.573a.287.287,0,1,0-.573,0v.573h-.86v-.573a.287.287,0,1,0-.573,0v.573H4.726v-.573a.287.287,0,1,0-.573,0v1.719a.287.287,0,1,0,.573,0v-.573H13.61v.573a.287.287,0,1,0,.573,0V13.316a.287.287,0,1,0-.573,0Z" transform="translate(-1 -2.999)"/>
</svg>
