<svg xmlns="http://www.w3.org/2000/svg" width="24.161" height="24.162" viewBox="0 0 24.161 24.162">
  <path id="size" d="M2.933,3.15,1.825,4.257a.483.483,0,0,1-.683-.683L3.074,1.641a.483.483,0,0,1,.683,0L5.691,3.574a.483.483,0,0,1-.683.683L3.9,3.15V22.762H23.512L22.4,21.654a.483.483,0,1,1,.683-.683L25.02,22.9a.483.483,0,0,1,0,.683L23.087,25.52a.483.483,0,1,1-.683-.683l1.108-1.108H3.9v1.45a.483.483,0,1,1-.966,0v-1.45H1.483a.483.483,0,0,1,0-.966h1.45V3.15ZM20.822,6.806a.966.966,0,0,0-.966-.966H6.306a.966.966,0,0,0-.966.966V20.355a.966.966,0,0,0,.966.966H19.855a.966.966,0,0,0,.966-.966V6.806Z" transform="translate(-1 -1.5)" fill="#fff" fill-rule="evenodd"/>
</svg>
