<svg xmlns="http://www.w3.org/2000/svg" width="22.771" height="21.349" viewBox="0 0 22.771 21.349">
  <path id="snapchat_4_" data-name="snapchat (4)" d="M22.325,15.942c-3.044-.5-4.416-3.619-4.472-3.752l-.013-.026a.941.941,0,0,1-.107-.774c.167-.39.8-.592,1.225-.726.122-.038.238-.075.333-.112a2.577,2.577,0,0,0,.908-.542.862.862,0,0,0,.276-.621.976.976,0,0,0-.732-.847,1.324,1.324,0,0,0-.5-.094,1.1,1.1,0,0,0-.461.094,2.588,2.588,0,0,1-.949.27.871.871,0,0,1-.315-.068l.027-.44,0-.065c.1-1.541.219-3.458-.29-4.6a6.184,6.184,0,0,0-1.393-1.994,5.827,5.827,0,0,0-1.667-1.1A6.585,6.585,0,0,0,11.6,0h-.057l-.391,0a6.61,6.61,0,0,0-2.6.549,5.794,5.794,0,0,0-1.661,1.1A6.2,6.2,0,0,0,5.5,3.641C5,4.778,5.116,6.695,5.213,8.235v0l.031.505a.911.911,0,0,1-.373.07,2.469,2.469,0,0,1-1.015-.272.911.911,0,0,0-.386-.08,1.363,1.363,0,0,0-.682.191.943.943,0,0,0-.482.616.85.85,0,0,0,.324.8,2.8,2.8,0,0,0,.848.485c.1.038.212.074.333.112.421.134,1.06.336,1.227.726a.948.948,0,0,1-.108.774l-.011.026a7.536,7.536,0,0,1-1.147,1.773,6.437,6.437,0,0,1-1.383,1.221,5.091,5.091,0,0,1-1.943.756A.531.531,0,0,0,0,16.5a.674.674,0,0,0,.056.232h0a1.423,1.423,0,0,0,.771.659,8.809,8.809,0,0,0,2.227.579,2.7,2.7,0,0,1,.137.49c.037.171.075.347.131.534a.583.583,0,0,0,.611.444,2.973,2.973,0,0,0,.524-.073,5.956,5.956,0,0,1,1.194-.135,5.189,5.189,0,0,1,.854.073,4.056,4.056,0,0,1,1.6.824,5.166,5.166,0,0,0,3.145,1.225l.115,0c.046,0,.1,0,.164,0a5.173,5.173,0,0,0,3.145-1.224h0a4.071,4.071,0,0,1,1.6-.823,5.189,5.189,0,0,1,.854-.073,5.984,5.984,0,0,1,1.194.127,2.886,2.886,0,0,0,.524.064h.026a.576.576,0,0,0,.585-.437q.075-.262.131-.529a2.8,2.8,0,0,1,.135-.487,8.87,8.87,0,0,0,2.227-.579,1.428,1.428,0,0,0,.77-.658.676.676,0,0,0,.057-.235.529.529,0,0,0-.445-.552Z" transform="translate(0)" fill="#b9873e"/>
</svg>
