<svg xmlns="http://www.w3.org/2000/svg" width="13.184" height="10.508" viewBox="0 0 13.184 10.508">
  <path id="sorting" d="M8.115,15.232H15.5a.508.508,0,1,0,0-1.017H8.115a.512.512,0,1,0,0,1.021Zm0,2.941H15.5a.512.512,0,1,0,0-1.021H8.115a.512.512,0,1,0,0,1.021Zm9.742,3.259a.524.524,0,0,0,.23.056.5.5,0,0,0,.307-.1l2.178-1.634a.508.508,0,0,0-.613-.807L18.6,19.963V11.492a.512.512,0,1,0-1.025,0v9.484A.508.508,0,0,0,17.857,21.432Zm-9.742-.323H15.5a.51.51,0,1,0,0-1.021H8.115a.512.512,0,1,0,0,1.021Zm0-8.814H15.5a.512.512,0,1,0,0-1.021H8.115a.512.512,0,1,0,0,1.021Z" transform="translate(-7.557 -10.98)" fill="#242424"/>
</svg>
