<svg id="Layer_2" data-name="Layer 2" xmlns="http://www.w3.org/2000/svg" width="25.995" height="26" viewBox="0 0 25.995 26">
  <path id="Path_156377" data-name="Path 156377" d="M6.642,12.928H4.785A2.785,2.785,0,0,0,2,15.714V25.926a2.785,2.785,0,0,0,2.785,2.785H6.642a2.785,2.785,0,0,0,2.785-2.785V15.714a2.785,2.785,0,0,0-2.785-2.785Zm.928,13a.928.928,0,0,1-.928.928H4.785a.928.928,0,0,1-.928-.928V15.714a.928.928,0,0,1,.928-.928H6.642a.928.928,0,0,1,.928.928Zm8.355-10.212H14.069A2.785,2.785,0,0,0,11.284,18.5v7.427a2.785,2.785,0,0,0,2.785,2.785h1.857a2.785,2.785,0,0,0,2.785-2.785V18.5A2.785,2.785,0,0,0,15.926,15.714Zm.928,10.212a.928.928,0,0,1-.928.928H14.069a.928.928,0,0,1-.928-.928V18.5a.928.928,0,0,1,.928-.928h1.857a.928.928,0,0,1,.928.928ZM25.21,12H23.353a2.785,2.785,0,0,0-2.785,2.785V25.926a2.785,2.785,0,0,0,2.785,2.785H25.21a2.785,2.785,0,0,0,2.785-2.785V14.785A2.785,2.785,0,0,0,25.21,12Zm.928,13.926a.928.928,0,0,1-.928.928H23.353a.928.928,0,0,1-.928-.928V14.785a.928.928,0,0,1,.928-.928H25.21a.928.928,0,0,1,.928.928Z" transform="translate(-2 -2.711)"/>
  <path id="Path_156378" data-name="Path 156378" d="M26.04,2.895a.928.928,0,0,0-.594-.39l-2.58-.488a.928.928,0,1,0-.346,1.823l.151.029L15.13,8.393,6.273,4.851a.929.929,0,1,0-.689,1.725l9.284,3.714a.928.928,0,0,0,.823-.067l8.29-4.973-.11.576a.928.928,0,0,0,.743,1.085.94.94,0,0,0,.175.017.928.928,0,0,0,.911-.756l.489-2.58a.923.923,0,0,0-.149-.7Z" transform="translate(-2.215 -1.994)"/>
</svg>
