<svg xmlns="http://www.w3.org/2000/svg" width="25.99" height="25.994" viewBox="0 0 25.99 25.994">
  <g id="Layer_2" data-name="Layer 2" transform="translate(-2 -1.995)">
    <rect id="Rectangle_19845" data-name="Rectangle 19845" width="7.008" height="14.893" rx="2" transform="translate(2 13.097)"/>
    <rect id="Rectangle_19846" data-name="Rectangle 19846" width="7.008" height="12.265" rx="2" transform="translate(11.491 15.725)"/>
    <rect id="Rectangle_19847" data-name="Rectangle 19847" width="7.008" height="15.769" rx="2" transform="translate(20.982 12.221)"/>
    <path id="Path_156379" data-name="Path 156379" d="M5.591,6.317l9.4,3.5a1,1,0,0,0,.833-.063l8.394-4.693-.111.543a.829.829,0,0,0,.148.658.948.948,0,0,0,.6.367,1.02,1.02,0,0,0,.177.016.925.925,0,0,0,.922-.713l.5-2.435a.829.829,0,0,0-.148-.658.948.948,0,0,0-.6-.367l-2.612-.461a.982.982,0,0,0-.909.277A.831.831,0,0,0,22,3.168a.927.927,0,0,0,.737.568l.153.027L15.256,8.033,6.289,4.69a.964.964,0,0,0-1.222.489.858.858,0,0,0,.525,1.139Z" transform="translate(-0.372 0)"/>
  </g>
</svg>
