<svg xmlns="http://www.w3.org/2000/svg" width="25.988" height="26" viewBox="0 0 25.988 26">
  <path id="history" d="M26.214,4.242H8.264A4.026,4.026,0,0,0,4.245,8.261V18.346a3.4,3.4,0,0,0,3.337,3.387l2.445.036v5.087a3.391,3.391,0,0,0,3.387,3.387H26.847a3.391,3.391,0,0,0,3.387-3.387V8.261a4.026,4.026,0,0,0-4.019-4.019ZM10.025,19.511l-2.409-.036A1.133,1.133,0,0,1,6.5,18.346V8.261a1.761,1.761,0,0,1,3.522,0Zm17.95,7.344a1.129,1.129,0,0,1-1.129,1.129H13.412a1.129,1.129,0,0,1-1.129-1.129V8.261A4,4,0,0,0,11.877,6.5H26.214a1.763,1.763,0,0,1,1.761,1.761ZM25.25,9.886a1.129,1.129,0,0,1-1.129,1.129H18.355a1.129,1.129,0,1,1,0-2.258h5.767A1.129,1.129,0,0,1,25.25,9.886Zm0,4.515a1.129,1.129,0,0,1-1.129,1.129H16.1a1.129,1.129,0,1,1,0-2.258h8.025A1.129,1.129,0,0,1,25.25,14.4Zm0,4.515a1.129,1.129,0,0,1-1.129,1.129H16.1a1.129,1.129,0,1,1,0-2.258h8.025A1.129,1.129,0,0,1,25.25,18.917Z" transform="translate(-4.245 -4.242)"/>
</svg>
