<svg xmlns="http://www.w3.org/2000/svg" width="25.957" height="26" viewBox="0 0 25.957 26">
  <path id="history_1_" data-name="history (1)" d="M26.189,4.24H8.268A4.013,4.013,0,0,0,4.25,8.257V18.346a3.4,3.4,0,0,0,3.318,3.385l2.46.045v5.078a3.4,3.4,0,0,0,3.386,3.385H26.821a3.4,3.4,0,0,0,3.386-3.385V8.257A4.013,4.013,0,0,0,26.189,4.24ZM10.028,19.52l-2.415-.045a1.129,1.129,0,0,1-1.106-1.128V8.257a1.761,1.761,0,0,1,3.521,0Zm14.084.519H16.077a1.131,1.131,0,0,1-1.129-1.128,1.147,1.147,0,0,1,1.129-1.128h8.035a1.147,1.147,0,0,1,1.129,1.128,1.131,1.131,0,0,1-1.129,1.128Zm0-4.514H16.077A1.131,1.131,0,0,1,14.949,14.4a1.147,1.147,0,0,1,1.129-1.128h8.035A1.147,1.147,0,0,1,25.241,14.4a1.131,1.131,0,0,1-1.129,1.128Zm0-4.514H18.334a1.131,1.131,0,0,1-1.129-1.128,1.147,1.147,0,0,1,1.129-1.128h5.778a1.147,1.147,0,0,1,1.129,1.128,1.131,1.131,0,0,1-1.129,1.128Z" transform="translate(-4.25 -4.24)"/>
</svg>
