<svg xmlns="http://www.w3.org/2000/svg" width="21.627" height="27.033" viewBox="0 0 21.627 27.033">
  <path id="profile" d="M7.954,17.257a34.147,34.147,0,0,1,5.836,0,20.18,20.18,0,0,1,3.154.464c2.245.452,3.709,1.344,4.324,2.652a4.056,4.056,0,0,1-.035,3.413c-.626,1.308-2.091,2.2-4.371,2.664a20.215,20.215,0,0,1-3.142.452,26.336,26.336,0,0,1-3.083.131h-.366a1.035,1.035,0,0,1,0-2.058h.808c.81-.009,1.625-.047,2.44-.119a19.24,19.24,0,0,0,2.859-.4c1.618-.357,2.634-.868,2.953-1.546a1.9,1.9,0,0,0,0-1.641c-.319-.69-1.335-1.225-2.918-1.546a18.4,18.4,0,0,0-2.906-.416,30.263,30.263,0,0,0-5.493,0,19.393,19.393,0,0,0-2.871.4c-1.618.357-2.623.868-2.953,1.546a1.974,1.974,0,0,0-.177.821,2.021,2.021,0,0,0,.177.833A3.433,3.433,0,0,0,4.552,24.3h0l.137.037A1.034,1.034,0,0,1,4.032,26.3a5.233,5.233,0,0,1-3.65-2.5,4.008,4.008,0,0,1,0-3.413c.626-1.344,2.091-2.212,4.347-2.676A21.67,21.67,0,0,1,7.954,17.257ZM8.062.55A7.159,7.159,0,0,1,15.9,2.126a7.279,7.279,0,0,1,1.552,7.9A7.187,7.187,0,0,1,3.618,7.243h0l.007-.313A7.241,7.241,0,0,1,8.062.55ZM10.8,2.07A5.121,5.121,0,0,0,7.16,3.581a5.21,5.21,0,0,0,1.662,8.462,5.125,5.125,0,0,0,5.617-1.116,5.211,5.211,0,0,0,1.122-5.652A5.15,5.15,0,0,0,10.8,2.07Z"/>
</svg>
