<svg xmlns="http://www.w3.org/2000/svg" width="21.821" height="27.033" viewBox="0 0 21.821 27.033">
  <g id="Group_58351" data-name="Group 58351" transform="translate(19341.716 -5918)">
    <g id="Ellipse_511" data-name="Ellipse 511" transform="translate(-19338 5918)" stroke="#000" stroke-width="1">
      <circle cx="7" cy="7" r="7" stroke="none"/>
      <circle cx="7" cy="7" r="6.5" fill="none"/>
    </g>
    <g id="Path_156380" data-name="Path 156380" transform="translate(-19342 5935.034)">
      <path d="M 10.75585556030273 9.499512672424316 C 7.582805633544922 9.499512672424316 5.100555419921875 9.125822067260742 3.378065586090088 8.388822555541992 C 1.793245673179626 7.710732460021973 0.9272456169128418 6.748342514038086 0.8041156530380249 5.528402328491211 C 0.7033856511116028 4.530392646789551 0.9783656001091003 3.663732528686523 1.621415615081787 2.952502489089966 C 3.025565624237061 1.399492502212524 6.184205532073975 0.5786125063896179 10.75585556030273 0.5786125063896179 C 15.83834552764893 0.5786125063896179 19.17354583740234 1.37094247341156 20.66879653930664 2.933582544326782 C 21.34225654602051 3.637392520904541 21.64688491821289 4.495382308959961 21.60009574890137 5.556582450866699 C 21.53932571411133 6.934752464294434 20.57985496520996 7.923182487487793 18.6668758392334 8.578362464904785 C 16.85707473754883 9.198202133178711 14.26935577392578 9.499512672424316 10.75585556030273 9.499512672424316 Z" stroke="none"/>
      <path d="M 10.75585556030273 1.078612327575684 C 5.163616180419922 1.078612327575684 2.903535842895508 2.280002593994141 1.99229621887207 3.287832736968994 C 1.440364837646484 3.898282527923584 1.214435577392578 4.614752292633057 1.30157470703125 5.478192329406738 C 1.406515121459961 6.517852783203125 2.150075912475586 7.319562435150146 3.574745178222656 7.929132461547852 C 5.234725952148438 8.639382362365723 7.650795936584473 8.999512672424316 10.75585556030273 8.999512672424316 C 14.21334552764893 8.999512672424316 16.74806594848633 8.707022666931152 18.5048656463623 8.105342864990234 C 19.3796558380127 7.805732727050781 20.0409049987793 7.430802345275879 20.47023582458496 6.990982532501221 C 20.86919593811035 6.582262516021729 21.07538604736328 6.10587215423584 21.10057640075684 5.534562587738037 C 21.14104461669922 4.616942405700684 20.88163566589355 3.879222393035889 20.30754470825195 3.279252529144287 C 19.66169548034668 2.604312419891357 18.59958648681641 2.075362205505371 17.15068626403809 1.707112312316895 C 15.50983619689941 1.290072441101074 13.35830593109131 1.078612327575684 10.75585556030273 1.078612327575684 M 10.75585556030273 0.07861232757568359 C 19.1696662902832 0.07861232757568359 22.24804496765137 2.21240234375 22.09960556030273 5.578612327575684 C 21.95117568969727 8.944822311401367 17.30734634399414 9.999512672424316 10.75585556030273 9.999512672424316 C 4.204376220703125 9.999512672424316 0.5917949676513672 8.403812408447266 0.3066349029541016 5.578612327575684 C 0.02148628234863281 2.753422737121582 2.342056274414062 0.07861232757568359 10.75585556030273 0.07861232757568359 Z" stroke="none" fill="#000"/>
    </g>
  </g>
</svg>
