<svg xmlns="http://www.w3.org/2000/svg" width="16.108" height="16.108" viewBox="0 0 16.108 16.108">
  <g id="verified-file" transform="translate(-22 -22)">
    <path id="Path_152639" data-name="Path 152639" d="M248.929,32.548a.793.793,0,0,0,.792.792h3.96a1.432,1.432,0,0,0-.19-.236l-4.326-4.326a1.434,1.434,0,0,0-.236-.19Z" transform="translate(-219.118 -6.361)"/>
    <path id="Path_152640" data-name="Path 152640" d="M34.781,27.6H30.6a1.413,1.413,0,0,1-1.411-1.411V22.008c-.049,0-.1-.008-.149-.008H23.411A1.413,1.413,0,0,0,22,23.411V36.144a1.413,1.413,0,0,0,1.411,1.411h8.138a4.248,4.248,0,0,1,2.93-7.324q.156,0,.31.011v-2.5C34.789,27.7,34.786,27.647,34.781,27.6ZM29.5,33.427H25.629a.31.31,0,1,1,0-.62H29.5a.31.31,0,0,1,0,.62Zm1.106-3.319H25.629a.31.31,0,1,1,0-.62h4.978a.31.31,0,1,1,0,.62Z"/>
    <path id="Path_152641" data-name="Path 152641" d="M282.769,279.141a3.629,3.629,0,1,0,3.629,3.629A3.633,3.633,0,0,0,282.769,279.141ZM284.4,281.9l-1.668,2.124a.313.313,0,0,1-.463.028l-1.106-1.106a.31.31,0,1,1,.438-.438l.859.859,1.452-1.849a.31.31,0,1,1,.487.383Z" transform="translate(-248.29 -248.291)"/>
  </g>
</svg>
