<svg id="thumbs-up_3_" data-name="thumbs-up (3)" xmlns="http://www.w3.org/2000/svg" width="40.087" height="40.087" viewBox="0 0 40.087 40.087">
  <path id="Path_152628" data-name="Path 152628" d="M0,0H40.087V40.087H0Z" fill="none" opacity="0.87"/>
  <path id="Path_152629" data-name="Path 152629" d="M21.244,2.357,11.99,11.611a3.337,3.337,0,0,0-.969,2.355V30.652a3.35,3.35,0,0,0,3.341,3.341H29.395a3.364,3.364,0,0,0,3.073-2.021l5.445-12.711a5.018,5.018,0,0,0-4.61-6.982H23.866l1.587-7.65a2.519,2.519,0,0,0-.685-2.288,2.485,2.485,0,0,0-3.524.017ZM4.341,33.993a3.35,3.35,0,0,0,3.341-3.341V17.29A3.341,3.341,0,0,0,1,17.29V30.652A3.35,3.35,0,0,0,4.341,33.993Z" transform="translate(0.67 1.083)"/>
</svg>
