<svg xmlns="http://www.w3.org/2000/svg" width="17.733" height="20.751" viewBox="0 0 17.733 20.751">
  <path id="tiktok_1_" data-name="tiktok (1)" d="M50.071.017c0,.317.094,4.891,4.894,5.177,0,1.319,0,2.276,0,3.535a8.41,8.41,0,0,1-4.9-1.735l-.005,6.881c.066,4.776-3.449,7.682-8.043,6.679-7.922-2.37-5.29-14.119,2.665-12.862,0,3.793,0,0,0,3.793C41.4,11,40.3,13.735,41.173,15.692a2.921,2.921,0,0,0,5.208-.346,6.64,6.64,0,0,0,.194-1.683V0l3.5.017Z" transform="translate(-37.234)" fill="#b9873e" fill-rule="evenodd"/>
</svg>
