<svg xmlns="http://www.w3.org/2000/svg" width="41.105" height="42.687" viewBox="0 0 41.105 42.687">
  <g id="remove" transform="translate(-42.837 -43.69)">
    <path id="Path_153426" data-name="Path 153426" d="M683.893,697.4l5.2,5.2,1.493,1.493a1.383,1.383,0,0,0,1.956-1.956l-5.2-5.2-1.493-1.493a1.383,1.383,0,0,0-1.956,1.956Z" transform="translate(-609.002 -619.168)" fill="#242424"/>
    <path id="Path_153427" data-name="Path 153427" d="M682.4,707.538l5.2-5.2,1.493-1.493a1.383,1.383,0,0,0-1.956-1.956l-5.2,5.2-1.493,1.493a1.383,1.383,0,0,0,1.956,1.956Z" transform="translate(-605.727 -622.443)" fill="#242424"/>
    <circle id="Ellipse_401" data-name="Ellipse 401" cx="9.754" cy="9.754" r="9.754" transform="translate(51.34 44.378)" fill="#242424"/>
    <path id="Path_153428" data-name="Path 153428" d="M220.68,54.132q0,.414-.035.827c-.011.136-.026.271-.043.407.018-.146-.011.074-.013.084-.013.089-.029.177-.045.266a9.688,9.688,0,0,1-.438,1.6c-.045.123-.094.246-.144.367.054-.132-.03.067-.034.075-.026.06-.054.119-.082.178-.12.256-.253.5-.394.749-.13.225-.271.443-.418.656-.074.107-.15.211-.228.314-.128.17.082-.1-.05.064-.054.068-.109.134-.164.2a9.814,9.814,0,0,1-1.136,1.144c-.1.084-.2.166-.3.246.11-.087-.058.043-.065.049-.052.039-.1.077-.157.114-.228.164-.465.316-.706.46-.224.133-.454.255-.688.37a5.728,5.728,0,0,1-.677.293,9.7,9.7,0,0,1-1.6.448c-.132.026-.266.047-.4.067a.4.4,0,0,1-.085.011l-.2.022c-.3.03-.6.044-.894.047-.276,0-.553-.009-.829-.029-.136-.01-.272-.024-.407-.04a.4.4,0,0,1-.085-.011c-.089-.013-.178-.028-.266-.043a9.689,9.689,0,0,1-1.606-.427,5.764,5.764,0,0,1-.623-.254c-.257-.118-.507-.249-.752-.389-.225-.128-.445-.268-.659-.414-.107-.073-.212-.149-.316-.226-.008-.006-.176-.136-.065-.049-.068-.053-.135-.108-.2-.163a9.821,9.821,0,0,1-1.151-1.129c-.085-.1-.167-.2-.248-.3-.133-.166.078.105-.05-.064-.039-.051-.077-.1-.115-.156-.166-.227-.319-.462-.465-.7-.135-.223-.258-.452-.375-.685-.059-.117-.113-.235-.167-.355,0-.009-.089-.207-.034-.075-.034-.081-.066-.162-.1-.244a9.015,9.015,0,0,1-.091-6.37c.043-.124.09-.247.139-.369,0-.009.087-.208.031-.077.026-.06.053-.12.079-.18.116-.258.246-.509.384-.755.127-.226.265-.446.41-.662.072-.108.147-.213.224-.317.038-.052.077-.1.116-.155-.08.105.078-.1.093-.113a9.817,9.817,0,0,1,1.121-1.159,7.93,7.93,0,0,1,1.214-.887c.222-.136.45-.261.682-.379.116-.059.235-.115.353-.169l.18-.08c-.123.053.116-.046.138-.055a9.687,9.687,0,0,1,1.588-.469,7.72,7.72,0,0,1,1.573-.171c.277-.007.554,0,.831.017.137.008.273.021.409.034l.2.023c-.137-.017.127.02.151.024a9.69,9.69,0,0,1,1.614.406A7.607,7.607,0,0,1,216,46.2c.227.125.448.262.665.405.108.071.214.146.319.222.053.038.1.077.156.115l.014.01.1.081a9.813,9.813,0,0,1,1.166,1.114c.086.1.169.2.252.295.041.05.081.1.121.151-.082-.1.074.1.088.117.167.226.322.46.469.7s.282.488.409.74c.059.117.113.235.167.355,0,.009.089.207.034.075.034.081.066.162.1.244a9.7,9.7,0,0,1,.472,1.658c.026.132.047.266.067.4a.4.4,0,0,1,.011.085c.011.09.02.181.029.271.028.3.039.6.041.9a.692.692,0,0,0,1.383,0A10.44,10.44,0,0,0,207.351,44.6a10.441,10.441,0,0,0-4.861,4.449,10.584,10.584,0,0,0-1.169,6.837,10.4,10.4,0,0,0,3.141,5.858,10.554,10.554,0,0,0,6.191,2.788,10.413,10.413,0,0,0,6.6-1.606,10.547,10.547,0,0,0,4.805-8.793.692.692,0,0,0-1.383,0Z" transform="translate(-150.524 0)" fill="#242424"/>
    <path id="Path_153429" data-name="Path 153429" d="M81.875,467.555a9.477,9.477,0,0,0,1.41,5.01H60.229a3.77,3.77,0,0,1-3.791-3.75v-8.039A12.005,12.005,0,0,1,61.916,450.7a15.494,15.494,0,0,0,24.2,0,12.015,12.015,0,0,1,5.131,7.224A9.631,9.631,0,0,0,81.875,467.555Z" transform="translate(-12.929 -386.904)" fill="#242424"/>
    <path id="Path_153430" data-name="Path 153430" d="M68.254,454.235a10.459,10.459,0,0,0,1.5,5.37l.6-1.041H47.3a3.187,3.187,0,0,1-1.384-.327,3.762,3.762,0,0,1-.335-.2c-.054-.035-.107-.073-.159-.11.114.082-.054-.044-.063-.051a3.8,3.8,0,0,1-.282-.263c-.045-.046-.088-.094-.131-.142-.016-.018-.172-.217-.093-.111a3.776,3.776,0,0,1-.392-.67c-.09-.193.046.123-.03-.076-.024-.061-.044-.124-.064-.187a3.745,3.745,0,0,1-.111-.451c0-.011-.031-.229-.014-.083-.008-.068-.012-.136-.017-.2s-.006-.14-.006-.21v-7.724a15.259,15.259,0,0,1,.078-1.689c.021-.185.061-.442.112-.71.055-.293.124-.583.2-.871a10.869,10.869,0,0,1,1.327-3.038c.152-.246.315-.484.485-.718s.264-.35.472-.6a12.083,12.083,0,0,1,1.159-1.181,9.78,9.78,0,0,1,1.292-.984l-.838-.108a16.168,16.168,0,0,0,25.172,0l-.838.108a11.435,11.435,0,0,1,4.812,6.816l.667-.876a10.488,10.488,0,0,0-6.391,2.427,10.292,10.292,0,0,0-3.436,5.678,10.6,10.6,0,0,0-.24,2.218.692.692,0,0,0,1.383,0q0-.415.035-.829c.011-.136.027-.272.043-.407-.018.146.012-.075.013-.085.014-.089.029-.178.046-.266a9.567,9.567,0,0,1,.444-1.6c.023-.062.047-.123.071-.184,0-.009.086-.209.031-.078.051-.121.106-.24.163-.358.121-.255.256-.5.4-.748.132-.224.275-.441.424-.654a5.763,5.763,0,0,1,.45-.575,8.893,8.893,0,0,1,5.387-3.048c.089-.015.178-.029.268-.041q-.108.014.018,0l.2-.022c.228-.023.458-.036.687-.043a.7.7,0,0,0,.667-.876,12.858,12.858,0,0,0-5.447-7.642.684.684,0,0,0-.838.108,14.992,14.992,0,0,1-5.748,4.414c-.193.085-.472.195-.742.294-.308.113-.62.214-.935.307a15.392,15.392,0,0,1-1.866.423,14.891,14.891,0,0,1-1.84.169,15.717,15.717,0,0,1-1.975-.064,12.569,12.569,0,0,1-1.425-.216c-.5-.1-.992-.229-1.478-.378a13.732,13.732,0,0,1-2.732-1.164,14.808,14.808,0,0,1-2.362-1.616,15.589,15.589,0,0,1-2.113-2.17.684.684,0,0,0-.838-.108,12.808,12.808,0,0,0-4.746,5.582,13.6,13.6,0,0,0-1.065,5.486v7.585a4.5,4.5,0,0,0,3.8,4.464,13,13,0,0,0,1.752.055H70.355a.7.7,0,0,0,.6-1.041,9.023,9.023,0,0,1-1.315-4.672.692.692,0,0,0-1.383,0Z" transform="translate(0 -373.574)" fill="#242424"/>
  </g>
</svg>
