<svg id="Component_116_1" data-name="Component 116 – 1" xmlns="http://www.w3.org/2000/svg" width="87" height="87" viewBox="0 0 87 87">
  <rect id="Card" width="87" height="87" rx="5" fill="#f8f8f8"/>
  <g id="sales_3_" data-name="sales (3)" transform="translate(19 19)">
    <path id="Path_156389" data-name="Path 156389" d="M7.578,43.086a1.864,1.864,0,0,0,2.7,0l7.808-7.808L23,40.194a1.864,1.864,0,0,0,2.7,0l25.64-25.64V18.6a1.928,1.928,0,1,0,3.856,0V9.928A1.933,1.933,0,0,0,53.267,8H44.592a1.928,1.928,0,1,0,0,3.856H48.64L24.35,36.146,19.434,31.23a1.864,1.864,0,0,0-2.7,0L7.578,40.387A1.864,1.864,0,0,0,7.578,43.086Z" transform="translate(-7 -8)"/>
    <path id="Path_156390" data-name="Path 156390" d="M49.7,52.339V33.061a4.819,4.819,0,1,0-9.639,0V52.339a4.819,4.819,0,1,0,9.639,0Zm-5.783,0V33.061a.964.964,0,1,1,1.928,0V52.339a.964.964,0,1,1-1.928,0Zm-5.783,0V44.628a4.819,4.819,0,0,0-9.639,0v7.711a4.819,4.819,0,0,0,9.639,0Zm-5.783,0V44.628a.964.964,0,1,1,1.928,0v7.711a.964.964,0,1,1-1.928,0Zm-5.783,0V49.447a4.819,4.819,0,1,0-9.639,0v2.892a4.819,4.819,0,0,0,9.639,0Zm-5.783,0V49.447a.964.964,0,1,1,1.928,0v2.892a.964.964,0,1,1-1.928,0Zm-3.856-34.7h10.6a1.928,1.928,0,1,0,0-3.856h-10.6a1.928,1.928,0,0,0,0,3.856Zm0-5.783h3.856a1.928,1.928,0,1,0,0-3.856H16.928a1.928,1.928,0,0,0,0,3.856Zm18.025,2.8c-.1-.1-.1-.193-.193-.289a2.051,2.051,0,0,0-2.7,0c-.1.1-.193.193-.193.289-.1.1-.1.193-.193.386-.1.1-.1.193-.1.386v.771c0,.1.1.193.1.386,0,.1.1.193.193.289s.1.193.193.289a1.832,1.832,0,0,0,1.253.482,1.9,1.9,0,0,0,1.349-.578c.1-.1.193-.193.193-.289.1-.1.1-.193.193-.289s.1-.193.1-.386v-.771c0-.1-.1-.193-.1-.386,0-.1-.1-.193-.1-.289Z" transform="translate(-7.289 -8)"/>
  </g>
</svg>
