<svg id="Component_117_1" data-name="Component 117 – 1" xmlns="http://www.w3.org/2000/svg" width="87" height="87" viewBox="0 0 87 87">
  <rect id="Card" width="87" height="87" rx="5"/>
  <path id="history" d="M40.622,4.242H10.9A6.666,6.666,0,0,0,4.245,10.9V27.6A5.634,5.634,0,0,0,9.771,33.2l4.049.06v8.423a5.615,5.615,0,0,0,5.608,5.608H41.669a5.615,5.615,0,0,0,5.608-5.608V10.9a6.666,6.666,0,0,0-6.655-6.654ZM13.816,29.525l-3.989-.06A1.877,1.877,0,0,1,7.984,27.6V10.9a2.916,2.916,0,0,1,5.832,0ZM43.538,41.685a1.869,1.869,0,0,1-1.869,1.869H19.424a1.869,1.869,0,0,1-1.869-1.869V10.9a6.624,6.624,0,0,0-.673-2.916h23.74A2.92,2.92,0,0,1,43.538,10.9Zm-4.513-28.1a1.869,1.869,0,0,1-1.869,1.869H27.608a1.869,1.869,0,1,1,0-3.738h9.549A1.869,1.869,0,0,1,39.026,13.588Zm0,7.477a1.869,1.869,0,0,1-1.869,1.869H23.869a1.869,1.869,0,1,1,0-3.738H37.156A1.869,1.869,0,0,1,39.026,21.065Zm0,7.477a1.869,1.869,0,0,1-1.869,1.869H23.869a1.869,1.869,0,1,1,0-3.738H37.156A1.869,1.869,0,0,1,39.026,28.541Z" transform="translate(17.738 17.732)" fill="#f8f8f8"/>
</svg>
