<svg xmlns="http://www.w3.org/2000/svg" width="24.113" height="19.735" viewBox="0 0 24.113 19.735">
  <path id="twitter" d="M9,19.735a20.69,20.69,0,0,1-3.2-.254,15,15,0,0,1-4.371-1.591L0,17.11,1.547,16.6c1.691-.556,2.719-.9,3.993-1.441A5.311,5.311,0,0,1,2.809,12L2.449,10.9l.3.045a5.366,5.366,0,0,1-.672-.829A5.087,5.087,0,0,1,1.21,7.1l.068-.953.571.221a5.337,5.337,0,0,1-.517-1.449A5.516,5.516,0,0,1,1.919,1.2l.5-.913.665.8A12.239,12.239,0,0,0,11.01,5.551,4.742,4.742,0,0,1,11.3,3.031a4.718,4.718,0,0,1,1.918-2.2A5.761,5.761,0,0,1,16.559.011a5.34,5.34,0,0,1,3.282,1.354,11.019,11.019,0,0,0,1.2-.4c.263-.1.562-.212.936-.341L23.356.149l-.9,2.566c.059,0,.12-.009.184-.012l1.471-.067-.869,1.188c-.05.068-.063.087-.08.114-.07.106-.157.237-1.351,1.83a2.248,2.248,0,0,0-.42,1.464,13.844,13.844,0,0,1-.756,5.568,9.854,9.854,0,0,1-2.645,3.918A11.683,11.683,0,0,1,12.455,19.4,17.048,17.048,0,0,1,9,19.735Zm0,0" transform="translate(0 0)" fill="#b9873e"/>
</svg>
