<svg id="Component_113_1" data-name="Component 113 – 1" xmlns="http://www.w3.org/2000/svg" width="49" height="46" viewBox="0 0 49 46">
  <g id="Rectangle" fill="#f8f8f8" stroke="#eaeaea" stroke-width="1">
    <rect width="49" height="46" stroke="none"/>
    <rect x="0.5" y="0.5" width="48" height="45" fill="none"/>
  </g>
  <g id="Apple_Pay_Mark_RGB_041619" transform="translate(8.569 12.379)">
    <path id="XMLID_4_" d="M29.01,0H2.526c-.092,0-.183,0-.275,0a3.846,3.846,0,0,0-.6.056,1.968,1.968,0,0,0-.57.2A1.917,1.917,0,0,0,.6.624a1.987,1.987,0,0,0-.353.505,2.158,2.158,0,0,0-.187.592,4.306,4.306,0,0,0-.051.624C0,2.44,0,2.536,0,2.631v15.98c0,.1,0,.191,0,.286a4.3,4.3,0,0,0,.051.623,2.158,2.158,0,0,0,.188.594,1.983,1.983,0,0,0,.353.505,1.906,1.906,0,0,0,.485.367,1.96,1.96,0,0,0,.569.2,3.876,3.876,0,0,0,.6.055l.275,0H29.336q.138,0,.275,0a3.886,3.886,0,0,0,.6-.055,1.962,1.962,0,0,0,.569-.2,1.908,1.908,0,0,0,.485-.367,2,2,0,0,0,.353-.505,2.145,2.145,0,0,0,.188-.594,4.3,4.3,0,0,0,.051-.623q0-.143,0-.286V2.631q0-.143,0-.286a4.305,4.305,0,0,0-.051-.624,2.145,2.145,0,0,0-.188-.594,2,2,0,0,0-.353-.505A1.919,1.919,0,0,0,30.78.257a1.969,1.969,0,0,0-.569-.2,3.854,3.854,0,0,0-.6-.057C29.519,0,29.428,0,29.336,0Z" fill="#2a2b2c"/>
    <g id="maestro" transform="translate(5.311 3.908)">
      <g id="Group" opacity="0">
        <rect id="Rectangle-2" data-name="Rectangle" width="21.371" height="14.133" fill="#fff"/>
      </g>
      <rect id="Rectangle-3" data-name="Rectangle" width="5.637" height="9.209" transform="translate(7.867 2.462)" fill="#151515"/>
      <path id="Path" d="M7.269,5.859a5.841,5.841,0,0,1,2.21-4.6,5.859,5.859,0,1,0,0,9.209,5.841,5.841,0,0,1-2.21-4.6Z" transform="translate(1.205 1.209)" fill="#e73b36"/>
      <path id="Shape" d="M.276.227H.237V0H.292L.364.16.431,0H.486V.226H.447V.055L.386.206H.342L.276.055V.227ZM.11.227H.078V.039H0V0H.193V.039H.11V.226Z" transform="translate(19.483 10.467)" fill="#00a1de"/>
      <path id="Path-2" data-name="Path" d="M9.474,5.855A5.859,5.859,0,0,1,0,10.459,5.859,5.859,0,0,0,.983,2.236,5.741,5.741,0,0,0,0,1.25a5.859,5.859,0,0,1,9.474,4.6Z" transform="translate(10.683 1.212)" fill="#49a948"/>
    </g>
  </g>
</svg>
