<svg xmlns="http://www.w3.org/2000/svg" xmlns:xlink="http://www.w3.org/1999/xlink" width="123" height="123" viewBox="0 0 123 123">
  <defs>
    <filter id="Rectangle" x="0" y="0" width="123" height="123" filterUnits="userSpaceOnUse">
      <feOffset input="SourceAlpha"/>
      <feGaussianBlur stdDeviation="5" result="blur"/>
      <feFlood flood-opacity="0.141"/>
      <feComposite operator="in" in2="blur"/>
      <feComposite in="SourceGraphic"/>
    </filter>
  </defs>
  <g id="Component_110_1" data-name="Component 110 – 1" transform="translate(15 15)">
    <g transform="matrix(1, 0, 0, 1, -15, -15)" filter="url(#Rectangle)">
      <g id="Rectangle-2" data-name="Rectangle" transform="translate(15 15)" fill="#f8f8f8" stroke="#fff" stroke-width="1">
        <rect width="93" height="93" stroke="none"/>
        <rect x="0.5" y="0.5" width="92" height="92" fill="none"/>
      </g>
    </g>
    <g id="_000000ff" data-name="#000000ff" transform="translate(-26.153 -107.917)">
      <path id="Path_143699" data-name="Path 143699" d="M401.436,133.894a.463.463,0,0,1,.2-.274c-.1,1.174-.3,2.336-.437,3.506-.295,2.122-.507,4.253-.715,6.384-.056,1.182-.065,2.364-.045,3.546a4.1,4.1,0,0,0,.623,2.365,3.263,3.263,0,0,0,4.286.772c.72-.578,1.234-1.378,1.969-1.938.8-.439,1.763-.017,2.606-.3a2.369,2.369,0,0,0,.62-.325c-.373-.337-.8-.606-1.182-.928a.632.632,0,0,1-.259-.652,3.81,3.81,0,0,1,.659-1.156,15.044,15.044,0,0,1,3.306-3.386c.585-.366,1.256.055,1.654.5a.75.75,0,0,1,.02,1.066c-.518.218-1.021-.319-1.532-.088a3.625,3.625,0,0,0-1.339,1.01.317.317,0,0,0,.05.48,1.936,1.936,0,0,0,1.911.248c1.025-.321,1.618-1.281,2.373-1.972.249-.135.51.136.45.392-.118.6-.324,1.189-.5,1.78-.07.328-.427.414-.685.547a5.048,5.048,0,0,0-1.536,1.251c-.9.919-1.731,1.914-2.691,2.776a6.809,6.809,0,0,1-2.051,1.409c-.684.306-1.448-.036-2.151.175a1.667,1.667,0,0,0-.626.509c-.659.765-1.1,1.7-1.824,2.415a3.412,3.412,0,0,1-2.721,1.151,2.11,2.11,0,0,1-1.386-.8,5.466,5.466,0,0,1-1.336-2.681,24.648,24.648,0,0,1-.172-4.068,31.306,31.306,0,0,1,.258-3.131A69.2,69.2,0,0,1,401.436,133.894Z" transform="translate(-318.251)"/>
      <path id="Path_143700" data-name="Path 143700" d="M328.269,175.053a.721.721,0,0,1,.694.239c.481.413.949.839,1.424,1.26a.946.946,0,0,1,.391.688,1.511,1.511,0,0,1-.435.561q-1.014.941-2.021,1.887c-.142.138-.359.309-.549.147-.473-.338-.871-.77-1.317-1.144a3.289,3.289,0,0,1-.665-.687c-.136-.3.092-.58.287-.784.586-.6,1.162-1.218,1.744-1.828A1.188,1.188,0,0,1,328.269,175.053Z" transform="translate(-253.2 -36.786)"/>
      <path id="Path_143701" data-name="Path 143701" d="M328.17,224.576c.286-.187.607.059.831.235.517.446,1.031.9,1.534,1.359a.605.605,0,0,1,.016.926c-.676.663-1.38,1.3-2.069,1.949a1.322,1.322,0,0,1-.475.335c-.267.013-.441-.231-.633-.377-.5-.472-1.038-.9-1.511-1.391-.273-.345.067-.742.312-.989C326.856,225.957,327.461,225.211,328.17,224.576Z" transform="translate(-253.212 -80.748)"/>
      <path id="Path_143702" data-name="Path 143702" d="M79.157,231.307c.493-.182,1-.315,1.511-.457a13.283,13.283,0,0,1-.961,2.569,18.325,18.325,0,0,1-2.388,4.984,4.842,4.842,0,0,1-1.578,1.43,11.432,11.432,0,0,1-2.36.644c-.225.335-.256.773-.452,1.13a11.783,11.783,0,0,1-3.131,4,16.058,16.058,0,0,1-5.185,2.622,22.142,22.142,0,0,1-5.529.993,28.421,28.421,0,0,1-5.567-.3,24.019,24.019,0,0,1-3.916-1.106,37.352,37.352,0,0,1-5.526-2.734,29.737,29.737,0,0,1-3-2.134.646.646,0,0,1-.324-.481,1.965,1.965,0,0,1,.63.068c1.07.319,2.111.726,3.179,1.054a73.883,73.883,0,0,0,8.591,2.039,26.3,26.3,0,0,0,12.053-.5,17.6,17.6,0,0,0,3.756-1.716,5.617,5.617,0,0,0,2.354-2.33c.473-1.174.136-2.479.446-3.684a.936.936,0,0,1,.84-.681c1.1-.131,2.294.039,3.306-.521a4.227,4.227,0,0,0,1.6-1.874c.434-.868.873-1.734,1.3-2.6C78.9,231.571,78.965,231.367,79.157,231.307Z" transform="translate(0 -86.381)"/>
      <path id="Path_143703" data-name="Path 143703" d="M459.91,309.538c.258-.244.629-.029.856.154.541.46,1.074.929,1.593,1.415a.6.6,0,0,1,.008.909c-.719.69-1.457,1.36-2.18,2.044-.157.156-.4.355-.614.174-.635-.513-1.232-1.074-1.833-1.625a.566.566,0,0,1,.044-.838C458.471,311.009,459.207,310.288,459.91,309.538Z" transform="translate(-370.313 -156.193)"/>
      <path id="Path_143704" data-name="Path 143704" d="M156.157,402.187a.686.686,0,0,1,.62.2c.443.372.868.764,1.3,1.146a1.718,1.718,0,0,1,.546.674c.106.245-.142.446-.287.61q-1.066,1-2.134,2c-.134.11-.291.287-.484.2a4.524,4.524,0,0,1-.8-.648c-.385-.359-.8-.688-1.16-1.073-.253-.234-.109-.621.1-.831.427-.464.874-.909,1.3-1.371C155.485,402.788,155.738,402.368,156.157,402.187Z" transform="translate(-100.277 -238.585)"/>
      <path id="Path_143705" data-name="Path 143705" d="M210.718,402.078c.254-.1.509.068.7.219.488.405.952.838,1.43,1.254.177.165.405.344.389.615.039.276-.2.457-.369.63-.734.678-1.452,1.375-2.2,2.043-.206.191-.478.021-.639-.139-.543-.5-1.11-.976-1.64-1.491a.578.578,0,0,1,.054-.818c.435-.493.915-.946,1.356-1.435A5.7,5.7,0,0,1,210.718,402.078Z" transform="translate(-148.81 -238.476)"/>
      <path id="Path_143706" data-name="Path 143706" d="M447.56,428c.157-.147.38-.394.6-.205a9.822,9.822,0,0,1,1.261,1.1c.2.193.068.479-.12.623A20.674,20.674,0,0,1,447.66,431a12.528,12.528,0,0,1-1.361-1.222c-.16-.181-.017-.433.119-.579C446.794,428.8,447.177,428.4,447.56,428Z" transform="translate(-360.237 -261.293)"/>
      <path id="Path_143707" data-name="Path 143707" d="M311.09,441.387a6.512,6.512,0,0,1,1.776-.607c.17.938,0,1.9.093,2.851a2.621,2.621,0,0,1,1.13-.516,1.85,1.85,0,0,1,1.827,1.437,3.038,3.038,0,0,1-.325,2.437,2.445,2.445,0,0,1-1.943,1.111,3.141,3.141,0,0,1-1.789-.611c-.018-1.447,0-2.894-.007-4.341a4.474,4.474,0,0,0-.112-1.433c-.18.022-.359.045-.539.069-.04-.133-.078-.264-.113-.4m2.271,2.814a.621.621,0,0,0-.423.617c.017.739-.05,1.484.037,2.218a.956.956,0,0,0,1.345.241,2.285,2.285,0,0,0,.518-2.2A1.077,1.077,0,0,0,313.361,444.2Z" transform="translate(-240.176 -272.888)"/>
      <path id="Path_143708" data-name="Path 143708" d="M416.317,449.91l.329-.03a9.914,9.914,0,0,1,.084,1.435,4.371,4.371,0,0,1,.973.07,2.5,2.5,0,0,1,.056.541c-.337.017-.675.019-1.013.009-.075.842-.018,1.689-.039,2.534.021.259-.04.589.176.782.386.166.547-.568.918-.286.11.209-.07.434-.177.608a1.161,1.161,0,0,1-1.578.375,1.214,1.214,0,0,1-.411-1.024c-.033-.993.017-1.986-.027-2.978-.213-.011-.426-.022-.637-.042-.006-.083-.016-.248-.021-.33A2.97,2.97,0,0,0,416.317,449.91Z" transform="translate(-332.448 -280.973)"/>
      <path id="Path_143709" data-name="Path 143709" d="M266.965,461.8a2.579,2.579,0,0,1,1.945-.036.977.977,0,0,1,.637.8c.09,1.028,0,2.062.086,3.092a5.723,5.723,0,0,1,.523-.322c.289,0,.228.378.093.531a1.375,1.375,0,0,1-1.2.668c-.277-.038-.4-.314-.528-.522-.406.216-.786.567-1.276.538a1.185,1.185,0,0,1-1.2-1.024,1.255,1.255,0,0,1,.368-1.153,6.064,6.064,0,0,1,2.062-1.092,1.237,1.237,0,0,0-.124-.851.638.638,0,0,0-.956-.074c-.117.263-.045.571-.151.84a.555.555,0,0,1-.972-.035,1.136,1.136,0,0,1,.691-1.361m.292,2.849a.694.694,0,0,0,.233,1.011c.373.135.707-.147.993-.347.012-.462.017-.924,0-1.385A2.1,2.1,0,0,0,267.257,464.648Z" transform="translate(-200.139 -291.377)"/>
      <path id="Path_143710" data-name="Path 143710" d="M368.471,462.4a1.984,1.984,0,0,1,2.132-.768c.486.074,1.042.364,1.089.912.08,1.033.009,2.073.078,3.109.225-.1.421-.378.685-.283.131.216-.014.465-.165.629a1.29,1.29,0,0,1-1.1.532c-.271-.046-.391-.315-.521-.521a2.092,2.092,0,0,1-1.494.519,1.275,1.275,0,0,1-.62-2.153,6.1,6.1,0,0,1,2.064-1.1,1.286,1.286,0,0,0-.081-.793.668.668,0,0,0-.787-.281c-.534.231-.037,1.137-.706,1.246-.61.156-.842-.625-.57-1.051m.964,2.182a.691.691,0,0,0,.286,1.1,1.094,1.094,0,0,0,.889-.387,8.013,8.013,0,0,0,.013-1.369A2.426,2.426,0,0,0,369.435,464.587Z" transform="translate(-290.891 -291.379)"/>
      <path id="Path_143711" data-name="Path 143711" d="M449.84,462.181a9.019,9.019,0,0,1,1.685-.621c.231.059.175.315.192.494q0,1.506,0,3.011a2.807,2.807,0,0,0,.073.742c.163.174.427.2.638.3a2.308,2.308,0,0,1-.127.29,23.01,23.01,0,0,1-2.305-.006l-.031-.312c.213-.085.432-.156.642-.253,0-1.082.046-2.17-.028-3.249-.175-.1-.391-.03-.581-.067C449.937,462.4,449.886,462.292,449.84,462.181Z" transform="translate(-363.445 -291.349)"/>
    </g>
  </g>
</svg>
