<svg id="whatsapp_8_" data-name="whatsapp (8)" xmlns="http://www.w3.org/2000/svg" width="27.025" height="26.961" viewBox="0 0 27.025 26.961">
  <path id="whatsapp_8_2" data-name="whatsapp (8)" d="M3060.65,187.961h-18.274a4.376,4.376,0,0,1-4.376-4.367V165.367a4.376,4.376,0,0,1,4.376-4.367h18.274a4.376,4.376,0,0,1,4.375,4.367V183.6A4.375,4.375,0,0,1,3060.65,187.961Zm-13.072-7.731-3.685.955,1.38-3.606-.136-.3a7.323,7.323,0,1,1,2.715,3.122Zm-1.785-12.9a9.157,9.157,0,0,0-2.453,10.415l-1.886,5.564,5.694-1.183a9.155,9.155,0,1,0-1.355-14.8Zm9.816,8.951-.139-.083c-.369-.23-1.2-.724-1.365-.8a.592.592,0,0,0-.832.151c-.11.139-.416.45-.688.713-.023.023.008.022-.07-.027a5.159,5.159,0,0,1-2.437-2.524,4.26,4.26,0,0,0,.607-.671c.023-.034.045-.069.068-.105a.669.669,0,0,0,.036-.629,7.859,7.859,0,0,0-1.567-2.186,1.056,1.056,0,0,0-.8.283c.015-.014-.115.1-.161.148a2.751,2.751,0,0,0-.225.241,2.548,2.548,0,0,0-.572,1.444,3.463,3.463,0,0,0,.315,1.64,5.114,5.114,0,0,0,.372.719c-.083-.132.22.379.39.637a10.565,10.565,0,0,0,.981,1.272,7.421,7.421,0,0,0,1.949,1.576,4.332,4.332,0,0,0,2.559.759,2.333,2.333,0,0,0,1.715-1.025,1.8,1.8,0,0,0,.2-1.219.558.558,0,0,0-.2-.232C3055.705,176.336,3055.666,176.311,3055.609,176.277Z" transform="translate(-3038 -161)"/>
</svg>
