<svg xmlns="http://www.w3.org/2000/svg" width="44.703" height="31.432" viewBox="0 0 44.703 31.432">
  <path id="Icon_awesome-youtube" data-name="Icon awesome-youtube" d="M44.819,9.418A5.617,5.617,0,0,0,40.867,5.44C37.381,4.5,23.4,4.5,23.4,4.5s-13.979,0-17.465.94A5.617,5.617,0,0,0,1.984,9.418c-.934,3.509-.934,10.83-.934,10.83s0,7.321.934,10.83a5.533,5.533,0,0,0,3.952,3.914c3.486.94,17.465.94,17.465.94s13.979,0,17.465-.94a5.533,5.533,0,0,0,3.952-3.914c.934-3.509.934-10.83.934-10.83s0-7.321-.934-10.83ZM18.83,26.894V13.6l11.684,6.647L18.83,26.894Z" transform="translate(-1.05 -4.5)" fill="red"/>
</svg>
